<svg width="25" height="25" viewBox="0 0 25 25" fill="none" xmlns="http://www.w3.org/2000/svg">
<mask id="mask0_792_55" style="mask-type:alpha" maskUnits="userSpaceOnUse" x="0" y="0" width="25" height="25">
<rect x="0.168335" y="0.693069" width="24" height="24" fill="#D9D9D9"/>
</mask>
<g mask="url(#mask0_792_55)">
<path d="M5.16833 21.6931C4.61833 21.6931 4.1475 21.4972 3.75583 21.1056C3.36417 20.7139 3.16833 20.2431 3.16833 19.6931V5.69307C3.16833 5.14307 3.36417 4.67224 3.75583 4.28057C4.1475 3.8889 4.61833 3.69307 5.16833 3.69307H12.1683V5.69307H5.16833V19.6931H19.1683V12.6931H21.1683V19.6931C21.1683 20.2431 20.9725 20.7139 20.5808 21.1056C20.1892 21.4972 19.7183 21.6931 19.1683 21.6931H5.16833ZM9.86834 16.3931L8.46834 14.9931L17.7683 5.69307H14.1683V3.69307H21.1683V10.6931H19.1683V7.09307L9.86834 16.3931Z" fill="#1C1B1F"/>
</g>
</svg>
