<svg width="280" height="68" viewBox="0 0 280 68" fill="none" xmlns="http://www.w3.org/2000/svg">
<g clip-path="url(#clip0_31575_35140)">
<path d="M19.8422 52.3373H0.158356L0.0900879 1.36407H21.9699C24.1658 1.36407 28.4098 1.71679 30.4692 2.21742C37.0571 3.84447 40.9483 7.17821 43.9862 12.0593C46.6032 16.1668 47.8092 21.2641 47.8092 26.8507C47.8092 31.527 46.8876 35.7027 45.2606 39.3095C42.5754 45.1123 38.7524 48.7305 32.0166 50.7785C28.5463 51.848 24.0179 52.3373 19.8422 52.3373ZM20.1267 12.9127H11.9118V40.8797H21.401C23.7335 40.8797 26.6349 40.3791 27.7044 40.0264C30.674 39.1047 32.3807 37.6142 33.5754 35.35C34.9976 32.8696 35.4186 29.9 35.4186 26.8507C35.4186 24.4386 35.1342 22.1743 34.3605 20.2629C33.0862 17.1453 31.7435 15.2338 27.9206 13.7547C26.5666 13.2654 23.7335 12.9127 20.1267 12.9127Z" fill="#125DE6"/>
<path d="M58.7661 19.8533C62.3502 16.3489 67.4361 14.1415 73.4209 14.1415C79.4057 14.1415 84.503 16.3489 88.0757 19.8533C91.5801 23.2211 93.7874 28.0454 93.7192 33.8937C93.7874 39.7419 91.5801 44.5662 88.0757 47.9341C84.4917 51.4385 79.4057 53.6458 73.4209 53.6458C67.4361 53.6458 62.3388 51.4385 58.7661 47.9341C55.2617 44.5662 53.0544 39.7419 53.1226 33.8937C53.0544 28.0454 55.2503 23.2325 58.7661 19.8533ZM66.6852 26.7369C65.2402 28.3185 64.1365 30.7989 64.1365 33.8937C64.1365 36.9885 65.2402 39.4689 66.6852 41.0504C68.8242 43.326 71.1567 44.0087 73.4323 44.0087C75.7079 44.0087 78.0404 43.326 80.1794 41.0504C81.6244 39.4689 82.7281 36.9885 82.7281 33.8937C82.7281 30.7989 81.6244 28.3185 80.1794 26.7369C78.0404 24.4613 75.7079 23.7787 73.4323 23.7787C71.1567 23.7787 68.8128 24.4727 66.6852 26.7369Z" fill="#125DE6"/>
<path d="M104.744 19.8533C108.328 16.3489 113.414 14.1415 119.399 14.1415C125.384 14.1415 130.481 16.3489 134.054 19.8533C137.558 23.2211 139.766 28.0454 139.697 33.8937C139.766 39.7419 137.558 44.5662 134.054 47.9341C130.47 51.4385 125.384 53.6458 119.399 53.6458C113.414 53.6458 108.317 51.4385 104.744 47.9341C101.24 44.5662 99.0326 39.7419 99.1009 33.8937C99.0326 28.0454 101.24 23.2325 104.744 19.8533ZM112.663 26.7369C111.218 28.3185 110.115 30.7989 110.115 33.8937C110.115 36.9885 111.218 39.4689 112.663 41.0504C114.802 43.326 117.135 44.0087 119.411 44.0087C121.686 44.0087 124.019 43.326 126.158 41.0504C127.603 39.4689 128.706 36.9885 128.706 33.8937C128.706 30.7989 127.603 28.3185 126.158 26.7369C124.019 24.4613 121.686 23.7787 119.411 23.7787C117.135 23.7787 114.791 24.4727 112.663 26.7369Z" fill="#125DE6"/>
<path d="M147.173 15.5183H158.05V19.785C159.29 18.34 160.667 17.0998 161.976 16.3489C163.557 15.45 165.207 14.6991 167.551 14.426C170.168 14.0847 173.194 14.1529 174.434 14.3577L173.467 23.8583C169.815 23.3122 165.969 23.6535 163.421 24.4727C161.771 25.0189 160.121 26.3273 159.017 28.0568C158.403 28.9557 158.187 30.4007 158.187 31.1516L158.118 32.6649L158.187 52.3487H147.173V15.5183Z" fill="#125DE6"/>
<path d="M188.156 51.0289C185.062 49.5156 182.24 46.9669 180.237 43.8039C177.62 39.3323 177.689 35.4069 177.689 33.6889C177.689 30.321 178.451 22.8798 184.914 18.34C189.727 14.8356 194.062 14.5511 196.337 14.5511C198.681 14.5511 201.15 15.2338 203.153 15.9961C204.12 16.3375 204.939 16.8267 205.701 17.3729V15.45H216.51V52.3373H205.496V49.6521C204.814 50.1983 204.051 50.6875 203.221 51.0971C201.298 52.0643 198.818 52.6787 196.895 52.7469C194.005 52.8266 190.91 52.2691 188.156 51.0289ZM206.122 33.7571C206.122 30.9354 205.644 29.4904 204.882 28.1819C203.71 26.1908 201.446 24.2565 198.067 24.2565C195.381 24.2565 193.458 24.8709 191.661 26.4639C189.874 27.9771 188.703 30.7989 188.703 33.6889C188.703 37.4095 190.079 40.015 192.002 41.5396C193.447 42.6433 195.586 43.2577 197.373 43.2577C200.672 43.2577 203.915 41.7445 205.223 38.7179C205.633 37.7508 206.122 36.5789 206.122 33.7571Z" fill="#125DE6"/>
<path d="M223.041 64.0452L227.035 55.2387L229.31 56.2741C230.755 56.8202 231.791 56.8202 232.678 56.8202C234.396 56.8202 235.636 55.7848 236.535 54.6129C236.945 54.0667 237.298 53.2362 237.571 52.3373L221.949 15.5182H233.998L242.805 38.3652L250.724 15.5182H262.773L251.827 43.7356C250.86 46.216 249.768 49.5156 248.528 52.8152C247.014 56.4675 245.228 60.1084 242.748 62.5206C241.439 63.7608 239.994 64.6596 238.481 65.274C236.069 66.2412 233.736 66.446 231.802 66.446C231.085 66.446 225.578 65.8998 223.041 64.0452Z" fill="#125DE6"/>
<path d="M268.462 42.5068H280.09V52.3373H268.462V42.5068ZM268.53 1H280.022L279.476 35.2931H268.667L268.53 1Z" fill="#125DE6"/>
</g>
<defs>
<clipPath id="clip0_31575_35140">
<rect width="280" height="68" fill="white"/>
</clipPath>
</defs>
</svg>
