<svg width="198" height="206" viewBox="0 0 198 206" fill="none" xmlns="http://www.w3.org/2000/svg">
<path d="M28.8534 178.321H8.26139V186.532H28.8534V178.321ZM36.5827 198.652V202.953H0.577393V198.652H16.1201V190.748H3.47206V168.355H8.26006V174.105H28.8534V168.355H33.6827V190.748H20.9921V198.652H36.5827Z" fill="#575756"/>
<path d="M69.4765 166.686H74.3485V191.759H69.4765V180.298H63.0645V176.038H69.4765V166.686ZM43.0405 205.06V190.748H47.9152V200.759H75.1405V205.06H43.0405ZM59.6818 188.331H54.8098V172.175H40.4512V167.826H59.6818V188.331Z" fill="#575756"/>
<path d="M108.987 174.852H88.392V178.409H108.987V174.852ZM113.817 193.295V205.941H108.941V197.423H82.6853V193.295H113.817ZM116.715 185.917V190.089H80.708V185.917H96.2533V182.493H83.608V167.167H88.392V170.813H108.987V167.167H113.817V182.493H101.128V185.917H116.715Z" fill="#575756"/>
<path d="M150.641 166.685H155.516V205.852H150.641V166.685ZM121.576 173.404V169.1H144.935V173.404H135.099L145.988 199.003L141.684 200.847L133.343 180.827L125.044 201.155L120.652 199.311L131.587 173.404H121.576Z" fill="#575756"/>
<path d="M189.572 176.493H168.977V181.895H189.572V176.493ZM168.976 172.279H189.572V167.316H194.4V186.155H164.191V167.316H168.976V172.279ZM161.293 191.423H197.299V195.727H181.709V205.827H176.835V195.727H161.293V191.423Z" fill="#575756"/>
<path d="M132.895 63.5299C121.407 55.7232 106.695 58.9072 98.9785 70.6485C92.5265 80.4539 82.7932 81.6725 79.0212 81.6725C66.7359 81.6725 58.3252 73.0312 55.8319 64.0872H55.8292C55.8039 63.9979 55.7852 63.9259 55.7612 63.8365C55.7385 63.7379 55.7065 63.6392 55.6825 63.5325C54.7025 59.8032 54.4612 58.0192 54.4612 54.0539C54.4612 32.6659 76.4052 8.85519 108.008 8.85519C140.372 8.85519 158.889 33.4925 163.659 47.1845C163.576 46.9445 163.5 46.7045 163.417 46.4565C154.236 19.6765 128.839 0.420528 98.9412 0.420528C61.3092 0.420528 30.7932 30.9285 30.7932 68.5659C30.7932 102.207 55.0585 131.006 88.7159 131.006C115.56 131.006 133.6 115.954 141.876 95.2125C146.421 83.8685 143.201 70.5352 132.895 63.5299Z" fill="#003863"/>
<path d="M164.083 48.5117C160.103 35.1557 141.447 8.8557 108.007 8.8557C76.4047 8.8557 54.4607 32.665 54.4607 54.053C54.4607 58.0197 54.7034 59.8037 55.682 63.533C55.2714 61.9024 55.054 60.2664 55.054 58.6717C55.054 36.3997 77.3554 20.965 100.279 20.965C131.314 20.965 156.47 46.1237 156.47 77.1504C156.47 101.478 142.475 122.529 122.133 132.646L122.139 132.662C148.361 123.168 167.081 98.057 167.081 68.5664C167.081 61.5864 166.143 55.433 164.083 48.5117Z" fill="#E4032E"/>
</svg>
