<svg width="107" height="117" viewBox="0 0 107 117" fill="none" xmlns="http://www.w3.org/2000/svg">
<path d="M93.8797 40.1294C93.8797 62.2774 75.9224 80.2334 53.7757 80.2334C31.6251 80.2334 13.6704 62.2774 13.6704 40.1294C13.6704 17.9814 31.6251 0.0254056 53.7757 0.0254056C75.9224 0.0254056 93.8797 17.9814 93.8797 40.1294Z" fill="white"/>
<path d="M72.5991 37.3333C66.2191 32.9986 58.0524 34.7639 53.7578 41.2826C50.1858 46.7293 44.7804 47.4106 42.6978 47.4106C35.8671 47.4106 31.2071 42.6066 29.8231 37.6426H29.8191C29.8004 37.5893 29.7924 37.5453 29.7791 37.5013C29.7658 37.4453 29.7551 37.3919 29.7378 37.3333C29.1911 35.2586 29.0538 34.2746 29.0538 32.0719C29.0538 20.2026 41.2404 6.98393 58.7764 6.98393C76.7418 6.98393 87.0218 20.6599 89.6791 28.2613C89.6271 28.1199 89.5831 27.9919 89.5404 27.8573C84.4444 12.9906 70.3458 2.30392 53.7404 2.30392C32.8618 2.30392 15.9231 19.2333 15.9231 40.1293C15.9231 58.8026 29.3911 74.7826 48.0791 74.7826C62.9751 74.7826 72.9911 66.4346 77.5778 54.9173C80.0991 48.6173 78.3178 41.2186 72.5991 37.3333Z" fill="#003863"/>
<path d="M89.9116 28.9966C87.6943 21.5806 77.3476 6.98327 58.7756 6.98327C41.241 6.98327 29.053 20.2033 29.053 32.0713C29.053 34.2739 29.1916 35.2579 29.737 37.3326C29.5076 36.4259 29.3916 35.5206 29.3916 34.6353C29.3916 22.2726 41.7676 13.7099 54.4916 13.7099C71.7196 13.7099 85.6823 27.6713 85.6823 44.8926C85.6823 58.3913 77.9116 70.0819 66.6276 75.6966V75.7059C81.181 70.4366 91.5703 56.4966 91.5703 40.1286C91.5703 36.2539 91.0516 32.8393 89.9116 28.9966Z" fill="#E4032E"/>
<path d="M15.2501 106.235H12.8794V94.9535H15.2501V99.4309H17.3607V94.9295H19.8247V106.519H17.3607V101.755H15.2501V106.235ZM15.2981 111.543C15.2981 110.879 15.0527 110.304 14.5621 109.814C14.0727 109.324 13.4887 109.078 12.8087 109.078C12.1301 109.078 11.5487 109.324 11.0661 109.814C10.5847 110.304 10.3447 110.879 10.3447 111.543C10.3447 112.207 10.5847 112.78 11.0661 113.262C11.5487 113.743 12.1301 113.984 12.8087 113.984C13.4887 113.984 14.0727 113.743 14.5621 113.262C15.0527 112.78 15.2981 112.207 15.2981 111.543ZM17.8101 111.567C17.8101 112.199 17.6754 112.796 17.4074 113.355C17.1381 113.916 16.7821 114.411 16.3407 114.836C15.8821 115.263 15.3527 115.602 14.7527 115.858C14.1527 116.108 13.5114 116.235 12.8327 116.235C12.1527 116.235 11.5087 116.108 10.9007 115.858C10.2927 115.602 9.75941 115.263 9.30208 114.836C8.85941 114.411 8.50341 113.916 8.23541 113.355C7.96608 112.796 7.83141 112.199 7.83141 111.567C7.83141 110.935 7.96608 110.335 8.23541 109.766C8.50341 109.198 8.85941 108.7 9.30208 108.272C9.75941 107.846 10.2927 107.506 10.9007 107.254C11.5087 107 12.1527 106.874 12.8327 106.874C13.5114 106.874 14.1527 107 14.7527 107.254C15.3527 107.506 15.8821 107.846 16.3407 108.272C16.7821 108.7 17.1381 109.198 17.4074 109.766C17.6754 110.335 17.8101 110.935 17.8101 111.567ZM8.75675 103.2C8.75675 102.584 8.53141 102.05 8.08208 101.599C7.63141 101.151 7.08875 100.926 6.45675 100.926C5.82608 100.926 5.28741 101.151 4.84608 101.599C4.40341 102.05 4.18208 102.584 4.18208 103.2C4.18208 103.818 4.40341 104.346 4.84608 104.788C5.28741 105.231 5.82608 105.451 6.45675 105.451C7.08875 105.451 7.63141 105.231 8.08208 104.788C8.53141 104.346 8.75675 103.818 8.75675 103.2ZM11.1501 103.223C11.1501 103.824 11.0234 104.386 10.7714 104.907C10.5181 105.428 10.1781 105.886 9.75141 106.282C9.32608 106.678 8.83141 106.988 8.27008 107.218C7.70875 107.447 7.10475 107.562 6.45675 107.562C5.80875 107.562 5.20475 107.447 4.64341 107.218C4.08341 106.988 3.58875 106.678 3.16341 106.282C2.73675 105.886 2.39675 105.428 2.14341 104.907C1.89141 104.386 1.76475 103.824 1.76475 103.223C1.76475 102.624 1.89141 102.058 2.14341 101.53C2.39675 101 2.73675 100.539 3.16341 100.143C3.58875 99.7482 4.08341 99.4349 4.64341 99.2069C5.20475 98.9789 5.80875 98.8629 6.45675 98.8629C7.10475 98.8629 7.70875 98.9789 8.27008 99.2069C8.83141 99.4349 9.32608 99.7482 9.75141 100.143C10.1781 100.539 10.5181 101 10.7714 101.53C11.0234 102.058 11.1501 102.624 11.1501 103.223ZM5.08341 96.2322V94.5029H7.80741V96.2322H11.6007V98.3655H0.864746V96.2322H5.08341Z" fill="#575756"/>
<path d="M38.4058 105.878V101.4H34.5658V99.1943H38.4058V94.9303H40.9644V105.878H38.4058ZM36.6991 111.165C36.6991 110.39 36.4138 109.722 35.8458 109.162C35.2764 108.601 34.6044 108.32 33.8311 108.32C33.0564 108.32 32.3898 108.601 31.8284 109.162C31.2671 109.722 30.9871 110.39 30.9871 111.165C30.9871 111.938 31.2671 112.602 31.8284 113.156C32.3898 113.708 33.0564 113.984 33.8311 113.984C34.6044 113.984 35.2764 113.708 35.8458 113.156C36.4138 112.602 36.6991 111.938 36.6991 111.165ZM39.2111 111.188C39.2111 111.884 39.0698 112.536 38.7844 113.142C38.5004 113.75 38.1204 114.285 37.6471 114.742C37.1564 115.201 36.5831 115.564 35.9284 115.832C35.2724 116.101 34.5818 116.236 33.8551 116.236C33.1284 116.236 32.4338 116.101 31.7698 115.832C31.1058 115.564 30.5284 115.201 30.0391 114.742C29.5644 114.285 29.1858 113.75 28.9018 113.142C28.6178 112.536 28.4751 111.884 28.4751 111.188C28.4751 110.493 28.6178 109.838 28.9018 109.221C29.1858 108.604 29.5644 108.068 30.0391 107.609C30.5284 107.15 31.1058 106.788 31.7698 106.518C32.4338 106.25 33.1284 106.116 33.8551 106.116C34.5818 106.116 35.2724 106.25 35.9284 106.518C36.5831 106.788 37.1564 107.15 37.6471 107.609C38.1204 108.068 38.5004 108.604 38.7844 109.221C39.0698 109.838 39.2111 110.493 39.2111 111.188ZM22.8098 97.7249V95.5209H34.6604V97.7249H29.6124L34.8738 104.149L33.0724 105.618L28.8538 100.356L24.6591 105.974L22.7871 104.457L28.0244 97.7249H22.8098Z" fill="#575756"/>
<path d="M61.2287 108.154H58.6687V94.9303H61.2287V99.4316H64.1914V101.968H61.2287V108.154ZM53.242 100.736C53.242 100.277 53.15 99.8423 52.9687 99.4316C52.7874 99.0209 52.546 98.6569 52.246 98.3423C51.93 98.0423 51.57 97.7996 51.1674 97.6196C50.7647 97.4383 50.334 97.3476 49.8754 97.3476C49.418 97.3476 48.9834 97.4383 48.5727 97.6196C48.162 97.7996 47.798 98.0423 47.482 98.3423C47.182 98.6569 46.9407 99.0209 46.7594 99.4316C46.578 99.8423 46.4874 100.277 46.4874 100.736C46.4874 101.193 46.578 101.624 46.7594 102.026C46.9407 102.43 47.182 102.79 47.482 103.106C47.798 103.405 48.162 103.646 48.5727 103.829C48.9834 104.01 49.418 104.101 49.8754 104.101C50.334 104.101 50.7647 104.01 51.1674 103.829C51.57 103.646 51.93 103.405 52.246 103.106C52.546 102.79 52.7874 102.43 52.9687 102.026C53.15 101.624 53.242 101.193 53.242 100.736ZM47.862 108.273V112.894H61.75V115.169H45.302V108.273H47.862ZM55.706 100.712C55.706 101.486 55.5527 102.213 55.2447 102.893C54.9367 103.572 54.514 104.173 53.9767 104.693C53.4394 105.198 52.8194 105.602 52.1154 105.902C51.4127 106.204 50.658 106.352 49.8527 106.352C49.0474 106.352 48.2914 106.204 47.59 105.902C46.886 105.602 46.2647 105.198 45.7287 104.693C45.1914 104.173 44.7687 103.572 44.4607 102.893C44.1527 102.213 43.998 101.486 43.998 100.712C43.998 99.9383 44.1527 99.2116 44.4607 98.5316C44.7687 97.8516 45.1914 97.2516 45.7287 96.7316C46.2647 96.2249 46.886 95.8223 47.59 95.5209C48.2914 95.2223 49.0474 95.0703 49.8527 95.0703C50.658 95.0703 51.4127 95.2223 52.1154 95.5209C52.8194 95.8223 53.4394 96.2249 53.9767 96.7316C54.514 97.2516 54.9367 97.8516 55.2447 98.5316C55.5527 99.2116 55.706 99.9383 55.706 100.712Z" fill="#575756"/>
<path d="M81.6343 108.154V102.062H77.7956V99.7876H81.6343V94.9303H84.1943V108.154H81.6343ZM67.461 115.169V108.273H70.021V112.894H84.385V115.169H67.461ZM66.0396 97.7249V95.5209H77.8903V97.7249H72.865L78.1036 105.452L76.1596 106.756L72.0836 100.546L68.0063 106.921L66.0156 105.594L71.2303 97.7249H66.0396Z" fill="#575756"/>
<path d="M102.633 100.119H91.7787V102.963H102.633V100.119ZM91.7773 97.8907H102.633V95.284H105.168V105.215H89.2427V95.284H91.7773V97.8907ZM87.7253 107.989H106.685V110.264H98.4853V115.571H95.9027V110.264H87.7253V107.989Z" fill="#575756"/>
</svg>
