<svg width="130" height="42" viewBox="0 0 130 42" fill="none" xmlns="http://www.w3.org/2000/svg">
    <path d="M64.734 15.398h-2.97l-4.216 5.142h-.155v-5.142h-2.476v11.664h2.476v-3.315l1.22-1.482 3.207 4.797h2.965l-4.4-6.442 4.35-5.222zM73.446 15.942c-.826-.47-1.76-.704-2.798-.704s-1.975.234-2.804.704c-.827.469-1.483 1.15-1.963 2.04-.48.891-.722 1.975-.722 3.247 0 1.27.241 2.343.722 3.237.48.894 1.133 1.577 1.963 2.046.826.473 1.763.707 2.804.707 1.04 0 1.969-.234 2.798-.704.826-.469 1.483-1.149 1.966-2.04.483-.891.725-1.975.725-3.246 0-1.272-.242-2.356-.725-3.247-.484-.89-1.137-1.574-1.966-2.04zm-.635 8.12c-.544.654-1.262.98-2.163.98-.901 0-1.62-.326-2.163-.98-.543-.653-.811-1.598-.811-2.83 0-1.233.271-2.183.81-2.834.54-.65 1.263-.977 2.164-.977.9 0 1.62.327 2.163.977.542.65.81 1.595.81 2.834 0 1.238-.27 2.177-.81 2.83zM80.441 15.398h-2.476v11.664h7.5v-2.034H80.44v-9.63zM89.58 15.398h-2.475v11.664h7.5v-2.034H89.58v-9.63zM99.948 15.398l-4.045 11.664h2.655l.87-2.661h4.228l.871 2.661h2.655l-4.039-11.664H99.948zm.107 7.081 1.441-4.413h.092l1.441 4.413h-2.974zM116.307 21.383a2.667 2.667 0 0 0-1.256-.377v-.113c.612-.136 1.116-.416 1.516-.84.399-.425.599-.977.599-1.666 0-.874-.325-1.59-.975-2.15-.651-.562-1.623-.841-2.915-.841h-4.689v11.663h5.005c.877 0 1.614-.14 2.214-.419.6-.279 1.053-.662 1.357-1.146.308-.487.46-1.04.46-1.657 0-.576-.123-1.072-.367-1.488a2.702 2.702 0 0 0-.952-.969l.003.003zm-5.244-3.992h1.882c.549 0 .973.128 1.274.387.298.258.45.597.45 1.018 0 .46-.167.82-.504 1.084-.337.265-.758.396-1.265.396h-1.837v-2.887.002zm3.532 7.257c-.313.267-.821.398-1.513.398h-2.019v-3.098h2.076c.594 0 1.065.154 1.411.46.346.306.519.704.519 1.185 0 .437-.158.787-.471 1.055h-.003zM129.275 17.982c-.483-.89-1.137-1.574-1.966-2.04-.826-.47-1.76-.704-2.798-.704s-1.975.234-2.804.704c-.827.469-1.483 1.15-1.963 2.04-.48.891-.722 1.975-.722 3.247 0 1.27.242 2.343.722 3.237.48.894 1.133 1.577 1.963 2.046.826.473 1.763.707 2.804.707s1.969-.234 2.798-.704c.827-.469 1.483-1.149 1.966-2.04.483-.891.725-1.975.725-3.246 0-1.272-.242-2.356-.725-3.247zm-2.601 6.077c-.543.654-1.262.98-2.163.98-.901 0-1.62-.326-2.163-.98-.543-.653-.811-1.598-.811-2.83 0-1.233.271-2.183.811-2.834.54-.65 1.262-.977 2.163-.977.901 0 1.62.327 2.163.977.543.65.811 1.595.811 2.834 0 1.238-.271 2.177-.811 2.83zM10.474.512H.862A.86.86 0 0 0 0 1.37v39.272a.86.86 0 0 0 .862.858h9.612a.86.86 0 0 0 .862-.858V1.37a.86.86 0 0 0-.862-.858zM39.826 24.125h-6.999c-.095 0-.188.017-.28.044-.173.05-.478.083-.478-.341v-3.84a.896.896 0 0 0-.895-.91h-4.662c-.376 0-.731-.22-.856-.573-.087-.243-.09-.552.152-.912.564-.84 10.676-13.57 11.828-15.014a.922.922 0 0 0 .164-.318c.131-.487.397-1.761-.608-1.761-1.245 0-8.255.012-8.255.012s-.895-.297-2.685 2.079a9861.481 9861.481 0 0 1-12.081 15.89s-.896.948 0 2.106l14.635 19.971c.056.182.28.57 1.175.794 1.074.267 7.225.053 8.442.008a.881.881 0 0 0 .499-.169c.262-.193.605-.588.605-1.325 0-1.057-4.722-6.347-5.763-7.5a.888.888 0 0 1-.203-.863c.072-.214.239-.428.597-.547.895-.297 5.37-2.08 6.563-5.346 0 0 .895-1.485-.895-1.485z" fill="#607EFE"/>
    <path d="M41.317 11.798a2.53 2.53 0 0 0 2.535-2.524 2.53 2.53 0 0 0-2.535-2.525 2.53 2.53 0 0 0-2.536 2.525 2.53 2.53 0 0 0 2.536 2.524z" fill="#607EFE"/>
</svg>
