<svg xmlns="http://www.w3.org/2000/svg" width="130" height="32" viewBox="0 0 130 32"><defs><style>.cls-1{fill:#0a67b1}.cls-2{clip-path:url(#clip-path)}.cls-3{fill:#4cb69d}.cls-4{fill:#444247}</style><clipPath id="clip-path"><path id="eformsign_white" d="M0 0h130v32H0z" class="cls-1" transform="translate(24 15)"/></clipPath></defs><g id="logo" class="cls-2" transform="translate(-24 -15)"><g id="eformsign" transform="translate(24 15.235)"><path id="Path_1497" d="M17.545 23.879a1.132 1.132 0 0 0-1.366-.836L7.72 25.235 4.2 10.91l9.539-2.463-.556-2.237-9.539 2.463-2.2.565 4.205 17.127a1.668 1.668 0 0 0 2.027 1.243l.573-.158 8.46-2.192a1.117 1.117 0 0 0 .836-1.379z" class="cls-3" data-name="Path 1497" transform="translate(-1.441 .004)"/><path id="Path_1498" d="M27.559 1.317a18.984 18.984 0 0 1-.969 4.045 13.948 13.948 0 0 1-4.406 6.327 14.45 14.45 0 0 1-5.484 2.688 36.466 36.466 0 0 0-3.679 1.152c-1.806.655-3.106 2.6-4.076 5.332-.242.655-.441 1.356-.7 2.011 0-.226 0-.474.022-.7.286-4.045 1.5-6.824 3.591-8.451a25.118 25.118 0 0 1 4.34-2.418 33.729 33.729 0 0 0 6.94-4.338 17.642 17.642 0 0 0 4.252-5.332.934.934 0 0 1 .169-.316z" class="cls-3" data-name="Path 1498" transform="translate(.177 -1.317)"/><path id="Path_1499" d="M26.582 8.887c-.463.836-.9 1.74-1.41 2.485a11.488 11.488 0 0 1-5.684 4.813 8.341 8.341 0 0 1-3.525.587 4.446 4.446 0 0 1-3.128-1.672c-.066-.09-.154-.158-.22-.249a.607.607 0 0 1-.088-.181 25.455 25.455 0 0 0 13.967-5.987c.044.091.066.158.088.204z" class="cls-3" data-name="Path 1499" transform="translate(1.198 .671)"/><g id="Group_6753" data-name="Group 6753" transform="translate(27.097 7.976)"><path id="Path_1500" d="M28.5 24.628a5.788 5.788 0 0 1-2.115-.384 4.893 4.893 0 0 1-1.63-1.107 4.668 4.668 0 0 1-1.055-1.763 6.645 6.645 0 0 1-.375-2.35 8.485 8.485 0 0 1 .463-2.8 7.418 7.418 0 0 1 1.3-2.327 6.459 6.459 0 0 1 2.049-1.582 6.114 6.114 0 0 1 2.688-.587 4.937 4.937 0 0 1 1.784.316 3.9 3.9 0 0 1 1.322.813 3.835 3.835 0 0 1 .837 1.152 3.361 3.361 0 0 1 .286 1.378 3.544 3.544 0 0 1-.617 2.169 4.355 4.355 0 0 1-1.537 1.31 6.692 6.692 0 0 1-2.027.655 14.3 14.3 0 0 1-2.115.181 10.989 10.989 0 0 1-1.234-.068c-.419-.045-.771-.09-1.079-.136a3.773 3.773 0 0 0 1.079 2.4 3.233 3.233 0 0 0 2.335.836 6.551 6.551 0 0 0 2.071-.316 13.559 13.559 0 0 0 1.52-.61l.176 1.9a10.92 10.92 0 0 1-1.74.633 9.547 9.547 0 0 1-2.386.287zm1.168-11.117a3.82 3.82 0 0 0-1.52.316 4.389 4.389 0 0 0-1.256.881 5.33 5.33 0 0 0-.9 1.356 6.755 6.755 0 0 0-.507 1.717 5.7 5.7 0 0 0 1.057.158c.352.023.749.045 1.212.045a6.81 6.81 0 0 0 3.084-.565 1.964 1.964 0 0 0 1.125-1.919 1.865 1.865 0 0 0-.639-1.423 2.41 2.41 0 0 0-1.652-.566z" class="cls-4" data-name="Path 1500" transform="translate(-23.327 -6.484)"/><path id="Path_1501" d="M38.542 13.563h3.569l-.33 1.853h-3.57l-2.026 11.749a7.54 7.54 0 0 1-.529 1.762 3.951 3.951 0 0 1-.837 1.175 3.257 3.257 0 0 1-1.1.655 4.3 4.3 0 0 1-1.344.2 4.734 4.734 0 0 1-1.41-.2 3.827 3.827 0 0 1-1.124-.587l.837-1.762a2.147 2.147 0 0 0 .749.52 2.254 2.254 0 0 0 .969.181 1.515 1.515 0 0 0 1.079-.452 2.729 2.729 0 0 0 .639-1.446l2.026-11.795h-1.85l.33-1.853h1.851l.352-1.9a5.2 5.2 0 0 1 1.5-3.118 4.252 4.252 0 0 1 2.84-.945 6.278 6.278 0 0 1 1.762.249 6.177 6.177 0 0 1 1.454.61l-.815 1.808a16.582 16.582 0 0 0-1.1-.52 3.376 3.376 0 0 0-1.323-.247 2.17 2.17 0 0 0-1.454.52 2.609 2.609 0 0 0-.793 1.582z" class="cls-4" data-name="Path 1501" transform="translate(-21.777 -7.598)"/><path id="Path_1502" d="M44.737 24.628a6.428 6.428 0 0 1-2.335-.407 4.741 4.741 0 0 1-1.74-1.152 4.835 4.835 0 0 1-1.1-1.762 6.193 6.193 0 0 1-.4-2.237 8.83 8.83 0 0 1 .463-2.892 6.834 6.834 0 0 1 1.322-2.327 6.236 6.236 0 0 1 4.825-2.124 6.225 6.225 0 0 1 2.313.407 4.868 4.868 0 0 1 2.864 2.915 6.193 6.193 0 0 1 .4 2.237 8.83 8.83 0 0 1-.463 2.892 6.834 6.834 0 0 1-1.324 2.322 6.335 6.335 0 0 1-2.093 1.559 6.647 6.647 0 0 1-2.732.569zm.066-1.9a4 4 0 0 0 1.851-.407 3.958 3.958 0 0 0 1.388-1.107 4.824 4.824 0 0 0 .881-1.672 6.8 6.8 0 0 0 .308-2.056 4.836 4.836 0 0 0-.242-1.514 3.619 3.619 0 0 0-.7-1.243 3.366 3.366 0 0 0-1.1-.813 3.455 3.455 0 0 0-1.476-.294 4.133 4.133 0 0 0-1.851.407 4.246 4.246 0 0 0-1.41 1.107 4.824 4.824 0 0 0-.881 1.672 6.915 6.915 0 0 0-.308 2.056 4.274 4.274 0 0 0 .237 1.516 3.571 3.571 0 0 0 .683 1.243 3.076 3.076 0 0 0 1.1.813 4.239 4.239 0 0 0 1.517.294z" class="cls-4" data-name="Path 1502" transform="translate(-19.557 -6.484)"/><path id="Path_1503" d="M51.68 15.464c.022-.068.022-.181.044-.271 0-.113.022-.2.022-.316a1.144 1.144 0 0 0-.375-.949 1.6 1.6 0 0 0-.969-.271l.727-1.672a2.735 2.735 0 0 1 1.895.587 2.31 2.31 0 0 1 .639 1.808v.474a5.183 5.183 0 0 1 1.718-2.44 4.193 4.193 0 0 1 2.4-.723 3.787 3.787 0 0 1 .925.09 2.147 2.147 0 0 1 .639.2l-.925 2.079a2.39 2.39 0 0 0-.573-.158 6.188 6.188 0 0 0-.7-.045 2.869 2.869 0 0 0-1.256.316A3.306 3.306 0 0 0 54.7 15.26a8.177 8.177 0 0 0-1.013 1.988 16.172 16.172 0 0 0-.771 3.073l-.661 4.022H50.16z" class="cls-4" data-name="Path 1503" transform="translate(-16.939 -6.494)"/><path id="Path_1504" d="M72.052 13.584a2.831 2.831 0 0 0-1.256.339 4.38 4.38 0 0 0-1.278 1.017 6.6 6.6 0 0 0-1.1 1.762 10.638 10.638 0 0 0-.749 2.531l-.881 5.106h-2.094l1.322-7.389a6.883 6.883 0 0 0 .132-.836 4.1 4.1 0 0 0 .022-.52 2.026 2.026 0 0 0-.529-1.469 1.785 1.785 0 0 0-1.344-.542 2.916 2.916 0 0 0-1.278.339 4.571 4.571 0 0 0-1.3 1.062 7.343 7.343 0 0 0-1.119 1.808 11.121 11.121 0 0 0-.749 2.621l-.837 4.926h-2.075L59.054 12h2l-.507 2.847a5.911 5.911 0 0 1 1.873-2.282 4.2 4.2 0 0 1 2.467-.859 3.424 3.424 0 0 1 1.3.249 3.075 3.075 0 0 1 1.7 1.649 3.981 3.981 0 0 1 .33 1.243 6.422 6.422 0 0 1 1.939-2.3 4.212 4.212 0 0 1 2.489-.813 3.465 3.465 0 0 1 1.39.266 2.967 2.967 0 0 1 1.057.723 3.452 3.452 0 0 1 .683 1.085 3.764 3.764 0 0 1 .242 1.333 10.325 10.325 0 0 1-.132 1.491l-1.344 7.75h-2.092L73.771 17a6.878 6.878 0 0 0 .132-.836 4.1 4.1 0 0 0 .022-.52 2.026 2.026 0 0 0-.529-1.469 1.642 1.642 0 0 0-1.344-.591z" class="cls-4" data-name="Path 1504" transform="translate(-15.325 -6.489)"/><path id="Path_1505" d="M83.384 14.673a8.706 8.706 0 0 0-1.5-.836 4.481 4.481 0 0 0-1.873-.362 3.162 3.162 0 0 0-1.7.384 1.139 1.139 0 0 0-.595.994 1.37 1.37 0 0 0 .11.52 1.732 1.732 0 0 0 .375.5 6.334 6.334 0 0 0 .727.542c.308.181.7.407 1.19.655a8.68 8.68 0 0 1 2.357 1.672 3.042 3.042 0 0 1 .749 2.124 3.559 3.559 0 0 1-.375 1.649 3.032 3.032 0 0 1-1.035 1.152 4.637 4.637 0 0 1-1.542.7 7.259 7.259 0 0 1-1.895.249 7.628 7.628 0 0 1-2.489-.362 6.437 6.437 0 0 1-1.873-.972l1.19-1.762a6.309 6.309 0 0 0 1.476.881 4.657 4.657 0 0 0 1.895.362 3.311 3.311 0 0 0 1.851-.452 1.317 1.317 0 0 0 .661-1.107 1.736 1.736 0 0 0-.11-.587 1.93 1.93 0 0 0-.375-.565 4.706 4.706 0 0 0-.749-.587 12.913 12.913 0 0 0-1.19-.678 10.205 10.205 0 0 1-1.454-.859 4.231 4.231 0 0 1-.9-.859 3.074 3.074 0 0 1-.485-.972 4.532 4.532 0 0 1-.132-1.13 2.688 2.688 0 0 1 .33-1.311 3.089 3.089 0 0 1 .9-1.039 4.452 4.452 0 0 1 1.388-.678 6.32 6.32 0 0 1 1.789-.249 7.587 7.587 0 0 1 2.335.339 8.464 8.464 0 0 1 1.806.813z" class="cls-3" data-name="Path 1505" transform="translate(-11.257 -6.494)"/><path id="Path_1506" d="M84.655 25.357h-2.093l2.115-12.337h2.093zM86.2 10.9a1.261 1.261 0 0 1-.991-.384 1.384 1.384 0 0 1-.33-.9 1.675 1.675 0 0 1 .463-1.22 1.555 1.555 0 0 1 1.168-.452 1.294 1.294 0 0 1 .991.384 1.384 1.384 0 0 1 .33.9 1.675 1.675 0 0 1-.463 1.22 1.646 1.646 0 0 1-1.168.452z" class="cls-3" data-name="Path 1506" transform="translate(-9.224 -7.507)"/><path id="Path_1507" d="M94.476 11.708A8.6 8.6 0 0 1 96.9 12a13.8 13.8 0 0 1 1.7.565l-2 11.93a7.827 7.827 0 0 1-.859 2.666 5.862 5.862 0 0 1-1.322 1.649 4.232 4.232 0 0 1-1.564.836 5.944 5.944 0 0 1-1.652.226 5.142 5.142 0 0 1-2.666-.655 6.091 6.091 0 0 1-1.784-1.559l1.63-1.243a3.474 3.474 0 0 0 3 1.582 2.75 2.75 0 0 0 2.027-.881 5.465 5.465 0 0 0 1.256-2.983l.4-2.327a6.671 6.671 0 0 1-1.63 1.808 3.4 3.4 0 0 1-2.159.746 4.548 4.548 0 0 1-1.63-.316 3.913 3.913 0 0 1-1.41-.949 4.359 4.359 0 0 1-.991-1.536 5.694 5.694 0 0 1-.375-2.124 8.545 8.545 0 0 1 .573-3.141 7.4 7.4 0 0 1 1.608-2.44 7.22 7.22 0 0 1 2.423-1.582 7.661 7.661 0 0 1 3.001-.564zm-5.508 7.479a4 4 0 0 0 .242 1.423 2.934 2.934 0 0 0 .639 1.017 2.679 2.679 0 0 0 .9.61 2.73 2.73 0 0 0 1.035.2 2.314 2.314 0 0 0 1.256-.362 3.769 3.769 0 0 0 1.124-1.039 7.962 7.962 0 0 0 .925-1.627 9.769 9.769 0 0 0 .595-2.147l.595-3.434a5.569 5.569 0 0 0-.925-.226 8.111 8.111 0 0 0-1.124-.09 5.17 5.17 0 0 0-2.137.429 5.322 5.322 0 0 0-1.674 1.2 5.559 5.559 0 0 0-1.079 1.785 6.833 6.833 0 0 0-.371 2.261z" class="cls-3" data-name="Path 1507" transform="translate(-8.228 -6.489)"/><path id="Path_1508" d="M104.66 13.584a3 3 0 0 0-1.3.339 4.781 4.781 0 0 0-1.366 1.062 7.441 7.441 0 0 0-1.19 1.808 10.124 10.124 0 0 0-.793 2.621l-.837 4.926h-2.092L99.2 12h2l-.507 2.847a6.214 6.214 0 0 1 1.917-2.282 4.366 4.366 0 0 1 2.578-.859 3.606 3.606 0 0 1 1.432.271 3.147 3.147 0 0 1 1.1.723 3.514 3.514 0 0 1 .7 1.085 3.764 3.764 0 0 1 .242 1.333 10.325 10.325 0 0 1-.132 1.491l-1.322 7.75h-2.093l1.278-7.389a6.881 6.881 0 0 0 .132-.836 4.1 4.1 0 0 0 .022-.52 2.026 2.026 0 0 0-.529-1.469 1.709 1.709 0 0 0-1.358-.561z" class="cls-3" data-name="Path 1508" transform="translate(-5.767 -6.489)"/></g></g></g></svg>