<svg xmlns="http://www.w3.org/2000/svg" width="113.718" height="27.952" viewBox="0 0 113.718 27.952"><defs><style>.cls-1{fill:#fe6413;}</style></defs><g id="Layer_2" data-name="Layer 2"><g id="Layer_1-2" data-name="Layer 1"><path class="cls-1" d="M0,7.848C.086,7.8.077,7.7.109,7.619a1.582,1.582,0,0,1,3.053.509c.009.184,0,.369,0,.561.124-.009.141-.111.188-.173A4.551,4.551,0,0,1,6.864,6.677a5.989,5.989,0,0,1,1.863.137,4.31,4.31,0,0,1,2.647,1.943c.073.115.117.229.25.033a4.887,4.887,0,0,1,4.41-2.129,5.227,5.227,0,0,1,5.392,4.748,9.817,9.817,0,0,1,.1,1.37c0,2.87,0,5.739.006,8.608,0,.243-.062.314-.308.31q-1.29-.023-2.581,0c-.238,0-.288-.071-.287-.295q.011-4.245,0-8.491a4.3,4.3,0,0,0-.3-1.716,2.653,2.653,0,0,0-2.842-1.566,3.01,3.01,0,0,0-2.831,2.947,10.272,10.272,0,0,0-.058,1.109c0,2.567,0,5.134.006,7.7,0,.234-.043.318-.3.313-.85-.018-1.7-.021-2.551,0-.286.007-.328-.1-.328-.347.009-2.82,0-5.64.007-8.461a4.511,4.511,0,0,0-.265-1.665,2.537,2.537,0,0,0-2.772-1.6,3.122,3.122,0,0,0-2.9,2.949,8.125,8.125,0,0,0-.06,1.022c0,2.6,0,5.192.006,7.788,0,.236-.048.316-.3.31C1.915,21.675.957,21.677,0,21.67Z"/><path class="cls-1" d="M110.608,9.119c0-.314,0-.611,0-.909a1.554,1.554,0,1,1,3.107.02q0,6.439,0,12.881a6.237,6.237,0,0,1-1.729,4.613,7.194,7.194,0,0,1-3.772,2,10.039,10.039,0,0,1-5.9-.5,6.028,6.028,0,0,1-2.93-2.594c-.121-.2-.084-.284.11-.394.765-.431,1.523-.875,2.278-1.323.146-.087.221-.095.315.071A4.048,4.048,0,0,0,105.311,25,6.438,6.438,0,0,0,107.7,24.9a3.61,3.61,0,0,0,2.9-3.54c.024-.672,0-1.346,0-2.024-.1-.007-.121.087-.162.14a5.851,5.851,0,0,1-4.633,2.31,7.358,7.358,0,0,1-7.565-6.218,7.55,7.55,0,0,1,4.637-8.438,7.239,7.239,0,0,1,4.6-.2,5.523,5.523,0,0,1,2.923,2C110.458,8.987,110.488,9.073,110.608,9.119Zm-9.3,5.084a4.475,4.475,0,0,0,4.634,4.609,4.6,4.6,0,1,0,.032-9.2A4.51,4.51,0,0,0,101.313,14.2Z"/><path class="cls-1" d="M60.148,19.638V20c0,2.411-.005,4.822.007,7.233,0,.278-.081.336-.341.331-.851-.016-1.7-.011-2.553,0-.207,0-.285-.039-.285-.271q.01-9.5.007-19A1.583,1.583,0,0,1,58.227,6.66a1.565,1.565,0,0,1,1.749.815,1.522,1.522,0,0,1,.174.731c0,.279,0,.559,0,.83.074.024.093-.018.114-.045a6.027,6.027,0,0,1,5.094-2.336A7.43,7.43,0,0,1,72.405,12.7a7.95,7.95,0,0,1-1.5,6.6,7.1,7.1,0,0,1-8.37,2.251A5.436,5.436,0,0,1,60.37,19.9C60.315,19.831,60.257,19.765,60.148,19.638Zm4.607-.591A4.5,4.5,0,0,0,69.4,14.383a4.626,4.626,0,1,0-9.252-.041A4.5,4.5,0,0,0,64.755,19.047Z"/><path class="cls-1" d="M36.5,9.087c0-.33,0-.6,0-.868a1.582,1.582,0,1,1,3.164,0q.008,6.617.007,13.234c0,.192-.053.246-.245.244q-1.35-.014-2.7,0c-.178,0-.235-.047-.231-.23.011-.594,0-1.189,0-1.783-.091-.022-.1.053-.134.093a5.9,5.9,0,0,1-4.612,2.3,7.37,7.37,0,0,1-7.587-6.525,7.957,7.957,0,0,1,1.366-5.835,6.883,6.883,0,0,1,4.554-2.941,6.319,6.319,0,0,1,5.9,1.725C36.151,8.667,36.3,8.852,36.5,9.087Zm-9.242,5.27a5.527,5.527,0,0,0,.117,1.162,4.645,4.645,0,0,0,9.039-2.141,4.587,4.587,0,0,0-5.736-3.562A4.528,4.528,0,0,0,27.257,14.357Z"/><path class="cls-1" d="M92.116,19.87c-.231.274-.412.516-.62.732a4.707,4.707,0,0,1-2.749,1.381,6.307,6.307,0,0,1-3.647-.4,5.287,5.287,0,0,1-3.07-4.4,7.856,7.856,0,0,1-.07-1.167q0-3.865,0-7.73a1.573,1.573,0,0,1,1.523-1.667A1.59,1.59,0,0,1,85.123,8.3q.006,3.6,0,7.2a5.38,5.38,0,0,0,.119,1.308,2.851,2.851,0,0,0,2.642,2.278,4.423,4.423,0,0,0,1.911-.191A3.353,3.353,0,0,0,92,16.133a6.755,6.755,0,0,0,.116-1.31c0-2.215,0-4.43,0-6.646a1.576,1.576,0,0,1,2.429-1.3,1.6,1.6,0,0,1,.735,1.445q0,5.388,0,10.775c0,.771-.009,1.542.006,2.313,0,.234-.066.295-.3.291q-1.3-.018-2.61,0c-.228,0-.278-.07-.272-.281C92.126,20.919,92.116,20.422,92.116,19.87Z"/><path class="cls-1" d="M78.6,12.708c0,2.879,0,5.758.006,8.637,0,.27-.048.368-.345.36-.85-.022-1.7-.014-2.552,0-.21,0-.285-.042-.285-.271q.011-8.637.007-17.273a1.584,1.584,0,0,1,3.113-.492,2.592,2.592,0,0,1,.056.669Z"/><path class="cls-1" d="M50.169,12.7q0-4.3,0-8.606A1.517,1.517,0,0,1,51,2.682a1.508,1.508,0,0,1,1.613.061,1.54,1.54,0,0,1,.722,1.241c.008.1,0,.2,0,.293q0,8.533.006,17.066c0,.275-.054.364-.346.356-.821-.022-1.642-.02-2.463,0-.282.006-.374-.048-.373-.358C50.175,18.461,50.169,15.583,50.169,12.7Z"/><path class="cls-1" d="M43.353,14.442c0-2.283,0-4.567,0-6.851a1.566,1.566,0,0,1,1.661-1.616,1.6,1.6,0,0,1,1.5,1.669c0,1.513,0,3.026,0,4.539,0,3.064,0,6.129.006,9.194,0,.265-.075.325-.328.32-.831-.016-1.662-.018-2.493,0-.273.006-.361-.052-.359-.345C43.359,19.05,43.353,16.746,43.353,14.442Z"/><path class="cls-1" d="M42.927,2.006a2.006,2.006,0,1,1,2.009,2.015A2,2,0,0,1,42.927,2.006Z"/></g></g></svg>