<?xml version="1.0" encoding="UTF-8"?><svg id="Layer_2" xmlns="http://www.w3.org/2000/svg" viewBox="0 0 150.4 42"><defs><style>.cls-1{fill:#659fd6;}.cls-2{fill:#2c5ca8;}.cls-3{fill:#3b71b7;}.cls-4{fill:#4b7bbe;}.cls-5{fill:#4f87c6;}.cls-6{isolation:isolate;}</style></defs><g id="Layer_1-2"><g><g class="cls-6"><path class="cls-4" d="M51,4.7h5.3c3.6,0,6.4,1.3,6.4,5.1s-2.8,5.4-6.3,5.4h-2.2v5.8h-3.3V4.7Zm5.2,7.9c2.2,0,3.3-.9,3.3-2.8s-1.2-2.5-3.4-2.5h-1.8v5.3h2Z"/><path class="cls-4" d="M72.1,16.8h-5.3l-1.1,4.2h-3.3l5.2-16.3h3.8l5.2,16.3h-3.4l-1.1-4.2Zm-.7-2.5l-.5-1.8c-.5-1.7-.9-3.6-1.4-5.3h0c-.4,1.8-.9,3.6-1.4,5.3l-.5,1.8h3.9Z"/><path class="cls-4" d="M78.5,4.7h3.6l2.8,7.6c.4,1,.7,2.1,1,3.1h.1c.4-1.1,.6-2.1,1-3.1l2.7-7.6h3.6V21h-3v-6.8c0-1.5,.2-3.8,.4-5.3h0l-1.3,3.8-2.5,6.8h-1.9l-2.5-6.8-1.3-3.8h0c.2,1.5,.4,3.8,.4,5.3v6.8h-2.9V4.7Z"/><path class="cls-4" d="M95.9,19.6l1.5-2c1.1,.9,2.2,1.3,3.3,1.3s1.8-.5,1.8-1.3-1.3-1.3-2.6-1.8c-1.6-.6-3.4-1.5-3.4-3.6s1.8-3.8,4.6-3.8,3.2,.7,4.2,1.5l-1.5,2c-.9-.6-1.7-1.1-2.7-1.1s-1.6,.5-1.6,1.2,1.2,1.2,2.5,1.7c1.6,.6,3.4,1.4,3.4,3.7s-1.7,3.9-4.9,3.9-3.5-.7-4.7-1.7Z"/><path class="cls-4" d="M107,8.2c0-2.9,2.2-5,4.9-5s4.9,2.1,4.9,5-2.2,5-4.9,5-4.9-2.1-4.9-5Zm8.5,0c0-2.3-1.5-3.9-3.6-3.9s-3.6,1.5-3.6,3.9,1.5,3.9,3.6,3.9,3.6-1.5,3.6-3.9Zm-5.6-2.5h2.2c1.1,0,2,.5,2,1.6s-.3,1.1-.9,1.4l1.1,2h-1.4l-.8-1.6h-.8v1.6h-1.3V5.7Zm1.9,2.4c.6,0,.9-.3,.9-.7s-.2-.7-.8-.7h-.6v1.4h.5Z"/></g><g class="cls-6"><path class="cls-4" d="M59.4,33v1h-9.8v-1h3.8v-2h1.2v2h4.7Zm-1.1,3.8c0,1.3-1.5,2-3.8,2s-3.8-.8-3.8-2,1.5-2,3.8-2,3.8,.8,3.8,2Zm-1.6-4.6c.3-1.1,.3-1.8,.3-2.7h-6.2v-1h7.4v.9c0,.9,0,1.8-.3,2.9h-1.2Zm.3,4.5c0-.7-1-1.1-2.6-1.1s-2.6,.4-2.6,1.1,1,1.1,2.6,1.1,2.6-.4,2.6-1.1Z"/><path class="cls-4" d="M70.4,33v1h-9.8v-1h3.8v-2h1.2v2h4.7Zm-1.1,3.8c0,1.3-1.5,2-3.8,2s-3.8-.8-3.8-2,1.5-2,3.8-2,3.8,.8,3.8,2Zm-1.6-4.6c.3-1.1,.3-1.8,.3-2.7h-6.2v-1h7.4v.9c0,.9,0,1.8-.3,2.9h-1.2Zm.3,4.5c0-.7-1-1.1-2.6-1.1s-2.6,.4-2.6,1.1,1,1.1,2.6,1.1,2.6-.4,2.6-1.1Z"/><path class="cls-4" d="M75.7,31.2c0,1.8,1.1,3.7,2.8,4.4l-.7,1c-1.3-.6-2.2-1.7-2.7-3.1-.5,1.5-1.5,2.8-2.7,3.4l-.7-1c1.7-.8,2.8-2.8,2.8-4.7v-1h-2.4v-1h6.1v1h-2.4v1Zm4.9-3.1v10.8h-1.2v-10.8h1.2Z"/><path class="cls-4" d="M85.7,34c-1,0-2,0-2.9,0l-.2-1c2,0,4.7,0,6.9-.3v.9c-.8,.2-1.8,.3-2.7,.3v2.1h-1.2v-2Zm-2.2-3.5c0-1.2,1.1-1.9,2.7-1.9s2.7,.8,2.7,1.9-1.1,1.9-2.7,1.9-2.7-.8-2.7-1.9Zm8.5,7.3v1h-7.8v-3.2h1.2v2.2h6.6Zm-7.3-7.3c0,.6,.6,1,1.5,1s1.5-.4,1.5-1-.6-1-1.5-1-1.5,.4-1.5,1Zm5.8,4v-6.4h1.2v8.2h-1.2v-1h-2.1v-.9h2.1Z"/><path class="cls-4" d="M96.8,29.3h4.2v6.8h-4.2v-6.8Zm1.2,5.8h1.9v-4.9h-1.9v4.9Zm7.7-7v10.8h-1.2v-5.6h-1.2v5.1h-1.2v-10.1h1.2v4h1.2v-4.2h1.2Z"/><path class="cls-4" d="M113.6,34.2c-1.3-.3-2.2-1.1-2.7-2.1-.5,1.1-1.4,2-2.7,2.4l-.6-.9c1.7-.5,2.7-1.8,2.7-3.2h0s-2.4,0-2.4,0v-1h2.4v-1.2h1.2v1.2h2.3v1h-2.3c0,1.3,1,2.5,2.7,3l-.6,1Zm2.8,2.7c0,1.3-1.4,2-3.7,2s-3.7-.7-3.7-2,1.4-2,3.7-2,3.7,.7,3.7,2Zm-1.2,0c0-.7-.9-1.1-2.4-1.1s-2.4,.4-2.4,1.1,.9,1.1,2.4,1.1,2.4-.4,2.4-1.1Zm1.2-2.2h-1.2v-6.6h1.2v6.6Z"/><path class="cls-4" d="M122.5,30.8c0,2,1,4,2.7,4.8l-.7,1c-1.2-.6-2.1-1.8-2.6-3.2-.5,1.5-1.4,2.8-2.6,3.4l-.8-1c1.7-.8,2.7-2.9,2.7-4.9v-1.8h1.2v1.8Zm5.1-2.7v10.9h-1.2v-6.3h-2.3v-1h2.3v-3.6h1.2Z"/><path class="cls-4" d="M131.4,29v2.8h2.7v-2.8h1.2v7.4h-5.2v-7.4h1.2Zm0,6.4h2.7v-2.7h-2.7v2.7Zm7.1-7.3v10.9h-1.2v-10.9h1.2Z"/><path class="cls-4" d="M150.4,36.5v1h-9.8v-1h9.8Zm-1-2.1c-1.8-.4-3.3-1.5-4-3-.7,1.5-2.2,2.6-4,3l-.5-1c2.1-.4,3.9-2.1,3.9-3.8v-.8h1.3v.8c0,1.7,1.7,3.4,3.9,3.8l-.5,1Z"/></g><g><path id="_패스_1501" class="cls-3" d="M23.2,8.9c-.3-.5-.9-.7-1.3-.4,0,0,0,0,0,0l-12,6.9h-.2c0,0,0,.2,0,.2,0,0,0,0,0,0h0c0,.1,0,.1,0,.2s0,0,0,.1c0,0,0,0,0,0v.3h0v13.9c.1,.6,.6,.9,1.2,.8,.4,0,.7-.4,.8-.8v-13.3l11.5-6.6c.5-.3,.7-.9,.4-1.3,0,0,0,0,0,0h0Z"/><path id="_패스_1502" class="cls-5" d="M26.6,10.8c-.3-.5-.9-.6-1.3-.4,0,0,0,0,0,0l-12,6.9h0s0,0,0,0h-.2c0,0,0,.2,0,.2v.2c-.1,0-.1,0-.1,.1,0,0,0,0,0,0h0c0,.2,0,.2,0,.2h0v13.9c-.1,.6,.3,1.1,.8,1.2,.6,.1,1.1-.3,1.2-.8,0-.1,0-.3,0-.4v-13.3l11.5-6.7c.5-.3,.6-.9,.4-1.3,0,0,0,0,0,0h0Z"/><path id="_패스_1503" class="cls-2" d="M19.6,7c-.3-.5-.9-.7-1.3-.4,0,0,0,0,0,0L6.3,13.5h-.1s0,0,0,0c0,0,0,0,0,0,0,0,0,0,0,0h0c0,0,0,.2,0,.2h0c0,.1,0,.1,0,.2t0,0v.2h0v13.9c.1,.6,.6,.9,1.2,.8,.4,0,.7-.4,.8-.8V15l11.5-6.6c.5-.3,.6-.9,.4-1.3,0,0,0,0,0,0h0Z"/><path id="_패스_1504" d="M36.7,11v-.2s0,0,0-.1h0c0-.1,0-.1,0-.2h0v-.2s0,0,0,0h-.2c0,0,0,0,0,0L18.8,0h-.2c0,0-.5,0-.5,0h-.2C17.9,0,.5,10.1,.5,10.1,.2,10.3,0,10.6,0,11V31c0,0,0,.2,0,.3H0v.2c0,0,0,0,.1,0l.2,.2H.3l.2,.2H.5l17.4,10h.2c0,.1,.6,.1,.6,.1h.2c0-.1,17.4-10.1,17.4-10.1,.3-.2,.5-.5,.5-.9V11h0Zm-18.3,28.9L2,30.5V11.6L18.3,2.1l16.4,9.4V30.5l-16.4,9.4Z"/><path id="_패스_1505" class="cls-1" d="M29.7,12.4h-.7s0,0,0,0h-.2l-12,6.8c-.3,.2-.5,.5-.5,.9v13.9c.1,.6,.6,.9,1.2,.8,.4,0,.7-.4,.8-.8v-13.3l10-5.8v12.2c.1,.6,.6,.9,1.2,.8,.4,0,.7-.4,.8-.8V13.1s0,0,0-.1h0c0-.1,0-.1,0-.2h0c0,0,0-.1,0-.1h0"/></g></g></g></svg>