<svg width="344" height="80" viewBox="0 0 344 80" fill="none" xmlns="http://www.w3.org/2000/svg">
<path fill-rule="evenodd" clip-rule="evenodd" d="M35.9413 32.8815L37.285 30.731C37.8795 31.4992 38.5927 32.3052 39.4301 33.1513L44.8464 39.1636C53.2641 47.0688 55.0594 55.202 50.4224 62.6237C44.4776 72.1387 35.1304 75.03 22.4801 67.1262C10.1151 59.4007 0.33314 52.7737 0.33314 52.7737C0.33314 52.7737 13.7263 43.2405 17.9876 41.0648C17.9876 41.0648 17.9876 41.0774 17.9876 41.1017C15.7704 45.2288 17.0351 50.4023 20.9522 53.0312C21.226 53.2482 21.4073 53.3615 21.4073 53.3615L27.6207 57.2435C27.9686 57.4609 28.3065 57.6585 28.6348 57.8371L30.8137 59.1984L29.42 61.4292L43.6848 59.8598L38.8405 46.3512L37.4466 48.5822L36.8016 48.1793C36.1408 47.265 35.3063 46.2959 34.2884 45.2672L28.8721 39.2549C20.4544 31.3498 18.6591 23.2166 23.2961 15.7949C29.2409 6.27988 38.5881 3.38857 51.2384 11.2924C63.6034 19.0179 73.3854 25.6449 73.3854 25.6449C73.3854 25.6449 59.6437 35.0271 55.3824 37.2029L55.3858 37.1477C57.1152 33.8537 56.6438 29.9116 54.3893 27.1299C53.5044 25.8026 52.3112 25.0571 52.3112 25.0571L46.0978 21.175C45.3427 20.7032 44.6346 20.3243 43.9695 20.0321L45.3619 17.8036L31.097 19.373L35.9413 32.8815Z" fill="url(#paint0_linear_866_2)"/>
<path d="M3.74634 79.7026H136.944C140.46 73.8495 140 61.7026 132 52.2026C124 42.7026 114.5 43.2026 114.5 43.2026C114.5 43.2026 116.633 16.7112 93.196 18.049C79.5247 18.8294 71.3219 30.5359 71.3219 38.7303C75.6186 32.747 88.5 21.2026 100.21 31.7026C105.564 36.5034 103.909 48.8606 100.21 53.1774C110.009 47.9124 119.484 53.5597 122.492 58.6311C125.5 63.7026 127 68.7026 124.445 69.1669C121.89 69.6313 3.74634 79.7026 3.74634 79.7026Z" fill="url(#paint1_linear_866_2)"/>
<path d="M154.74 31.7H163.72V40.68H154.74V31.7ZM161.12 33.82H157.36V38.56H161.12V33.82ZM166.54 30.26H169.2V43.42H166.54V30.26ZM156.86 46.26H169.68V48.38H156.86V46.26ZM156.86 42.24H159.52V47.2H156.86V42.24ZM183.098 30.26H185.778V43.5H183.098V30.26ZM185.038 35.42H188.238V37.6H185.038V35.42ZM177.958 31.64H180.778C180.778 33.32 180.445 34.82 179.778 36.14C179.112 37.46 178.138 38.5867 176.858 39.52C175.592 40.4533 174.032 41.1867 172.178 41.72L171.078 39.62C172.585 39.1933 173.845 38.6467 174.858 37.98C175.885 37.3133 176.658 36.5533 177.178 35.7C177.698 34.8467 177.958 33.9267 177.958 32.94V31.64ZM171.878 31.64H179.378V33.76H171.878V31.64ZM173.818 46.32H186.418V48.46H173.818V46.32ZM173.818 42.16H176.478V47.28H173.818V42.16ZM202.212 43.04C202.212 43.88 202.006 44.6133 201.592 45.24C201.179 45.8667 200.579 46.3533 199.792 46.7C199.019 47.0333 198.072 47.2 196.952 47.2C196.459 47.2 195.972 47.1667 195.492 47.1C195.026 47.0333 194.572 46.94 194.132 46.82C193.706 46.6867 193.299 46.5267 192.912 46.34V43.52C193.592 43.8133 194.292 44.0867 195.012 44.34C195.746 44.58 196.472 44.7 197.192 44.7C197.686 44.7 198.079 44.6333 198.372 44.5C198.679 44.3667 198.899 44.1867 199.032 43.96C199.179 43.7333 199.252 43.4733 199.252 43.18C199.252 42.82 199.126 42.5133 198.872 42.26C198.632 42.0067 198.306 41.7733 197.892 41.56C197.479 41.3333 197.006 41.0933 196.472 40.84C196.139 40.68 195.779 40.4933 195.392 40.28C195.006 40.0533 194.632 39.78 194.272 39.46C193.926 39.1267 193.639 38.7267 193.412 38.26C193.186 37.7933 193.072 37.2333 193.072 36.58C193.072 35.7267 193.266 35 193.652 34.4C194.052 33.7867 194.612 33.32 195.332 33C196.066 32.68 196.926 32.52 197.912 32.52C198.659 32.52 199.366 32.6067 200.032 32.78C200.712 32.9533 201.419 33.2 202.152 33.52L201.172 35.88C200.519 35.6133 199.932 35.4067 199.412 35.26C198.892 35.1133 198.359 35.04 197.812 35.04C197.439 35.04 197.119 35.1 196.852 35.22C196.586 35.34 196.379 35.5067 196.232 35.72C196.099 35.9333 196.032 36.1867 196.032 36.48C196.032 36.8133 196.132 37.1 196.332 37.34C196.532 37.5667 196.832 37.7867 197.232 38C197.632 38.2133 198.132 38.4667 198.732 38.76C199.466 39.1067 200.086 39.4667 200.592 39.84C201.112 40.2133 201.512 40.6533 201.792 41.16C202.072 41.6667 202.212 42.2933 202.212 43.04ZM208.048 35.86C209.514 35.86 210.634 36.18 211.408 36.82C212.194 37.4467 212.588 38.4133 212.588 39.72V47H210.508L209.928 45.52H209.848C209.541 45.9067 209.221 46.2267 208.888 46.48C208.568 46.7333 208.194 46.9133 207.768 47.02C207.354 47.14 206.841 47.2 206.228 47.2C205.588 47.2 205.008 47.08 204.488 46.84C203.981 46.5867 203.581 46.2067 203.288 45.7C202.994 45.18 202.848 44.5267 202.848 43.74C202.848 42.58 203.254 41.7267 204.068 41.18C204.881 40.62 206.101 40.3133 207.728 40.26L209.628 40.2V39.72C209.628 39.1467 209.474 38.7267 209.168 38.46C208.874 38.1933 208.461 38.06 207.928 38.06C207.394 38.06 206.874 38.14 206.368 38.3C205.861 38.4467 205.354 38.6333 204.848 38.86L203.868 36.84C204.454 36.5333 205.101 36.2933 205.808 36.12C206.528 35.9467 207.274 35.86 208.048 35.86ZM208.468 41.98C207.508 42.0067 206.841 42.18 206.468 42.5C206.094 42.82 205.908 43.24 205.908 43.76C205.908 44.2133 206.041 44.54 206.308 44.74C206.574 44.9267 206.921 45.02 207.348 45.02C207.988 45.02 208.528 44.8333 208.968 44.46C209.408 44.0733 209.628 43.5333 209.628 42.84V41.94L208.468 41.98ZM219.118 35.86C220.585 35.86 221.705 36.18 222.478 36.82C223.265 37.4467 223.658 38.4133 223.658 39.72V47H221.578L220.998 45.52H220.918C220.611 45.9067 220.291 46.2267 219.958 46.48C219.638 46.7333 219.265 46.9133 218.838 47.02C218.425 47.14 217.911 47.2 217.298 47.2C216.658 47.2 216.078 47.08 215.558 46.84C215.051 46.5867 214.651 46.2067 214.358 45.7C214.065 45.18 213.918 44.5267 213.918 43.74C213.918 42.58 214.325 41.7267 215.138 41.18C215.951 40.62 217.171 40.3133 218.798 40.26L220.698 40.2V39.72C220.698 39.1467 220.545 38.7267 220.238 38.46C219.945 38.1933 219.531 38.06 218.998 38.06C218.465 38.06 217.945 38.14 217.438 38.3C216.931 38.4467 216.425 38.6333 215.918 38.86L214.938 36.84C215.525 36.5333 216.171 36.2933 216.878 36.12C217.598 35.9467 218.345 35.86 219.118 35.86ZM219.538 41.98C218.578 42.0067 217.911 42.18 217.538 42.5C217.165 42.82 216.978 43.24 216.978 43.76C216.978 44.2133 217.111 44.54 217.378 44.74C217.645 44.9267 217.991 45.02 218.418 45.02C219.058 45.02 219.598 44.8333 220.038 44.46C220.478 44.0733 220.698 43.5333 220.698 42.84V41.94L219.538 41.98ZM234.368 43.04C234.368 43.88 234.162 44.6133 233.748 45.24C233.335 45.8667 232.735 46.3533 231.948 46.7C231.175 47.0333 230.228 47.2 229.108 47.2C228.615 47.2 228.128 47.1667 227.648 47.1C227.182 47.0333 226.728 46.94 226.288 46.82C225.862 46.6867 225.455 46.5267 225.068 46.34V43.52C225.748 43.8133 226.448 44.0867 227.168 44.34C227.902 44.58 228.628 44.7 229.348 44.7C229.842 44.7 230.235 44.6333 230.528 44.5C230.835 44.3667 231.055 44.1867 231.188 43.96C231.335 43.7333 231.408 43.4733 231.408 43.18C231.408 42.82 231.282 42.5133 231.028 42.26C230.788 42.0067 230.462 41.7733 230.048 41.56C229.635 41.3333 229.162 41.0933 228.628 40.84C228.295 40.68 227.935 40.4933 227.548 40.28C227.162 40.0533 226.788 39.78 226.428 39.46C226.082 39.1267 225.795 38.7267 225.568 38.26C225.342 37.7933 225.228 37.2333 225.228 36.58C225.228 35.7267 225.422 35 225.808 34.4C226.208 33.7867 226.768 33.32 227.488 33C228.222 32.68 229.082 32.52 230.068 32.52C230.815 32.52 231.522 32.6067 232.188 32.78C232.868 32.9533 233.575 33.2 234.308 33.52L233.328 35.88C232.675 35.6133 232.088 35.4067 231.568 35.26C231.048 35.1133 230.515 35.04 229.968 35.04C229.595 35.04 229.275 35.1 229.008 35.22C228.742 35.34 228.535 35.5067 228.388 35.72C228.255 35.9333 228.188 36.1867 228.188 36.48C228.188 36.8133 228.288 37.1 228.488 37.34C228.688 37.5667 228.988 37.7867 229.388 38C229.788 38.2133 230.288 38.4667 230.888 38.76C231.622 39.1067 232.242 39.4667 232.748 39.84C233.268 40.2133 233.668 40.6533 233.948 41.16C234.228 41.6667 234.368 42.2933 234.368 43.04ZM247.539 32.82H252.999V34.96H247.539V32.82ZM247.539 37.32H252.999V39.46H247.539V37.32ZM251.999 30.26H254.679V43.8H251.999V30.26ZM242.439 46.32H255.099V48.46H242.439V46.32ZM242.439 42.48H245.099V47.44H242.439V42.48ZM244.279 31.36C245.199 31.36 246.026 31.5667 246.759 31.98C247.506 32.38 248.093 32.94 248.519 33.66C248.959 34.38 249.179 35.2067 249.179 36.14C249.179 37.06 248.959 37.8867 248.519 38.62C248.093 39.34 247.506 39.9067 246.759 40.32C246.026 40.7333 245.199 40.94 244.279 40.94C243.373 40.94 242.546 40.7333 241.799 40.32C241.066 39.9067 240.479 39.34 240.039 38.62C239.613 37.8867 239.399 37.06 239.399 36.14C239.399 35.2067 239.613 34.38 240.039 33.66C240.479 32.94 241.066 32.38 241.799 31.98C242.546 31.5667 243.373 31.36 244.279 31.36ZM244.279 33.68C243.839 33.68 243.439 33.78 243.079 33.98C242.719 34.18 242.433 34.4667 242.219 34.84C242.019 35.2 241.919 35.6333 241.919 36.14C241.919 36.66 242.019 37.1067 242.219 37.48C242.433 37.84 242.719 38.12 243.079 38.32C243.439 38.5067 243.839 38.6 244.279 38.6C244.733 38.6 245.133 38.5067 245.479 38.32C245.839 38.12 246.119 37.84 246.319 37.48C246.533 37.1067 246.639 36.66 246.639 36.14C246.639 35.6333 246.533 35.2 246.319 34.84C246.119 34.4667 245.839 34.18 245.479 33.98C245.133 33.78 244.733 33.68 244.279 33.68ZM263.718 35.14H267.458V37.24H263.718V35.14ZM263.618 39.76H267.398V41.88H263.618V39.76ZM269.978 30.24H272.518V48.76H269.978V30.24ZM266.178 30.64H268.658V47.94H266.178V30.64ZM261.998 32.42H264.538C264.538 34.18 264.331 35.82 263.918 37.34C263.518 38.8467 262.824 40.2333 261.838 41.5C260.864 42.7667 259.518 43.9067 257.798 44.92L256.298 43.06C257.698 42.22 258.811 41.3067 259.638 40.32C260.478 39.32 261.078 38.22 261.438 37.02C261.811 35.8067 261.998 34.4533 261.998 32.96V32.42ZM257.358 32.42H262.878V34.56H257.358V32.42ZM282.236 41.78C283.57 41.78 284.73 41.92 285.716 42.2C286.703 42.48 287.463 42.88 287.996 43.4C288.543 43.92 288.816 44.5467 288.816 45.28C288.816 46 288.543 46.62 287.996 47.14C287.463 47.6733 286.703 48.08 285.716 48.36C284.73 48.64 283.57 48.78 282.236 48.78C280.916 48.78 279.763 48.64 278.776 48.36C277.79 48.08 277.023 47.6733 276.476 47.14C275.943 46.62 275.676 46 275.676 45.28C275.676 44.5467 275.943 43.92 276.476 43.4C277.023 42.88 277.79 42.48 278.776 42.2C279.763 41.92 280.916 41.78 282.236 41.78ZM282.236 43.78C281.41 43.78 280.703 43.8333 280.116 43.94C279.53 44.0467 279.083 44.2133 278.776 44.44C278.483 44.6667 278.336 44.9467 278.336 45.28C278.336 45.6133 278.483 45.8933 278.776 46.12C279.083 46.3333 279.53 46.5 280.116 46.62C280.703 46.7267 281.41 46.78 282.236 46.78C283.076 46.78 283.79 46.7267 284.376 46.62C284.963 46.5 285.41 46.3333 285.716 46.12C286.023 45.8933 286.176 45.6133 286.176 45.28C286.176 44.9467 286.023 44.6667 285.716 44.44C285.41 44.2133 284.963 44.0467 284.376 43.94C283.79 43.8333 283.076 43.78 282.236 43.78ZM275.876 31.08H287.616V33.16H275.876V31.08ZM274.016 38.52H290.676V40.62H274.016V38.52ZM280.176 35.28H282.836V39.04H280.176V35.28ZM286.056 31.08H288.716V32.6C288.716 33.3333 288.696 34.1 288.656 34.9C288.616 35.7 288.463 36.58 288.196 37.54L285.556 37.28C285.81 36.3333 285.956 35.4933 285.996 34.76C286.036 34.0267 286.056 33.3067 286.056 32.6V31.08ZM291.335 39.78H308.095V41.86H291.335V39.78ZM298.395 37.82H301.035V40.56H298.395V37.82ZM293.435 36.64H306.335V38.66H293.435V36.64ZM293.435 30.72H306.175V32.74H296.075V37.8H293.435V30.72ZM295.315 33.7H305.775V35.64H295.315V33.7ZM299.695 42.7C301.735 42.7 303.315 42.96 304.435 43.48C305.568 44 306.135 44.7533 306.135 45.74C306.135 46.7267 305.568 47.48 304.435 48C303.315 48.52 301.735 48.78 299.695 48.78C297.668 48.78 296.088 48.52 294.955 48C293.835 47.48 293.275 46.7267 293.275 45.74C293.275 44.7533 293.835 44 294.955 43.48C296.088 42.96 297.668 42.7 299.695 42.7ZM299.695 44.64C298.415 44.64 297.468 44.7267 296.855 44.9C296.241 45.0733 295.935 45.3533 295.935 45.74C295.935 46.1267 296.241 46.4067 296.855 46.58C297.468 46.74 298.415 46.82 299.695 46.82C300.975 46.82 301.921 46.74 302.535 46.58C303.148 46.4067 303.455 46.1267 303.455 45.74C303.455 45.3533 303.148 45.0733 302.535 44.9C301.921 44.7267 300.975 44.64 299.695 44.64ZM321.533 30.24H324.193V48.76H321.533V30.24ZM316.073 32.16H318.693C318.693 33.5733 318.553 34.9267 318.273 36.22C318.006 37.5 317.553 38.7067 316.913 39.84C316.286 40.9733 315.42 42.0267 314.313 43C313.22 43.96 311.853 44.84 310.213 45.64L308.813 43.54C310.6 42.6733 312.02 41.72 313.073 40.68C314.14 39.6267 314.906 38.44 315.373 37.12C315.84 35.7867 316.073 34.2933 316.073 32.64V32.16ZM309.813 32.16H317.313V34.28H309.813V32.16ZM338.072 30.26H340.732V43.88H338.072V30.26ZM339.992 35.46H343.192V37.66H339.992V35.46ZM328.792 46.32H341.392V48.46H328.792V46.32ZM328.792 42.52H331.472V46.78H328.792V42.52ZM326.692 31.58H329.332V34.22H332.972V31.58H335.592V40.98H326.692V31.58ZM329.332 36.26V38.88H332.972V36.26H329.332ZM153.78 63.78H170.54V65.86H153.78V63.78ZM160.84 61.82H163.48V64.56H160.84V61.82ZM155.88 60.64H168.78V62.66H155.88V60.64ZM155.88 54.72H168.62V56.74H158.52V61.8H155.88V54.72ZM157.76 57.7H168.22V59.64H157.76V57.7ZM162.14 66.7C164.18 66.7 165.76 66.96 166.88 67.48C168.013 68 168.58 68.7533 168.58 69.74C168.58 70.7267 168.013 71.48 166.88 72C165.76 72.52 164.18 72.78 162.14 72.78C160.113 72.78 158.533 72.52 157.4 72C156.28 71.48 155.72 70.7267 155.72 69.74C155.72 68.7533 156.28 68 157.4 67.48C158.533 66.96 160.113 66.7 162.14 66.7ZM162.14 68.64C160.86 68.64 159.913 68.7267 159.3 68.9C158.687 69.0733 158.38 69.3533 158.38 69.74C158.38 70.1267 158.687 70.4067 159.3 70.58C159.913 70.74 160.86 70.82 162.14 70.82C163.42 70.82 164.367 70.74 164.98 70.58C165.593 70.4067 165.9 70.1267 165.9 69.74C165.9 69.3533 165.593 69.0733 164.98 68.9C164.367 68.7267 163.42 68.64 162.14 68.64ZM183.118 54.26H185.778V65.1H183.118V54.26ZM184.738 58.7H188.238V60.88H184.738V58.7ZM173.738 65.82H176.378V67.2H183.158V65.82H185.778V72.58H173.738V65.82ZM176.378 69.2V70.5H183.158V69.2H176.378ZM171.218 55.86H182.098V57.96H171.218V55.86ZM176.658 58.44C177.565 58.44 178.358 58.58 179.038 58.86C179.718 59.1267 180.252 59.5067 180.638 60C181.025 60.4933 181.218 61.0667 181.218 61.72C181.218 62.3733 181.025 62.9467 180.638 63.44C180.252 63.9333 179.718 64.32 179.038 64.6C178.358 64.8667 177.565 65 176.658 65C175.765 65 174.972 64.8667 174.278 64.6C173.598 64.32 173.065 63.9333 172.678 63.44C172.292 62.9467 172.098 62.3733 172.098 61.72C172.098 61.0667 172.292 60.4933 172.678 60C173.065 59.5067 173.598 59.1267 174.278 58.86C174.972 58.58 175.765 58.44 176.658 58.44ZM176.658 60.38C176.072 60.38 175.592 60.5 175.218 60.74C174.845 60.9667 174.658 61.2933 174.658 61.72C174.658 62.16 174.845 62.5 175.218 62.74C175.592 62.9667 176.072 63.08 176.658 63.08C177.258 63.08 177.738 62.9667 178.098 62.74C178.472 62.5 178.658 62.16 178.658 61.72C178.658 61.2933 178.472 60.9667 178.098 60.74C177.738 60.5 177.258 60.38 176.658 60.38ZM175.338 54.1H177.978V57.02H175.338V54.1ZM189.437 55.6H197.357V57.72H189.437V55.6ZM191.717 59.92H194.337V64.54H191.717V59.92ZM196.317 55.6H198.937V56.76C198.937 57.4133 198.917 58.1933 198.877 59.1C198.85 59.9933 198.724 61.0267 198.497 62.2L195.917 61.9C196.117 60.7667 196.23 59.7867 196.257 58.96C196.297 58.1333 196.317 57.4 196.317 56.76V55.6ZM200.717 54.24H203.397V68.1H200.717V54.24ZM202.337 59.9H205.617V62.08H202.337V59.9ZM191.037 70.32H203.997V72.46H191.037V70.32ZM191.037 66.88H193.717V70.98H191.037V66.88ZM188.577 65.64L188.337 63.52C189.404 63.52 190.584 63.5133 191.877 63.5C193.17 63.4733 194.49 63.42 195.837 63.34C197.184 63.2467 198.477 63.1133 199.717 62.94L199.897 64.84C198.617 65.0667 197.31 65.24 195.977 65.36C194.644 65.4667 193.344 65.54 192.077 65.58C190.81 65.6067 189.644 65.6267 188.577 65.64ZM218.755 54.22H221.435V72.8H218.755V54.22ZM207.015 66.32H208.655C209.749 66.32 210.782 66.3067 211.755 66.28C212.729 66.24 213.682 66.18 214.615 66.1C215.549 66.0067 216.502 65.8733 217.475 65.7L217.755 67.84C216.262 68.1067 214.789 68.2867 213.335 68.38C211.895 68.46 210.335 68.5 208.655 68.5H207.015V66.32ZM206.975 55.8H215.715V62.98H209.715V67.14H207.015V60.88H213.015V57.94H206.975V55.8ZM223.414 68.54H240.194V70.7H223.414V68.54ZM230.434 64.34H233.074V69.5H230.434V64.34ZM224.694 55.76H238.814V57.9H224.694V55.76ZM224.794 63.14H238.754V65.24H224.794V63.14ZM227.214 57.52H229.874V63.38H227.214V57.52ZM233.634 57.52H236.294V63.38H233.634V57.52ZM241.652 61.6H243.112C244.219 61.6 245.206 61.6 246.072 61.6C246.939 61.5867 247.752 61.5533 248.512 61.5C249.272 61.4467 250.046 61.36 250.832 61.24L251.012 63.3C250.212 63.42 249.419 63.5133 248.632 63.58C247.859 63.6333 247.026 63.6667 246.132 63.68C245.252 63.68 244.246 63.68 243.112 63.68H241.652V61.6ZM241.652 55.28H250.212V57.32H244.312V62.96H241.652V55.28ZM243.632 58.46H249.652V60.4H243.632V58.46ZM250.732 58.18H254.132V60.26H250.732V58.18ZM253.632 54.24H256.292V64.04H253.632V54.24ZM244.052 64.72H256.292V69.6H246.712V71.94H244.092V67.72H253.672V66.74H244.052V64.72ZM244.092 70.64H256.832V72.66H244.092V70.64Z" fill="#172C67"/>
<defs>
<linearGradient id="paint0_linear_866_2" x1="53.4415" y1="12.6688" x2="20.277" y2="65.7497" gradientUnits="userSpaceOnUse">
<stop stop-color="#31E9EF"/>
<stop offset="1" stop-color="#5F83FF"/>
</linearGradient>
<linearGradient id="paint1_linear_866_2" x1="71.683" y1="17.9959" x2="71.683" y2="79.7026" gradientUnits="userSpaceOnUse">
<stop stop-color="#31E9EF"/>
<stop offset="1" stop-color="#5F83FF"/>
</linearGradient>
</defs>
</svg>
