<svg width="36" height="36" viewBox="0 0 36 36" fill="none" xmlns="http://www.w3.org/2000/svg">
<path d="M18.5157 22.337C13.6044 22.337 9.61035 18.3429 9.61035 13.4317C9.61035 8.52045 13.6044 4.52637 18.5157 4.52637C23.4269 4.52637 21.3263 4.85181 22.5689 5.5027C22.8944 5.65063 23.0127 6.03524 22.8352 6.36069C22.6873 6.68613 22.3027 6.80447 21.9772 6.62696C20.8825 6.06483 19.7287 5.79856 18.4861 5.79856C14.2849 5.79856 10.853 9.23051 10.853 13.4317C10.853 17.6329 14.2849 21.0648 18.4861 21.0648C22.6873 21.0648 26.1192 17.6329 26.1192 13.4317C26.1192 9.23051 26.1192 13.195 26.1192 13.0767C26.1192 12.7216 26.3855 12.4258 26.7405 12.3962C27.0956 12.3962 27.3914 12.6625 27.421 13.0175C27.421 13.1654 27.421 13.2838 27.421 13.4317C27.421 18.3429 23.4269 22.337 18.5157 22.337Z" fill="white"/>
<path d="M35.3787 35.4734H1.65089C1.29586 35.4734 1 35.1775 1 34.8225V28.9349C1 24.3787 3.86982 20.2071 8.15976 18.6095C8.48521 18.4911 8.86982 18.639 8.98817 18.9941C9.10651 19.3195 8.95858 19.7041 8.60355 19.8225C4.81657 21.2426 2.27219 24.9112 2.27219 28.9645V34.2012H34.7278V28.9645C34.7278 24.9704 32.3314 21.4497 28.6627 19.9408C28.3373 19.8225 28.1893 19.4379 28.3077 19.1124C28.426 18.787 28.8106 18.639 29.1361 18.7574C33.3077 20.4438 36 24.4674 36 28.9645V34.8521C36 35.2071 35.7041 35.5029 35.3491 35.5029L35.3787 35.4734Z" fill="white"/>
<path d="M19.2254 19.1715C19.0183 19.1715 18.8407 19.0828 18.7224 18.9348L12.5981 11.1538C12.3319 10.7988 12.3319 10.355 12.5981 9.99993C12.8348 9.67449 13.2786 9.52656 13.6632 9.6449L19.107 11.4792L28.1899 4.26029C28.6632 3.87567 29.3141 3.90526 29.7283 4.34905C30.1721 4.76325 30.2017 5.41414 29.8467 5.88751L19.7283 18.9348C19.61 19.0828 19.4325 19.1715 19.2254 19.1715ZM14.2845 11.213L19.2254 17.5147L28.3082 5.79875L19.6396 12.6922C19.462 12.8402 19.2549 12.8698 19.0478 12.8106L14.3141 11.213H14.2845Z" fill="white"/>
<path d="M8.21925 35.4732C7.86422 35.4732 7.56836 35.1773 7.56836 34.8223V29.9702C7.56836 29.6152 7.86422 29.3193 8.21925 29.3193C8.57428 29.3193 8.87013 29.6152 8.87013 29.9702V34.8223C8.87013 35.1773 8.57428 35.4732 8.21925 35.4732Z" fill="white"/>
<path d="M28.811 35.4732C28.456 35.4732 28.1602 35.1773 28.1602 34.8223V29.9702C28.1602 29.6152 28.456 29.3193 28.811 29.3193C29.1661 29.3193 29.4619 29.6152 29.4619 29.9702V34.8223C29.4619 35.1773 29.1661 35.4732 28.811 35.4732Z" fill="white"/>
<path d="M30.7928 17.5444C30.7336 17.5444 30.6745 17.5444 30.6153 17.5444C30.2899 17.4557 30.0828 17.1006 30.1715 16.7456C30.4674 15.6805 30.6153 14.5563 30.6153 13.4616C30.6153 12.3669 30.4082 10.9468 30.0532 9.76337C29.9348 9.43792 30.1419 9.05331 30.4674 8.96455C30.7928 8.84621 31.1774 9.05331 31.2662 9.37875C31.6804 10.7101 31.8875 12.0711 31.8875 13.4616C31.8875 14.8521 31.71 15.9172 31.3845 17.1006C31.2958 17.3965 31.0591 17.574 30.7632 17.574L30.7928 17.5444Z" fill="white"/>
<path d="M25.0828 3.13609C24.9644 3.13609 24.8461 3.13609 24.7573 3.04734C22.8638 1.92308 20.7041 1.30177 18.5147 1.30177C16.3254 1.30177 14.9348 1.68639 13.3076 2.45562C12.9822 2.60355 12.5976 2.45562 12.4496 2.15976C12.3017 1.83432 12.4496 1.4497 12.7455 1.30177C14.5502 0.443786 16.4733 0 18.4851 0C20.497 0 23.3076 0.650887 25.3786 1.92308C25.6745 2.10059 25.7928 2.48521 25.5857 2.81065C25.4674 3.01775 25.2603 3.10651 25.0532 3.10651L25.0828 3.13609Z" fill="white"/>
<path d="M6.5035 9.79292C6.44433 9.79292 6.35557 9.79292 6.2964 9.76334C5.97096 9.64499 5.79344 9.28996 5.91179 8.93493C6.11889 8.3728 6.35557 7.81067 6.62184 7.30771C6.76977 6.98227 7.15439 6.86393 7.47983 7.04144C7.80528 7.18937 7.92362 7.57399 7.7461 7.89943C7.50942 8.3728 7.27273 8.87576 7.09522 9.37872C7.00646 9.64499 6.76977 9.79292 6.5035 9.79292Z" fill="white"/>
<path d="M8.33648 6.36096C8.18855 6.36096 8.07021 6.33138 7.95186 6.24262C7.68559 6.03552 7.62642 5.62132 7.83352 5.35504C8.30689 4.73374 8.80985 4.17161 9.37198 3.63907C9.63825 3.40238 10.0229 3.40238 10.2891 3.66865C10.5258 3.93493 10.5258 4.31954 10.2596 4.58581C9.7566 5.05919 9.28322 5.59173 8.86902 6.12427C8.75068 6.30179 8.54358 6.39055 8.36606 6.39055L8.33648 6.36096Z" fill="white"/>
<path d="M11.5624 3.37269C11.3553 3.37269 11.1482 3.28393 11.0299 3.07683C10.8228 2.78098 10.9115 2.39636 11.2074 2.18926C11.7103 1.86382 12.2429 1.56796 12.7754 1.30169C13.1009 1.15376 13.4855 1.30169 13.6334 1.59754C13.7813 1.92299 13.6334 2.3076 13.3376 2.45553C12.8642 2.69222 12.3908 2.95849 11.9174 3.25435C11.7991 3.31352 11.6807 3.37269 11.5624 3.37269Z" fill="white"/>
<path d="M6.14781 17.1893C5.85195 17.1893 5.61526 16.9822 5.52651 16.7159C5.26023 15.6509 5.1123 14.5562 5.1123 13.4319C5.1123 12.3077 5.37858 10.355 5.88154 8.90529C5.99988 8.57984 6.35491 8.40233 6.70994 8.52067C7.03538 8.63902 7.2129 8.99405 7.09455 9.34908C6.62118 10.6509 6.38449 12.0414 6.38449 13.4319C6.38449 14.8224 6.50284 15.4438 6.73952 16.3905C6.82828 16.7455 6.62118 17.071 6.26615 17.1597C6.20698 17.1597 6.14781 17.1597 6.11822 17.1597L6.14781 17.1893Z" fill="white"/>
</svg>
