<svg width="36" height="36" viewBox="0 0 36 36" fill="none" xmlns="http://www.w3.org/2000/svg">
<path d="M18.6139 29.377C18.5267 29.377 18.4395 29.377 18.3524 29.3116L13.7765 27.198C11.7501 26.2611 10.4209 24.2128 10.4209 21.9685V11.5094C10.4209 11.1825 10.6824 10.8993 11.031 10.8993H13.2318C14.6917 10.8993 16.108 10.2674 17.0886 9.19966L18.1563 8.02301C18.396 7.76153 18.8318 7.76153 19.0497 8.02301L20.1173 9.19966C21.0979 10.2891 22.5142 10.8993 23.9741 10.8993H26.1749C26.5018 10.8993 26.785 11.1607 26.785 11.5094V21.9685C26.785 24.2128 25.4776 26.2611 23.4294 27.198L18.8535 29.3116C18.7664 29.3552 18.6792 29.377 18.5921 29.377H18.6139ZM11.6411 12.1413V21.9903C11.6411 23.7552 12.687 25.3677 14.2777 26.1085L18.5921 28.0914L22.9064 26.1085C24.5189 25.3677 25.543 23.7552 25.543 21.9903V12.1413H23.9524C22.1438 12.1413 20.4224 11.3786 19.2022 10.0277L18.5921 9.35219L17.982 10.0277C16.7617 11.3568 15.0403 12.1413 13.2318 12.1413H11.6411Z" fill="white"/>
<path d="M18.6133 26.8493C18.5262 26.8493 18.439 26.8493 18.3519 26.7839L15.1488 25.3022C13.6453 24.605 12.6865 23.1015 12.6865 21.4672C12.6865 19.833 12.948 20.8571 13.2966 20.8571C13.6453 20.8571 13.9068 21.1186 13.9068 21.4672C13.9068 22.6439 14.604 23.7116 15.6499 24.2127L18.6133 25.5855L21.5768 24.2127C22.6445 23.7334 23.3199 22.6439 23.3199 21.4672C23.3199 20.2906 23.5814 20.8571 23.9301 20.8571C24.2787 20.8571 24.5402 21.1186 24.5402 21.4672C24.5402 23.1015 23.5814 24.6267 22.0779 25.3022L18.8748 26.7839C18.7877 26.8275 18.7005 26.8493 18.6133 26.8493Z" fill="white"/>
<path d="M14.888 18.3512C14.6265 18.3512 14.3869 18.1769 14.3215 17.9372C14.2125 17.6104 14.3869 17.2836 14.7137 17.1746L22.1876 14.7995C22.5144 14.6906 22.8413 14.8649 22.9502 15.1917C23.0592 15.5186 22.8849 15.8454 22.558 15.9544L15.0841 18.3295C15.0188 18.3295 14.9534 18.3512 14.9098 18.3512H14.888Z" fill="white"/>
<path d="M16.5443 20.4867C16.2828 20.4867 16.0431 20.3124 15.9777 20.0727C15.8688 19.7458 16.0431 19.419 16.37 19.31L20.7715 17.9155C21.0983 17.8065 21.4252 17.9809 21.5341 18.3077C21.6431 18.6345 21.4688 18.9614 21.1419 19.0703L16.7404 20.4649C16.675 20.4649 16.6096 20.4867 16.5661 20.4867H16.5443Z" fill="white"/>
<path d="M20.0525 7.08611C19.7257 7.08611 19.4424 6.82464 19.4424 6.476V2.4231C19.4424 2.09626 19.7039 1.81299 20.0525 1.81299C20.4011 1.81299 20.6626 2.07447 20.6626 2.4231V6.476C20.6626 6.80285 20.4011 7.08611 20.0525 7.08611Z" fill="white"/>
<path d="M17.1531 7.08611C16.8262 7.08611 16.543 6.82464 16.543 6.476V2.4231C16.543 2.09626 16.8044 1.81299 17.1531 1.81299C17.5017 1.81299 17.7632 2.07447 17.7632 2.4231V6.476C17.7632 6.80285 17.5017 7.08611 17.1531 7.08611Z" fill="white"/>
<path d="M29.1606 33.2776H20.0525C19.7257 33.2776 19.4424 33.0161 19.4424 32.6675C19.4424 32.3189 19.7039 32.0574 20.0525 32.0574H29.1606C30.6859 32.0574 31.9497 30.8154 31.9497 29.2683V20.1602C31.9497 19.8333 32.2112 19.55 32.5598 19.55C32.9085 19.55 33.1699 19.8115 33.1699 20.1602V29.2683C33.1699 31.4691 31.3832 33.2558 29.1824 33.2558L29.1606 33.2776Z" fill="white"/>
<path d="M32.5598 17.8721C32.233 17.8721 31.9497 17.6106 31.9497 17.262V8.15385C31.9497 6.62857 30.7077 5.36476 29.1606 5.36476H20.0525C19.7257 5.36476 19.4424 5.10328 19.4424 4.75465C19.4424 4.40601 19.7039 4.14453 20.0525 4.14453H29.1606C31.3614 4.14453 33.1482 5.93129 33.1482 8.13206V17.2402C33.1482 17.567 32.8867 17.8503 32.538 17.8503L32.5598 17.8721Z" fill="white"/>
<path d="M34.8896 20.7703H30.8367C30.5098 20.7703 30.2266 20.5088 30.2266 20.1602C30.2266 19.8115 30.488 19.55 30.8367 19.55H34.8896C35.2164 19.55 35.4997 19.8115 35.4997 20.1602C35.4997 20.5088 35.2382 20.7703 34.8896 20.7703Z" fill="white"/>
<path d="M34.8896 17.8721H30.8367C30.5098 17.8721 30.2266 17.6106 30.2266 17.262C30.2266 16.9133 30.488 16.6519 30.8367 16.6519H34.8896C35.2164 16.6519 35.4997 16.9133 35.4997 17.262C35.4997 17.6106 35.2382 17.8721 34.8896 17.8721Z" fill="white"/>
<path d="M17.1531 35.6088C16.8262 35.6088 16.543 35.3473 16.543 34.9987V30.9458C16.543 30.619 16.8044 30.3357 17.1531 30.3357C17.5017 30.3357 17.7632 30.5972 17.7632 30.9458V34.9987C17.7632 35.3256 17.5017 35.6088 17.1531 35.6088Z" fill="white"/>
<path d="M20.0525 35.6088C19.7257 35.6088 19.4424 35.3473 19.4424 34.9987V30.9458C19.4424 30.619 19.7039 30.3357 20.0525 30.3357C20.4011 30.3357 20.6626 30.5972 20.6626 30.9458V34.9987C20.6626 35.3256 20.4011 35.6088 20.0525 35.6088Z" fill="white"/>
<path d="M6.36809 17.8721H2.31519C1.98835 17.8721 1.70508 17.6106 1.70508 17.262C1.70508 16.9133 1.96656 16.6519 2.31519 16.6519H6.36809C6.69494 16.6519 6.9782 16.9133 6.9782 17.262C6.9782 17.6106 6.71673 17.8721 6.36809 17.8721Z" fill="white"/>
<path d="M6.36809 20.7703H2.31519C1.98835 20.7703 1.70508 20.5088 1.70508 20.1602C1.70508 19.8115 1.96656 19.55 2.31519 19.55H6.36809C6.69494 19.55 6.9782 19.8115 6.9782 20.1602C6.9782 20.5088 6.71673 20.7703 6.36809 20.7703Z" fill="white"/>
<path d="M4.66871 17.8723C4.34186 17.8723 4.05859 17.6108 4.05859 17.2622V8.15403C4.05859 5.95327 5.84536 4.1665 8.04612 4.1665H17.1543C17.4811 4.1665 17.7644 4.42798 17.7644 4.77662C17.7644 5.12525 17.5029 5.38673 17.1543 5.38673H8.04612C6.52084 5.38673 5.25703 6.62875 5.25703 8.17582V17.2839C5.25703 17.6108 4.99555 17.8941 4.64692 17.8941L4.66871 17.8723Z" fill="white"/>
<path d="M17.1543 33.2773H8.04612C5.84536 33.2773 4.05859 31.4905 4.05859 29.2898V20.1816C4.05859 19.8548 4.32007 19.5715 4.66871 19.5715C5.01734 19.5715 5.27882 19.833 5.27882 20.1816V29.2898C5.27882 30.8151 6.52084 32.0789 8.06791 32.0789H17.176C17.5029 32.0789 17.7862 32.3403 17.7862 32.689C17.7862 33.0376 17.5247 33.2991 17.176 33.2991L17.1543 33.2773Z" fill="white"/>
</svg>
