<svg width="35" height="35" viewBox="0 0 35 35" fill="none" xmlns="http://www.w3.org/2000/svg">
<g clip-path="url(#clip0_9609_24243)">
<path d="M5.20364 30.3719C4.88162 30.3719 4.60254 30.1143 4.60254 29.7708V5.38382C4.60254 5.23355 4.66694 5.08328 4.77428 4.97594C4.88162 4.8686 5.0319 4.8042 5.18217 4.8042H24.9326C25.0828 4.8042 25.2331 4.8686 25.3405 4.97594C25.4478 5.08328 25.5122 5.23355 25.5122 5.38382V8.23899C25.5122 8.561 25.2546 8.84008 24.9111 8.84008C24.5676 8.84008 24.31 8.58247 24.31 8.23899V5.98491H5.74033V29.1912H24.31V23.5238C24.31 23.2018 24.5676 22.9227 24.8896 22.9227C25.2117 22.9227 25.4907 23.1803 25.4907 23.5238V29.7923C25.4907 30.1143 25.2331 30.3934 24.9111 30.3934H5.20364V30.3719Z" fill="white"/>
<path d="M2.28569 27.8817C2.13541 27.8817 1.98514 27.8173 1.8778 27.71C1.77046 27.6026 1.70605 27.4523 1.70605 27.3021V2.61452C1.70605 2.2925 1.96367 2.01343 2.28569 2.01343H22.0361C22.3581 2.01343 22.6372 2.27104 22.6372 2.59305V5.36235C22.6372 5.51262 22.5728 5.66289 22.4654 5.77023C22.3581 5.87757 22.2078 5.94197 22.0576 5.94197H5.78494V27.2591C5.78494 27.5811 5.52733 27.8602 5.18384 27.8602H2.26422L2.28569 27.8817ZM2.86532 3.19414V26.6795H4.60421V5.38382C4.60421 5.0618 4.86183 4.78273 5.18384 4.78273H21.435V3.19414H2.86532Z" fill="white"/>
<path d="M8.18997 9.18338C7.86795 9.18338 7.58887 8.92577 7.58887 8.58229C7.58887 8.23881 7.84648 7.9812 8.18997 7.9812H16.6268C16.9488 7.9812 17.2279 8.23881 17.2279 8.56082C17.2279 8.88283 16.9703 9.16191 16.6268 9.16191H8.18997V9.18338Z" fill="white"/>
<path d="M8.18997 12.1675C7.86795 12.1675 7.58887 11.9099 7.58887 11.5664C7.58887 11.2229 7.84648 10.9653 8.18997 10.9653H15.1885C15.5105 10.9653 15.7896 11.2229 15.7896 11.545C15.7896 11.867 15.532 12.146 15.1885 12.146H8.18997V12.1675Z" fill="white"/>
<path d="M8.18997 15.1514C7.86795 15.1514 7.58887 14.8938 7.58887 14.5503C7.58887 14.2068 7.84648 13.9492 8.18997 13.9492H14.6947C15.0167 13.9492 15.2958 14.2068 15.2958 14.5288C15.2958 14.8509 15.0382 15.1299 14.6947 15.1299H8.18997V15.1514Z" fill="white"/>
<path d="M8.18997 18.1355C7.86795 18.1355 7.58887 17.8779 7.58887 17.5344C7.58887 17.191 7.84648 16.9333 8.18997 16.9333H15.532C15.854 16.9333 16.1331 17.191 16.1331 17.513C16.1331 17.835 15.8754 18.1141 15.532 18.1141H8.18997V18.1355Z" fill="white"/>
<path d="M8.18997 21.1197C7.86795 21.1197 7.58887 20.862 7.58887 20.5186C7.58887 20.1751 7.84648 19.9175 8.18997 19.9175H17.0347C17.3567 19.9175 17.6358 20.1751 17.6358 20.4971C17.6358 20.8191 17.3782 21.0982 17.0347 21.0982H8.18997V21.1197Z" fill="white"/>
<path d="M8.18997 24.1035C7.86795 24.1035 7.58887 23.8459 7.58887 23.5025C7.58887 23.159 7.84648 22.9014 8.18997 22.9014H21.9723C22.2943 22.9014 22.5734 23.159 22.5734 23.481C22.5734 23.803 22.3158 24.0821 21.9723 24.0821H8.18997V24.1035Z" fill="white"/>
<path d="M8.18997 27.0874C7.86795 27.0874 7.58887 26.8298 7.58887 26.4863C7.58887 26.1429 7.84648 25.8853 8.18997 25.8853H21.9723C22.2943 25.8853 22.5734 26.1429 22.5734 26.4649C22.5734 26.7869 22.3158 27.066 21.9723 27.066H8.18997V27.0874Z" fill="white"/>
<path d="M22.9812 19.0798C21.7575 19.0798 20.5338 18.6076 19.5893 17.6845C17.7216 15.8168 17.7216 12.7684 19.5893 10.9008C20.4909 9.99912 21.6931 9.50537 22.9812 9.50537C24.2692 9.50537 25.4714 9.99912 26.3731 10.9008C27.2747 11.8024 27.7685 13.0046 27.7685 14.2926C27.7685 15.5807 27.2747 16.7828 26.3731 17.6845C25.4285 18.629 24.2048 19.0798 22.9812 19.0798ZM22.9812 10.6646C22.0151 10.6646 21.1135 11.051 20.4265 11.7165C19.0096 13.1334 19.0096 15.4089 20.4265 16.8258C21.8434 18.2426 24.119 18.2426 25.5358 16.8258C26.2228 16.1388 26.5878 15.2372 26.5878 14.2711C26.5878 13.3051 26.2013 12.4035 25.5358 11.7165C24.8489 11.0296 23.9472 10.6646 22.9812 10.6646Z" fill="white"/>
<path d="M22.981 21.2268C21.1347 21.2268 19.3744 20.4969 18.0648 19.1874C15.3599 16.4825 15.3599 12.0602 18.0648 9.35532C19.3744 8.04581 21.1133 7.31592 22.981 7.31592C24.8487 7.31592 26.5876 8.04581 27.8971 9.35532C30.6021 12.0602 30.6021 16.461 27.8971 19.1874C26.5876 20.4969 24.8487 21.2268 22.981 21.2268ZM22.981 8.51809C21.4353 8.51809 19.9969 9.11918 18.9021 10.214C17.8072 11.3089 17.2061 12.7472 17.2061 14.2928C17.2061 15.8385 17.8072 17.2768 18.9021 18.3716C19.9969 19.4665 21.4353 20.0676 22.981 20.0676C24.5267 20.0676 25.965 19.4665 27.0599 18.3716C29.314 16.1176 29.314 12.4681 27.0599 10.214C25.965 9.11918 24.5267 8.51809 22.981 8.51809Z" fill="white"/>
<path d="M26.8665 22.7295C26.4801 22.7295 26.1152 22.5793 25.8146 22.3002L24.3119 20.7975C24.1616 20.6472 24.0972 20.4325 24.1616 20.2393C24.2045 20.0461 24.3763 19.8744 24.5695 19.81C25.4926 19.5309 26.3513 19.0371 27.0383 18.3502C27.7252 17.6632 28.219 16.8045 28.4981 15.8814C28.5625 15.6882 28.7128 15.5165 28.9274 15.4735C29.1207 15.4306 29.3353 15.4735 29.4856 15.6238L30.9884 17.1265C31.568 17.7062 31.568 18.6507 30.9884 19.2303L27.9185 22.3002C27.6394 22.5793 27.253 22.7295 26.8665 22.7295ZM25.8146 20.6257L26.6519 21.463C26.7592 21.5703 26.9524 21.5703 27.0812 21.463L30.1511 18.3931C30.2585 18.2858 30.2585 18.0926 30.1511 17.9638L29.3139 17.1265C28.9704 17.8994 28.4766 18.6078 27.8755 19.2089C27.2744 19.81 26.566 20.2822 25.7931 20.6472L25.8146 20.6257Z" fill="white"/>
<path d="M31.9967 26.0139C31.9323 26.0139 31.8894 26.0139 31.825 26.0139C31.0522 25.971 30.3222 25.5846 29.85 24.962L27.4456 21.8278C27.2738 21.5916 27.2953 21.2696 27.4885 21.0549L29.7426 18.8009C29.9573 18.5862 30.2793 18.5647 30.5155 18.7579L33.6498 21.1623C34.2723 21.6346 34.6587 22.3645 34.7017 23.1373C34.7446 23.9101 34.4655 24.6829 33.9074 25.2411C33.3921 25.7563 32.7052 26.0354 31.9967 26.0354V26.0139ZM28.6907 21.5272L30.7731 24.2321C31.0522 24.5756 31.4386 24.7903 31.8894 24.8332C32.3188 24.8547 32.7696 24.7044 33.0701 24.3824C33.3921 24.0604 33.5424 23.631 33.521 23.2017C33.4995 22.7509 33.2848 22.3645 32.9199 22.0854L30.2149 20.003L28.6907 21.5272Z" fill="white"/>
</g>
<defs>
<clipPath id="clip0_9609_24243">
<rect width="35" height="35" fill="white"/>
</clipPath>
</defs>
</svg>
