<svg width="35" height="35" viewBox="0 0 35 35" fill="none" xmlns="http://www.w3.org/2000/svg">
<path d="M15.3066 34.4205C15.0285 34.4205 14.7967 34.2119 14.7735 33.9338C14.4954 31.0833 13.638 28.3719 12.2011 25.869L9.95316 21.9061C9.60554 21.2803 9.67506 20.5156 10.1154 19.9594C10.463 19.5422 10.9729 19.3105 11.5059 19.3105C12.0389 19.3105 12.5487 19.5886 12.85 20.0289L14.6577 22.7172V13.4936C14.6577 12.4507 15.5151 11.5933 16.558 11.5933C17.6009 11.5933 18.4583 12.4507 18.4583 13.4936V22.8331C18.4583 23.1343 18.2034 23.3893 17.9021 23.3893C17.6009 23.3893 17.3459 23.1343 17.3459 22.8331V13.4936C17.3459 13.0533 16.9983 12.6825 16.5348 12.6825C16.0713 12.6825 15.7237 13.0533 15.7237 13.4936V24.5016C15.7237 24.7334 15.5615 24.942 15.3297 25.0115C15.098 25.081 14.8431 25.0115 14.7272 24.8029L11.923 20.6778C11.8071 20.5388 11.6218 20.4461 11.4364 20.4229C11.2278 20.4229 11.0424 20.5156 10.9265 20.6546C10.7643 20.8632 10.7411 21.1413 10.857 21.373L13.1049 25.3359C14.6113 27.9547 15.5151 30.8284 15.8164 33.8179C15.8396 34.1192 15.631 34.3741 15.3297 34.4205H15.2834H15.3066Z" fill="white"/>
<path d="M20.6131 22.7635C20.3118 22.7635 20.0569 22.5085 20.0569 22.2073V19.1945C20.0569 18.7542 19.7093 18.3834 19.2458 18.3834C18.7823 18.3834 18.4347 18.7542 18.4347 19.1945V22.2073C18.4347 22.5085 18.1797 22.7635 17.8785 22.7635C17.5772 22.7635 17.3223 22.5085 17.3223 22.2073V19.1945C17.3223 18.1517 18.1797 17.2942 19.2226 17.2942C20.2655 17.2942 21.1229 18.1517 21.1229 19.1945V22.2073C21.1229 22.5085 20.868 22.7635 20.5667 22.7635H20.6131Z" fill="white"/>
<path d="M23.3018 24.2005C23.0006 24.2005 22.7456 23.9456 22.7456 23.6443V20.6316C22.7456 20.1912 22.398 19.8436 21.9577 19.8436C21.5174 19.8436 21.1466 20.1912 21.1466 20.6316V23.6443C21.1466 23.9456 20.8916 24.2005 20.5904 24.2005C20.2891 24.2005 20.0342 23.9456 20.0342 23.6443V20.6316C20.0342 19.5887 20.8916 18.7544 21.9113 18.7544C22.931 18.7544 23.8117 19.6119 23.8117 20.6316V23.6443C23.8117 23.9456 23.5568 24.2005 23.2555 24.2005H23.3018Z" fill="white"/>
<path d="M25.1788 34.4205H9.02592C8.72465 34.4205 8.46973 34.1656 8.46973 33.8643C8.46973 33.563 8.72465 33.3081 9.02592 33.3081H24.7616C25.202 31.7091 25.4337 30.0636 25.4337 28.3951V22.0683C25.4337 21.628 25.0861 21.2804 24.6458 21.2804C24.2054 21.2804 23.8347 21.628 23.8347 22.0683V25.0811C23.8347 25.3823 23.5797 25.6373 23.2785 25.6373C22.9772 25.6373 22.7223 25.3823 22.7223 25.0811V22.0683C22.7223 21.0255 23.5797 20.1912 24.5994 20.1912C25.6191 20.1912 26.4998 21.0486 26.4998 22.0683V28.3951C26.4998 30.2954 26.2217 32.1957 25.6655 34.0034C25.5959 34.2351 25.3874 34.3973 25.1324 34.3973L25.1788 34.4205Z" fill="white"/>
<path d="M23.6268 18.847C23.3255 18.847 23.0706 18.5921 23.0706 18.2908V2.43919C23.0706 2.02205 22.723 1.67442 22.3058 1.67442H10.3244C9.90728 1.67442 9.55966 2.02205 9.55966 2.43919V17.92C9.55966 18.2213 9.30473 18.4762 9.00346 18.4762C8.70219 18.4762 8.44727 18.2213 8.44727 17.92V2.43919C8.44727 1.4195 9.28156 0.585205 10.3013 0.585205H22.2826C23.3023 0.585205 24.1366 1.4195 24.1366 2.43919V18.314C24.1366 18.6152 23.8817 18.8702 23.5804 18.8702L23.6268 18.847Z" fill="white"/>
<path d="M19.3625 3.80649H13.2907C12.7577 3.80649 12.3174 3.36617 12.3174 2.83315V1.11821C12.3174 0.816935 12.5723 0.562012 12.8736 0.562012H19.8029C20.1041 0.562012 20.3591 0.816935 20.3591 1.11821V2.83315C20.3591 3.36617 19.9187 3.80649 19.3857 3.80649H19.3625ZM13.4066 2.71727H19.2467V1.6744H13.4066V2.71727Z" fill="white"/>
<path d="M13.5454 13.6326C13.3136 13.6326 13.1051 13.4704 13.0355 13.2386C12.9428 12.9142 12.8965 12.5666 12.8965 12.2421C12.8965 10.3418 14.4492 8.78906 16.3495 8.78906C18.2499 8.78906 19.8026 10.3418 19.8026 12.2421C19.8026 14.1425 19.5477 12.7983 19.2464 12.7983C18.9451 12.7983 18.7134 12.5434 18.7134 12.2421C18.7134 10.9443 17.6473 9.87828 16.3495 9.87828C15.0517 9.87828 13.9857 10.9443 13.9857 12.2421C13.9857 13.5399 14.0089 12.7056 14.0784 12.9374C14.1711 13.2155 14.0089 13.5399 13.7076 13.6094C13.6613 13.6094 13.5917 13.6326 13.5454 13.6326Z" fill="white"/>
<path d="M13.4304 17.4566C13.3377 17.4566 13.2218 17.4334 13.1523 17.3639C11.3678 16.2515 10.3018 14.328 10.3018 12.2423C10.3018 8.90508 13.0132 6.2168 16.3504 6.2168C19.6876 6.2168 22.399 8.92825 22.399 12.2423C22.399 15.5563 21.9124 15.0232 21.0085 16.1125C20.8231 16.3442 20.4755 16.3674 20.2438 16.182C20.012 15.9966 19.9888 15.649 20.1742 15.4172C20.9158 14.5366 21.3098 13.401 21.3098 12.2654C21.3098 9.5308 19.085 7.32919 16.3736 7.32919C13.6621 7.32919 11.4373 9.55398 11.4373 12.2654C11.4373 14.9769 12.318 15.5563 13.778 16.4601C14.0329 16.6223 14.1024 16.9467 13.9634 17.2017C13.8707 17.3639 13.6853 17.4566 13.4999 17.4566H13.4304Z" fill="white"/>
</svg>
