<svg width="24" height="21" viewBox="0 0 24 21" fill="none" xmlns="http://www.w3.org/2000/svg">
<g clip-path="url(#clip0_280_227)">
<path d="M23.8483 3.01722L21.4156 5.53261L19.6883 7.31854L18.1693 8.88912L10.3988 16.923C10.1974 17.1313 9.87109 17.1313 9.66965 16.923L7.26742 14.4387L3.67842 10.7278C3.47698 10.52 3.47698 10.1822 3.67842 9.97387L5.71469 7.86845C5.91613 7.66017 6.2429 7.66017 6.44389 7.86845L9.66828 11.2023C9.86972 11.4102 10.1965 11.4102 10.3975 11.2023L21.0811 0.155966C21.2825 -0.0523142 21.6088 -0.0523142 21.8102 0.155966L23.8483 2.26327C24.0493 2.47108 24.0493 2.80894 23.8483 3.01722Z" fill="#356EFF"/>
<path d="M23.8483 3.01722L21.4156 5.53261L19.6883 7.31854L18.1693 8.88912L10.3988 16.923C10.1974 17.1313 9.87109 17.1313 9.66965 16.923L7.26742 14.4387L3.67842 10.7278C3.47698 10.52 3.47698 10.1822 3.67842 9.97387L5.71469 7.86845C5.91613 7.66017 6.2429 7.66017 6.44389 7.86845L9.66828 11.2023C9.86972 11.4102 10.1965 11.4102 10.3975 11.2023L21.0811 0.155966C21.2825 -0.0523142 21.6088 -0.0523142 21.8102 0.155966L23.8483 2.26327C24.0493 2.47108 24.0493 2.80894 23.8483 3.01722Z" fill="#356EFF"/>
<path d="M18.1701 18.8578H2.07227V2.21331H17.8032L19.5446 0.412769C19.2612 0.19742 18.9116 0.0701904 18.5338 0.0701904H1.70859C0.766564 0.0701904 0 0.862785 0 1.8368V19.2338C0 20.2079 0.766564 21 1.70859 21H18.5338C19.4758 21 20.2424 20.2079 20.2424 19.2338V8.07908L18.1701 10.2217V18.8573V18.8578Z" fill="#356EFF"/>
</g>
<defs>
<clipPath id="clip0_280_227">
<rect width="24" height="21" fill="white"/>
</clipPath>
</defs>
</svg>
