<svg width="44" height="32" viewBox="0 0 44 32" fill="none" xmlns="http://www.w3.org/2000/svg">
<path d="M39.2275 9.04004H4.6875V30.02H39.2275V9.04004Z" fill="white" stroke="#36435E" stroke-width="2.5" stroke-linecap="round" stroke-linejoin="round"/>
<path d="M2 2H9.98V8.56C9.98 10.76 8.19 12.55 5.99 12.55C3.79 12.55 2 10.76 2 8.56V2Z" fill="#C3E0FC" stroke="#36435E" stroke-width="2.5" stroke-linecap="round" stroke-linejoin="round"/>
<path d="M9.98047 2H17.9605V8.56C17.9605 10.76 16.1705 12.55 13.9705 12.55C11.7705 12.55 9.98047 10.76 9.98047 8.56V2Z" fill="white" stroke="#36435E" stroke-width="2.5" stroke-linecap="round" stroke-linejoin="round"/>
<path d="M17.9688 2H25.9488V8.56C25.9488 10.76 24.1587 12.55 21.9587 12.55C19.7587 12.55 17.9688 10.76 17.9688 8.56V2Z" fill="#C3E0FC" stroke="#36435E" stroke-width="2.5" stroke-linecap="round" stroke-linejoin="round"/>
<path d="M25.9492 2H33.9292V8.56C33.9292 10.76 32.1392 12.55 29.9392 12.55C27.7392 12.55 25.9492 10.76 25.9492 8.56V2Z" fill="white" stroke="#36435E" stroke-width="2.5" stroke-linecap="round" stroke-linejoin="round"/>
<path d="M33.9297 2H41.9097V8.56C41.9097 10.76 40.1197 12.55 37.9197 12.55C35.7197 12.55 33.9297 10.76 33.9297 8.56V2Z" fill="#C3E0FC" stroke="#36435E" stroke-width="2.5" stroke-linecap="round" stroke-linejoin="round"/>
<path d="M32.8388 18.25H24.7188V29.81H32.8388V18.25Z" fill="white" stroke="#36435E" stroke-width="2.5" stroke-linecap="round" stroke-linejoin="round"/>
</svg>
