<svg width="37" height="37" viewBox="0 0 37 37" fill="none" xmlns="http://www.w3.org/2000/svg">
<path d="M18.5081 35.02C22.7497 35.02 26.1881 27.6282 26.1881 18.51C26.1881 9.39178 22.7497 2 18.5081 2C14.2666 2 10.8281 9.39178 10.8281 18.51C10.8281 27.6282 14.2666 35.02 18.5081 35.02Z" fill="#C3E0FC" stroke="#36435E" stroke-width="2.5" stroke-linecap="round" stroke-linejoin="round"/>
<path d="M18.51 2C13.31 2 8.68 4.4 5.65 8.16C3.37 10.99 2 14.59 2 18.51H18.51V2Z" stroke="#36435E" stroke-width="2.5" stroke-linecap="round" stroke-linejoin="round"/>
<path d="M2 18.5098C2 27.6298 9.39 35.0198 18.51 35.0198V18.5098H2Z" stroke="#36435E" stroke-width="2.5" stroke-linecap="round" stroke-linejoin="round"/>
<path d="M18.5078 2V18.51H35.0178C35.0178 14.59 33.6478 10.98 31.3678 8.16C28.3378 4.4 23.7078 2 18.5078 2Z" stroke="#36435E" stroke-width="2.5" stroke-linecap="round" stroke-linejoin="round"/>
<path d="M18.5078 35.0198C27.6278 35.0198 35.0178 27.6298 35.0178 18.5098H18.5078V35.0198Z" stroke="#36435E" stroke-width="2.5" stroke-linecap="round" stroke-linejoin="round"/>
<path d="M31.3684 8.16C28.2684 10.19 23.6584 11.49 18.5084 11.49C13.3584 11.49 8.74844 10.19 5.64844 8.16C8.67844 4.4 13.3084 2 18.5084 2C23.7084 2 28.3384 4.4 31.3684 8.16Z" stroke="#36435E" stroke-width="2.5" stroke-linecap="round" stroke-linejoin="round"/>
<path d="M31.3684 28.87C28.2684 26.84 23.6584 25.54 18.5084 25.54C13.3584 25.54 8.74844 26.84 5.64844 28.87C8.67844 32.63 13.3084 35.03 18.5084 35.03C23.7084 35.03 28.3384 32.63 31.3684 28.87Z" stroke="#36435E" stroke-width="2.5" stroke-linecap="round" stroke-linejoin="round"/>
</svg>
