<svg width="44" height="50" viewBox="0 0 44 50" fill="none" xmlns="http://www.w3.org/2000/svg">
<path d="M22.2372 48.2C24.2365 48.2 25.8572 46.5792 25.8572 44.58C25.8572 42.5807 24.2365 40.96 22.2372 40.96C20.2379 40.96 18.6172 42.5807 18.6172 44.58C18.6172 46.5792 20.2379 48.2 22.2372 48.2Z" fill="white" stroke="#36435E" stroke-width="2.5" stroke-linecap="round" stroke-linejoin="round"/>
<path d="M32.7472 23.1302C32.7472 16.9202 27.3672 11.9702 21.0172 12.6802C16.2672 13.2102 12.3972 17.0202 11.7972 21.7602C11.4172 24.7702 12.3172 27.5702 14.0172 29.6902C15.7172 31.8102 17.1072 34.4902 17.5572 37.3102L17.8572 39.2102H26.5972L26.8472 37.6202C27.3172 34.6502 28.6772 31.9402 30.5272 29.5702C31.9172 27.7902 32.7472 25.5502 32.7472 23.1202V23.1302Z" fill="white" stroke="#36435E" stroke-width="2.5" stroke-linecap="round" stroke-linejoin="round"/>
<path d="M26.1678 36.3901H18.3078C17.1756 36.3901 16.2578 37.3057 16.2578 38.4351C16.2578 39.5646 17.1756 40.4801 18.3078 40.4801H26.1678C27.3 40.4801 28.2178 39.5646 28.2178 38.4351C28.2178 37.3057 27.3 36.3901 26.1678 36.3901Z" fill="#C3E0FC" stroke="#36435E" stroke-width="2.5" stroke-linecap="round" stroke-linejoin="round"/>
<path d="M26.1678 40.48H18.3078C17.1756 40.48 16.2578 41.3956 16.2578 42.525C16.2578 43.6544 17.1756 44.57 18.3078 44.57H26.1678C27.3 44.57 28.2178 43.6544 28.2178 42.525C28.2178 41.3956 27.3 40.48 26.1678 40.48Z" fill="#C3E0FC" stroke="#36435E" stroke-width="2.5" stroke-linecap="round" stroke-linejoin="round"/>
<path d="M22.2422 5.36V2" stroke="#36435E" stroke-width="2.5" stroke-linecap="round" stroke-linejoin="round"/>
<path d="M10.3097 10.3102L7.92969 7.93018" stroke="#36435E" stroke-width="2.5" stroke-linecap="round" stroke-linejoin="round"/>
<path d="M5.36 22.2402H2" stroke="#36435E" stroke-width="2.5" stroke-linecap="round" stroke-linejoin="round"/>
<path d="M10.3097 34.1699L7.92969 36.5499" stroke="#36435E" stroke-width="2.5" stroke-linecap="round" stroke-linejoin="round"/>
<path d="M34.1719 34.1699L36.5519 36.5499" stroke="#36435E" stroke-width="2.5" stroke-linecap="round" stroke-linejoin="round"/>
<path d="M39.1094 22.2402H42.4694" stroke="#36435E" stroke-width="2.5" stroke-linecap="round" stroke-linejoin="round"/>
<path d="M34.1719 10.3102L36.5519 7.93018" stroke="#36435E" stroke-width="2.5" stroke-linecap="round" stroke-linejoin="round"/>
</svg>
