<svg width="42" height="38" viewBox="0 0 42 38" fill="none" xmlns="http://www.w3.org/2000/svg">
<path d="M25.4513 36.11H16.5312L18.4012 27.54H23.5813L25.4513 36.11Z" fill="white" stroke="#36435E" stroke-width="2.5" stroke-linecap="round" stroke-linejoin="round"/>
<path d="M39.98 5.57V23.97C39.98 25.95 38.38 27.54 36.4 27.54H5.58C3.6 27.54 2 25.95 2 23.97V5.57C2 3.59 3.6 2 5.58 2H36.4C38.38 2 39.98 3.59 39.98 5.57Z" fill="white" stroke="#36435E" stroke-width="2.5" stroke-linecap="round" stroke-linejoin="round"/>
<path d="M39.98 5.57V22.44H2V5.57C2 3.59 3.6 2 5.58 2H36.4C38.38 2 39.98 3.59 39.98 5.57Z" fill="#C3E0FC" stroke="#36435E" stroke-width="2.5" stroke-linecap="round" stroke-linejoin="round"/>
<path d="M13.0898 36.1099H28.8898" stroke="#36435E" stroke-width="2.5" stroke-linecap="round" stroke-linejoin="round"/>
</svg>
