<svg width="42" height="42" viewBox="0 0 42 42" fill="none" xmlns="http://www.w3.org/2000/svg">
<path d="M40.72 21.36C40.72 25.43 39.46 29.2 37.33 32.31C33.84 37.39 27.98 40.72 21.36 40.72C14.74 40.72 8.88001 37.38 5.39001 32.31C3.26001 29.2 2.00001 25.42 2.00001 21.36C1.99001 10.67 10.66 2 21.35 2C32.04 2 40.71 10.67 40.71 21.36H40.72Z" fill="#C3E0FC" stroke="#36435E" stroke-width="2.5" stroke-linecap="round" stroke-linejoin="round"/>
<path d="M21.3502 20.7101C24.6307 20.7101 27.2902 18.0506 27.2902 14.7701C27.2902 11.4895 24.6307 8.83008 21.3502 8.83008C18.0696 8.83008 15.4102 11.4895 15.4102 14.7701C15.4102 18.0506 18.0696 20.7101 21.3502 20.7101Z" fill="white" stroke="#36435E" stroke-width="2.5" stroke-linecap="round" stroke-linejoin="round"/>
<path d="M37.3306 32.3201C33.8406 37.4001 27.9806 40.7301 21.3606 40.7301C14.7406 40.7301 8.88063 37.3901 5.39062 32.3201C6.47063 28.0201 10.3506 24.8501 14.9806 24.8501H27.7406C32.3706 24.8501 36.2506 28.0201 37.3306 32.3201Z" fill="white" stroke="#36435E" stroke-width="2.5" stroke-linecap="round" stroke-linejoin="round"/>
</svg>
