<svg width="32" height="32" viewBox="0 0 32 32" fill="none" xmlns="http://www.w3.org/2000/svg">
<g clip-path="url(#clip0_9349_72183)">
<path d="M4.6544 31.4659C3.9344 31.4659 3.32182 31.2133 2.81668 30.7082C2.31154 30.203 2.05897 29.5905 2.05897 28.8705V10.5158C1.62112 10.3341 1.25769 10.0341 0.968682 9.6156C0.679664 9.19678 0.535156 8.7215 0.535156 8.18969V3.12947C0.535156 2.40693 0.787729 1.79221 1.29287 1.28528C1.79801 0.778361 2.41059 0.524902 3.13059 0.524902H28.8715C29.5941 0.524902 30.2088 0.778361 30.7157 1.28528C31.2227 1.79221 31.4761 2.40693 31.4761 3.12947V8.18969C31.4761 8.7215 31.3301 9.1964 31.038 9.61445C30.746 10.0327 30.3841 10.3332 29.9523 10.5158V28.8705C29.9523 29.5905 29.6989 30.203 29.1919 30.7082C28.685 31.2133 28.0703 31.4659 27.3477 31.4659H4.6544ZM4.6544 10.7851V28.8796H27.3568V10.7851H4.6544ZM3.13059 8.18969H28.8807V3.12947H3.13059V8.18969ZM12.545 18.4495H19.4662C19.8126 18.4495 20.1048 18.3297 20.3428 18.0903C20.581 17.8505 20.7001 17.5562 20.7001 17.2072C20.7001 16.8585 20.581 16.5671 20.3428 16.3329C20.1048 16.0987 19.8126 15.9817 19.4662 15.9817H12.545C12.1987 15.9817 11.9065 16.1015 11.6685 16.3413C11.4303 16.581 11.3111 16.8753 11.3111 17.224C11.3111 17.5729 11.4303 17.8644 11.6685 18.0986C11.9065 18.3325 12.1987 18.4495 12.545 18.4495Z" fill="white"/>
</g>
<defs>
<clipPath id="clip0_9349_72183">
<rect width="32" height="32" fill="white"/>
</clipPath>
</defs>
</svg>
