<svg id="TOP-logo" xmlns="http://www.w3.org/2000/svg" xmlns:xlink="http://www.w3.org/1999/xlink" width="109.767" height="40" viewBox="0 0 109.767 40">
  <defs>
    <clipPath id="clip-path">
      <rect id="사각형_4623" data-name="사각형 4623" width="109.767" height="40" fill="none"/>
    </clipPath>
  </defs>
  <g id="그룹_10724" data-name="그룹 10724" clip-path="url(#clip-path)">
    <path id="패스_26314" data-name="패스 26314" d="M6.18,295.667a4.261,4.261,0,0,0,2.562-.74,2.621,2.621,0,0,0,1.025-2.278,2.877,2.877,0,0,0-.683-2.008,5.943,5.943,0,0,0-1.708-1.281,23.59,23.59,0,0,0-2.235-1,12.024,12.024,0,0,1-2.235-1.139A5.793,5.793,0,0,1,1.2,285.5a5,5,0,0,1-.684-2.762,5.244,5.244,0,0,1,.6-2.62,4.942,4.942,0,0,1,1.552-1.694,6.122,6.122,0,0,1,2.121-.9,10.724,10.724,0,0,1,2.306-.256,14.528,14.528,0,0,1,1.581.1,9.434,9.434,0,0,1,1.694.342,4.837,4.837,0,0,1,1.353.626,1.153,1.153,0,0,1,.555.982,1.989,1.989,0,0,1-.071.5,1.961,1.961,0,0,1-.228.527,1.432,1.432,0,0,1-.4.427.941.941,0,0,1-.556.171,1.254,1.254,0,0,1-.6-.171q-.313-.171-.754-.37a7.521,7.521,0,0,0-1.053-.37,5.771,5.771,0,0,0-1.524-.171,4.832,4.832,0,0,0-2.562.612,2.145,2.145,0,0,0-1,1.979,2.124,2.124,0,0,0,.683,1.666A6.761,6.761,0,0,0,5.924,285.2q1.025.47,2.235.925a9.272,9.272,0,0,1,2.235,1.21,6.261,6.261,0,0,1,1.709,1.936,6.067,6.067,0,0,1,.683,3.061,6.814,6.814,0,0,1-.484,2.677,5.12,5.12,0,0,1-1.353,1.894,5.647,5.647,0,0,1-2.064,1.124,8.722,8.722,0,0,1-2.591.37,9.331,9.331,0,0,1-2.548-.327,8.4,8.4,0,0,1-1.993-.826,4.585,4.585,0,0,1-1.3-1.082A1.85,1.85,0,0,1,0,295.041a1.632,1.632,0,0,1,.1-.541,1.889,1.889,0,0,1,.285-.527,1.7,1.7,0,0,1,.427-.4.909.909,0,0,1,.5-.156,1.085,1.085,0,0,1,.741.356,11.609,11.609,0,0,0,.9.769,6.715,6.715,0,0,0,1.281.769,4.588,4.588,0,0,0,1.951.356" transform="translate(-0.001 -258.401)" fill="#00267f"/>
    <path id="패스_26315" data-name="패스 26315" d="M233.357,389.114a2.887,2.887,0,0,0-.8-2.136,2.543,2.543,0,0,0-1.851-.8,2.662,2.662,0,0,0-.982.185,2.359,2.359,0,0,0-.84.57,2.946,2.946,0,0,0-.6.94,3.314,3.314,0,0,0-.228,1.267V396.2a.861.861,0,0,1-.455.683,1.812,1.812,0,0,1-1.053.314,1.714,1.714,0,0,1-1.068-.314.87.87,0,0,1-.413-.683V384.672a.807.807,0,0,1,.413-.7,1.914,1.914,0,0,1,1.068-.271,1.634,1.634,0,0,1,.939.271.813.813,0,0,1,.4.7V385.7a4.968,4.968,0,0,1,1.41-1.5,3.96,3.96,0,0,1,2.378-.669,3.531,3.531,0,0,1,2.264.783,4.708,4.708,0,0,1,1.466,2.064,5.164,5.164,0,0,1,1.893-2.15,4.584,4.584,0,0,1,2.406-.7,4.85,4.85,0,0,1,1.865.37,4.611,4.611,0,0,1,1.581,1.082,5.315,5.315,0,0,1,1.1,1.765,6.515,6.515,0,0,1,.413,2.392V396.2a.863.863,0,0,1-.441.683,1.8,1.8,0,0,1-1.068.314,1.764,1.764,0,0,1-1.025-.314.861.861,0,0,1-.455-.683v-7.062a3.4,3.4,0,0,0-.228-1.3,2.976,2.976,0,0,0-.6-.94,2.34,2.34,0,0,0-.854-.569,2.7,2.7,0,0,0-.968-.185,2.5,2.5,0,0,0-.983.2,2.818,2.818,0,0,0-.854.569,2.678,2.678,0,0,0-.612.925,3.238,3.238,0,0,0-.228,1.239v7.147a.769.769,0,0,1-.47.741,2.353,2.353,0,0,1-1.039.228,2.317,2.317,0,0,1-1-.228.767.767,0,0,1-.484-.741Z" transform="translate(-209.752 -357.428)" fill="#00267f"/>
    <path id="패스_26316" data-name="패스 26316" d="M549.831,383.533a6.747,6.747,0,0,1,2.662.47,4.937,4.937,0,0,1,1.78,1.239,4.8,4.8,0,0,1,1,1.765,6.805,6.805,0,0,1,.313,2.05V396.2a.856.856,0,0,1-.413.7,1.727,1.727,0,0,1-1.039.3,1.566,1.566,0,0,1-.968-.3.861.861,0,0,1-.4-.7v-1a7.736,7.736,0,0,1-1.794,1.552,4.58,4.58,0,0,1-2.506.669A4.692,4.692,0,0,1,547,397.2a3.264,3.264,0,0,1-1.21-.7,3.344,3.344,0,0,1-.812-1.168,4.211,4.211,0,0,1-.3-1.666,3.774,3.774,0,0,1,.485-1.993,3.362,3.362,0,0,1,1.366-1.253,6.813,6.813,0,0,1,2.108-.641,18.2,18.2,0,0,1,2.7-.185h1.253v-.513a4.39,4.39,0,0,0-.143-1.1,2.711,2.711,0,0,0-.484-1,2.531,2.531,0,0,0-.883-.712,2.9,2.9,0,0,0-1.31-.27,5.393,5.393,0,0,0-1.281.128,4.213,4.213,0,0,0-.854.3q-.342.171-.584.3a.958.958,0,0,1-.441.128.871.871,0,0,1-.811-.5,2.089,2.089,0,0,1-.27-1.011.955.955,0,0,1,.4-.712,3.5,3.5,0,0,1,1.025-.584,7.964,7.964,0,0,1,1.381-.384,8.064,8.064,0,0,1,1.495-.142m2.762,7.716h-.712q-.826,0-1.58.071a5.145,5.145,0,0,0-1.325.285,2.29,2.29,0,0,0-.925.612,1.564,1.564,0,0,0-.356,1.082,1.737,1.737,0,0,0,.527,1.41,1.989,1.989,0,0,0,1.324.441,2.511,2.511,0,0,0,1.082-.256,4.03,4.03,0,0,0,.983-.655,3.277,3.277,0,0,0,.711-.911,2.182,2.182,0,0,0,.271-1.025Z" transform="translate(-507.604 -357.428)" fill="#00267f"/>
    <path id="패스_26317" data-name="패스 26317" d="M756.107,386.181a2.974,2.974,0,0,0-1.267.285,3.377,3.377,0,0,0-1.1.826,4.221,4.221,0,0,0-.783,1.324,4.892,4.892,0,0,0-.3,1.751V396.2a.864.864,0,0,1-.441.683,1.844,1.844,0,0,1-1.1.313,1.653,1.653,0,0,1-1.053-.313.876.876,0,0,1-.4-.683V384.672a.812.812,0,0,1,.4-.7,1.843,1.843,0,0,1,1.053-.271,1.683,1.683,0,0,1,.968.271.813.813,0,0,1,.4.7v1.253a4.627,4.627,0,0,1,1.41-1.652,4.081,4.081,0,0,1,1.025-.541,3.479,3.479,0,0,1,1.182-.2h.911a1.039,1.039,0,0,1,.8.384,1.347,1.347,0,0,1,.342.925,1.384,1.384,0,0,1-.342.954,1.039,1.039,0,0,1-.8.384Z" transform="translate(-698.647 -357.428)" fill="#00267f"/>
    <path id="패스_26318" data-name="패스 26318" d="M902.836,310.5a1.968,1.968,0,0,0,.441,1.452,2.216,2.216,0,0,0,1.552.427h1a1.156,1.156,0,0,1,.968.4,1.4,1.4,0,0,1,0,1.765,1.155,1.155,0,0,1-.968.4h-1a5.685,5.685,0,0,1-3.716-1.053,4.165,4.165,0,0,1-1.268-3.389V296.231a.8.8,0,0,1,.47-.7,1.992,1.992,0,0,1,1.011-.27,2.048,2.048,0,0,1,1.039.27.8.8,0,0,1,.47.7v5.211h3.474a.681.681,0,0,1,.612.342,1.49,1.49,0,0,1,0,1.538.681.681,0,0,1-.612.342h-3.474Z" transform="translate(-838.599 -275.166)" fill="#00267f"/>
    <path id="패스_26319" data-name="패스 26319" d="M1043.149,268.069a2.007,2.007,0,0,1,1.068.27.8.8,0,0,1,.441.7V288.6a.863.863,0,0,1-.441.683,1.8,1.8,0,0,1-1.068.314,1.715,1.715,0,0,1-1.068-.314.872.872,0,0,1-.413-.683V269.037a.809.809,0,0,1,.413-.7,1.915,1.915,0,0,1,1.068-.27" transform="translate(-970.768 -249.823)" fill="#00267f"/>
    <path id="패스_26320" data-name="패스 26320" d="M1133.345,290.239a1.769,1.769,0,0,1,1.239.456,1.471,1.471,0,0,1,0,2.207,1.867,1.867,0,0,1-2.477,0,1.47,1.47,0,0,1,0-2.207,1.766,1.766,0,0,1,1.239-.456m0,6.521a1.989,1.989,0,0,1,1.082.271.8.8,0,0,1,.427.7V309.26a.868.868,0,0,1-.427.683,1.78,1.78,0,0,1-1.082.313,1.714,1.714,0,0,1-1.068-.313.87.87,0,0,1-.413-.683V297.728a.807.807,0,0,1,.413-.7,1.914,1.914,0,0,1,1.068-.271" transform="translate(-1054.586 -270.484)" fill="#0099db"/>
    <path id="패스_26321" data-name="패스 26321" d="M1228.309,396.2a.86.86,0,0,1-.456.683,1.813,1.813,0,0,1-1.053.313,1.715,1.715,0,0,1-1.068-.313.87.87,0,0,1-.413-.683V384.672a.807.807,0,0,1,.413-.7,1.914,1.914,0,0,1,1.068-.271,1.615,1.615,0,0,1,.953.271.82.82,0,0,1,.385.7V385.7a4.213,4.213,0,0,1,1.4-1.5,4.158,4.158,0,0,1,2.42-.669,4.237,4.237,0,0,1,1.894.441,5.141,5.141,0,0,1,1.58,1.21,5.99,5.99,0,0,1,1.48,3.958V396.2a.8.8,0,0,1-.47.741,2.132,2.132,0,0,1-1.039.256,2.1,2.1,0,0,1-1-.256.8.8,0,0,1-.484-.741v-7.062a2.768,2.768,0,0,0-.228-1.082,3.233,3.233,0,0,0-.612-.954,3.053,3.053,0,0,0-.911-.669,2.538,2.538,0,0,0-1.125-.256,2.713,2.713,0,0,0-1.011.2,2.606,2.606,0,0,0-.883.584,2.828,2.828,0,0,0-.612.94,3.234,3.234,0,0,0-.228,1.239Z" transform="translate(-1141.92 -357.428)" fill="#00267f"/>
    <path id="패스_26322" data-name="패스 26322" d="M1447.432,281.311l4.471,6.435a.923.923,0,0,1,.171.513,1.056,1.056,0,0,1-.157.526,1.8,1.8,0,0,1-.413.484,2.615,2.615,0,0,1-.556.356,1.3,1.3,0,0,1-.555.143.906.906,0,0,1-.8-.427l-4.186-6.179-2.078,1.879V288.6a.863.863,0,0,1-.442.683,1.842,1.842,0,0,1-1.1.313,1.654,1.654,0,0,1-1.053-.313.877.877,0,0,1-.4-.683V269.038a.814.814,0,0,1,.4-.7,1.845,1.845,0,0,1,1.053-.27,2.063,2.063,0,0,1,1.1.27.8.8,0,0,1,.442.7v12.671l5.951-5.467a.852.852,0,0,1,.626-.256,1.141,1.141,0,0,1,.513.128,2.007,2.007,0,0,1,.47.328,1.6,1.6,0,0,1,.341.455,1.131,1.131,0,0,1,.128.513.851.851,0,0,1-.256.626Z" transform="translate(-1342.307 -249.824)" fill="#00267f"/>
    <path id="패스_26323" data-name="패스 26323" d="M1122.145,5.541a5.665,5.665,0,0,0-3.626,1.465l-2.495-1.934a3.444,3.444,0,1,0-1.118,1.216l2.562,1.986a5.665,5.665,0,0,0,.211,6.239l-3.886,4.638a2.6,2.6,0,1,0,1.325.982l3.7-4.42a5.692,5.692,0,1,0,3.324-10.172m-10.909-2.054a1.784,1.784,0,1,1,1.839,1.726,1.786,1.786,0,0,1-1.839-1.726m11.22,11.79a4.047,4.047,0,1,1,3.916-4.174,4.052,4.052,0,0,1-3.916,4.174" transform="translate(-1034.067 0)" fill="#0099db"/>
  </g>
</svg>
