<svg xmlns="http://www.w3.org/2000/svg" viewBox="0 0 302.05 302.05"><defs><style>.cls-1{fill:#fff;stroke:#cecece;stroke-miterlimit:10;stroke-width:2.05px;}.cls-2{fill:#03c75a;}.cls-3{fill:#028c3a;}.cls-4{fill:#87e418;}.cls-5{fill:#7ee6a4;}</style></defs><g id="Layer_2" data-name="Layer 2"><g id="Layer_1-2" data-name="Layer 1"><rect class="cls-1" x="1.02" y="1.02" width="300" height="300" rx="64.44"/><path class="cls-2" d="M119.8,49.4,108.72,77.65h9.41l1.34-3.74h10.62l1.34,3.74h9.41L129.77,49.4Zm1.82,17.72,3.16-8.82,3.16,8.82Z"/><polygon class="cls-2" points="180.03 66.92 192.91 66.92 192.91 60.13 180.03 60.13 180.03 56.32 193.05 56.32 193.05 49.4 171.03 49.4 171.03 77.65 193.33 77.65 193.33 70.72 180.03 70.72 180.03 66.92"/><polygon class="cls-2" points="152.06 67.97 145.41 49.4 136 49.4 147.08 77.65 157.05 77.65 168.12 49.4 158.71 49.4 152.06 67.97"/><polygon class="cls-2" points="96.67 64.52 86.15 49.4 77.42 49.4 77.42 77.65 86.56 77.65 86.56 62.53 97.09 77.65 105.81 77.65 105.81 49.4 96.67 49.4 96.67 64.52"/><path class="cls-2" d="M218.34,67.6c3.28-1.38,4.95-4.35,4.95-8.12,0-3.57-1.3-6.21-3.87-7.85-2.38-1.52-5.48-2.23-9.74-2.23H197.76V77.65h8.86v-7.9h3.19l5.4,7.9h9.41L217.48,68Zm-7-5h-4.85V56.6h4.85a3,3,0,1,1,0,5.95Z"/><path class="cls-3" d="M95.56,253.52h31a3.62,3.62,0,0,0,3.48-2.61L170,113.16a3.62,3.62,0,0,0-3.48-4.64h-31a3.63,3.63,0,0,0-3.48,2.62L92.08,248.89A3.62,3.62,0,0,0,95.56,253.52Z"/><path class="cls-4" d="M178.94,253.52h31a3.6,3.6,0,0,0,3.48-2.61l39.95-137.75a3.63,3.63,0,0,0-3.48-4.64h-31a3.63,3.63,0,0,0-3.48,2.62L175.46,248.89A3.62,3.62,0,0,0,178.94,253.52Z"/><path class="cls-5" d="M126.59,253.52H92.08a3.62,3.62,0,0,1-3.48-2.61L48.65,113.16a3.63,3.63,0,0,1,3.48-4.64H86.64a3.63,3.63,0,0,1,3.48,2.62l39.95,137.75A3.62,3.62,0,0,1,126.59,253.52Z"/><path class="cls-2" d="M210,253.52h-34.5a3.62,3.62,0,0,1-3.48-2.61L132,113.16a3.63,3.63,0,0,1,3.48-4.64H170a3.63,3.63,0,0,1,3.48,2.62l39.94,137.75A3.61,3.61,0,0,1,210,253.52Z"/></g></g></svg>