<svg width="211" height="19" viewBox="0 0 211 19" fill="none" xmlns="http://www.w3.org/2000/svg">
<g clip-path="url(#clip0_16962_182107)">
<path d="M185.183 9.42169H189.012V10.7517C189.012 12.8498 187.784 14.5653 185.384 14.5653C182.984 14.5653 181.756 12.8498 181.756 10.7517V8.62912C181.756 6.53097 182.984 4.80469 185.384 4.80469C187.511 4.80469 188.728 6.15912 188.964 7.94512H187.736C187.511 6.68569 186.719 5.90669 185.384 5.90669C183.824 5.90669 182.915 6.9734 182.915 8.62912V10.7517C182.915 12.3938 183.838 13.4605 185.384 13.4605C186.93 13.4605 187.853 12.3938 187.853 10.7517V10.5237H185.183V9.42169Z" fill="#202936"/>
<path d="M190.398 8.62912C190.398 6.53097 191.626 4.80469 194.025 4.80469C196.425 4.80469 197.653 6.52012 197.653 8.62912V10.7517C197.653 12.8498 196.425 14.5653 194.025 14.5653C191.626 14.5653 190.398 12.8498 190.398 10.7517V8.62912ZM196.495 8.62912C196.495 6.9734 195.585 5.90669 194.025 5.90669C192.466 5.90669 191.556 6.9734 191.556 8.62912V10.7517C191.556 12.3938 192.479 13.4605 194.025 13.4605C195.572 13.4605 196.495 12.3938 196.495 10.7517V8.62912Z" fill="#202936"/>
<path d="M202.276 12.9219L204.817 4.96094H206.035L202.926 14.4094H201.602L198.493 4.96094H199.71L202.252 12.9219H202.276Z" fill="#202936"/>
<path d="M208.4 18.0403H179.389C177.955 18.0403 176.788 16.8569 176.788 15.402V3.9586C176.788 2.50374 177.955 1.32031 179.389 1.32031H208.4C209.834 1.32031 211 2.50374 211 3.9586V15.4047C211 16.8596 209.834 18.043 208.4 18.043V18.0403ZM179.389 2.2866C178.482 2.2866 177.743 3.03574 177.743 3.95588V15.402C177.743 16.3222 178.482 17.0713 179.389 17.0713H208.4C209.307 17.0713 210.045 16.3222 210.045 15.402V3.9586C210.045 3.03846 209.307 2.28931 208.4 2.28931H179.389V2.2866Z" fill="#202936"/>
<path d="M97.7524 6.71941C97.7524 4.36069 96.1258 2.43355 94.0845 2.32769V2.32227H86.9121V17.0364H89.7452V11.1166H91.5002L94.5875 17.0364H97.7524L94.6249 11.0378C96.4067 10.6524 97.7524 8.86641 97.7524 6.71941ZM93.4451 8.36698H89.7452V5.07455H93.4451C94.2236 5.07455 94.855 5.81012 94.855 6.71941C94.855 7.62869 94.2236 8.36427 93.4451 8.36427V8.36698Z" fill="#202936"/>
<path d="M36.9056 6.86055V17.0364H34.0537V2.32227H37.4942L42.8314 12.5551V2.32227H45.6832V17.0364H42.2053L36.9056 6.86055Z" fill="#202936"/>
<path d="M51.5073 14.048L50.587 17.0364H47.588L52.2805 2.32227H56.0714L60.7638 17.0364H57.7648L56.8445 14.048H51.5073ZM54.1746 5.06641L52.3527 11.2848H55.9965L54.1746 5.06641Z" fill="#202936"/>
<path d="M72.6475 2.32227L67.955 17.0364H64.2551L59.5626 2.32227H62.4707L66.0957 13.7494L69.7394 2.32227H72.6475Z" fill="#202936"/>
<path d="M84.7023 14.2733V17.0364H74.4881V2.32227H84.7023V5.08541H77.3212V7.82955H83.3406V10.5927H77.3212V14.2706H84.7023V14.2733Z" fill="#202936"/>
<path d="M117.311 2.32227L116.124 9.65355C115.182 7.37084 113.676 6.11412 111.659 6.11412C109.641 6.11412 108.138 7.37084 107.193 9.65355L106.006 2.32227H103.039L105.735 17.0364H108.544C108.544 12.2131 109.714 8.97769 111.659 8.97769C113.603 8.97769 114.773 12.2131 114.773 17.0364H117.582L120.278 2.32227H117.311Z" fill="#202936"/>
<path d="M121.672 8.40784C121.672 4.89827 123.422 2.07812 127.507 2.07812C131.592 2.07812 133.342 4.89827 133.342 8.40784V10.9647C133.342 14.4553 131.592 17.2754 127.507 17.2754C123.422 17.2754 121.672 14.4553 121.672 10.9647V8.40784ZM130.45 8.51913C130.45 6.18484 129.677 4.84127 127.504 4.84127C125.332 4.84127 124.559 6.18484 124.559 8.51913V10.8534C124.559 13.1687 125.332 14.5123 127.504 14.5123C129.677 14.5123 130.45 13.1687 130.45 10.8534V8.51913Z" fill="#202936"/>
<path d="M146.461 6.71941C146.461 4.36069 144.835 2.43355 142.794 2.32769V2.32227H135.621V17.0364H138.454V11.1166H140.209L143.296 17.0364H146.461L143.334 11.0378C145.116 10.6524 146.461 8.86641 146.461 6.71941ZM142.154 8.36698H138.454V5.07455H142.154C142.933 5.07455 143.564 5.81012 143.564 6.71941C143.564 7.62869 142.933 8.36427 142.154 8.36427V8.36698Z" fill="#202936"/>
<path d="M165.764 17.2808C162.072 17.2808 160.29 15.0768 160.29 12.406H163.284C163.34 13.9558 164.477 14.515 165.764 14.515C167.436 14.515 168.078 13.7496 168.078 13.0031C168.078 12.1807 167.564 11.7518 166.424 11.342L164.11 10.5006C161.593 9.58584 160.729 8.35355 160.713 6.31784C160.694 3.91027 162.457 2.07812 165.635 2.07812C169.346 2.07812 170.871 4.4857 170.871 6.7847H167.877C167.711 5.36513 166.884 4.84398 165.635 4.84398C164.295 4.84398 163.597 5.49813 163.597 6.31784C163.597 7.21355 164.257 7.49313 165.691 8.01698L167.858 8.80141C170.007 9.58584 170.964 11.0054 170.964 12.9461C170.964 15.4107 169.073 17.2781 165.766 17.2781L165.764 17.2808Z" fill="#202936"/>
<path d="M159.659 2.32227H156.365L152.703 8.24212H151.651V2.32227H148.818V17.0364H151.651V11.1193H152.703L156.553 17.0364H159.846L155.062 9.68069L159.659 2.32227Z" fill="#202936"/>
<path d="M16.8089 19H21.3515C21.5762 19 21.7742 18.8426 21.8277 18.62L26.1082 0.594429C26.1804 0.290429 25.9557 0 25.648 0H20.581C20.3563 0 20.1637 0.160143 20.1155 0.382714L16.33 18.4029C16.2658 18.7123 16.4958 19.0027 16.8089 19.0027V19Z" fill="url(#paint0_linear_16962_182107)"/>
<path opacity="0.25" d="M16.3353 18.5359L20.1208 0.515714C20.1663 0.293143 20.3616 0.133 20.5863 0.133H25.6533C25.8968 0.133 26.0867 0.317571 26.1215 0.545571C26.159 0.260571 25.9449 0 25.6533 0H20.5863C20.3616 0 20.169 0.160143 20.1208 0.382714L16.3353 18.4029C16.3219 18.4599 16.3246 18.5169 16.3326 18.5739C16.3326 18.563 16.3326 18.5494 16.3353 18.5386V18.5359Z" fill="white"/>
<path d="M20.07 9.06855C18.0127 4.50041 14.7944 3.81641 13.0581 3.81641C11.3218 3.81641 8.10345 4.49769 6.04616 9.06855C4.94394 11.5195 4.33665 14.7577 4.28314 18.4654C4.27779 18.7585 4.51054 19.0001 4.79947 19.0001H9.29931C9.58021 19.0001 9.81029 18.7721 9.81564 18.4871C9.86379 15.6154 10.3079 13.1128 11.0784 11.4001C11.6669 10.0918 12.3358 9.42683 13.0608 9.42683C13.7858 9.42683 14.4546 10.0918 15.0432 11.4001C15.819 13.121 16.2631 15.6398 16.3059 18.5278C16.3086 18.7884 16.5226 19.0001 16.7794 19.0001H21.3595C21.6244 19.0001 21.8384 18.783 21.8357 18.5143C21.7876 14.7875 21.1803 11.5277 20.0727 9.06855H20.07Z" fill="url(#paint1_linear_16962_182107)"/>
<path opacity="0.4" d="M6.04617 9.20936C8.10347 4.64122 11.3218 3.95722 13.0581 3.95722C14.7944 3.95722 18.0127 4.6385 20.07 9.20936C21.1669 11.6468 21.7742 14.8659 21.8331 18.5492C21.8331 18.5411 21.8331 18.5302 21.8331 18.5221C21.7849 14.7954 21.1776 11.5355 20.07 9.07636C18.0127 4.50822 14.7944 3.82422 13.0581 3.82422C11.3218 3.82422 8.10347 4.5055 6.04617 9.07636C4.94395 11.5274 4.33666 14.7655 4.28316 18.4732C4.28316 18.4841 4.28316 18.4922 4.28316 18.5031C4.34736 14.8388 4.95198 11.6386 6.0435 9.20936H6.04617Z" fill="white"/>
<path d="M9.33114 19H4.76175C4.54238 19 4.35243 18.848 4.29893 18.6309L0.0131135 0.594429C-0.0591193 0.290429 0.16828 0 0.475938 0H5.54293C5.76766 0 5.96028 0.160143 6.00843 0.382714L9.79664 18.4191C9.86085 18.7177 9.63345 19.0027 9.33114 19.0027V19Z" fill="url(#paint2_linear_16962_182107)"/>
<path opacity="0.5" d="M0.470821 0.133H5.53782C5.76254 0.133 5.95516 0.293143 6.00332 0.515714L9.79153 18.5521C9.79153 18.5521 9.79153 18.5739 9.7942 18.5847C9.80223 18.5304 9.80223 18.4761 9.79153 18.4164L6.00332 0.382714C5.95516 0.160143 5.76254 0 5.53782 0H0.470821C0.18189 0 -0.0348083 0.260571 0.00532104 0.545571C0.0374245 0.320286 0.22737 0.133 0.470821 0.133Z" fill="white"/>
</g>
<defs>
<linearGradient id="paint0_linear_16962_182107" x1="16.6216" y1="18.962" x2="25.6208" y2="-0.0631003" gradientUnits="userSpaceOnUse">
<stop stop-color="#0563EA"/>
<stop offset="1" stop-color="#6040FF"/>
</linearGradient>
<linearGradient id="paint1_linear_16962_182107" x1="4.28314" y1="11.4083" x2="21.8357" y2="11.4083" gradientUnits="userSpaceOnUse">
<stop stop-color="#00BDFF"/>
<stop offset="1" stop-color="#0092FF"/>
</linearGradient>
<linearGradient id="paint2_linear_16962_182107" x1="0.711364" y1="-0.162857" x2="9.71332" y2="18.8676" gradientUnits="userSpaceOnUse">
<stop stop-color="#00E255"/>
<stop offset="1" stop-color="#00CE62"/>
</linearGradient>
<clipPath id="clip0_16962_182107">
<rect width="211" height="19" fill="white"/>
</clipPath>
</defs>
</svg>
