<svg id="Layer_2" data-name="Layer 2" xmlns="http://www.w3.org/2000/svg" viewBox="0 0 220 23"><defs><style>.cls-1{fill:#231f20;}.cls-2{fill:#ec1c24;}.cls-3{fill:#4d4d4f;}</style></defs><title>kt_logo_bk</title><path class="cls-1" d="M8.85,13.87,15.23,6H11.75a4.27,4.27,0,0,0-3.58,1.6L4.81,11.73V.3H1.44A1.44,1.44,0,0,0,0,1.75V23.07H3.37a1.44,1.44,0,0,0,1.44-1.45V15.95l2.73,3.38L9.86,22.2a2.17,2.17,0,0,0,1.72.87h4.7l-3-3.76ZM23.59,19a1.3,1.3,0,0,1-1.29-1.3V.3H18.93a1.44,1.44,0,0,0-1.44,1.45V18.65a4.2,4.2,0,0,0,4.39,4.42h3.7A1.44,1.44,0,0,0,27,21.62V19Z" transform="translate(0 -0.3)"/><path class="cls-2" d="M5.27,11.15h0ZM27.72,7.92V4.71l-.3.32S26.51,6,23.92,6H11.66A4.07,4.07,0,0,0,8.12,7.61l-.38.47,0,0-2.43,3a5.61,5.61,0,0,1,3.33-1.08H23.92c1.86,0,3.64-.55,3.79-1.95A1,1,0,0,0,27.72,7.92Z" transform="translate(0 -0.3)"/><path class="cls-3" d="M51.48,7.36c0-2.37.16-3.14,1-3.14h2.93a8.26,8.26,0,0,0-.39,3V22.33c0,.5-.24.74-.76.74H51.48Z" transform="translate(0 -0.3)"/><path class="cls-3" d="M43.78,5.2c-.26-.79-.47-1-1.28-1H40.36c-.84,0-1,.18-1.34,1L33.47,23.07h2.77a1,1,0,0,0,.84-.82l1.08-3.61h6.46l1,3.47c.24.84.76.95,1.73.95h2ZM41.43,7.7l2.28,7.83H39.09Z" transform="translate(0 -0.3)"/><path class="cls-3" d="M63.29,14.33c0-4.82,2.15-8.82,7.6-8.82a7.66,7.66,0,0,0,3.19-.42V6.85c0,.72-.72.89-3.14.89-3.21,0-5.13,2.26-5.13,6.54,0,4.67,1.68,6.78,4.72,6.78a10.64,10.64,0,0,0,3.88-.65V22a.79.79,0,0,1-.54.8,11.05,11.05,0,0,1-3.36.55C65.31,23.3,63.29,20.12,63.29,14.33Z" transform="translate(0 -0.3)"/><path class="cls-3" d="M76.35,16.59c0-4.77,2-6.76,5.51-6.76s5.53,2,5.53,6.76-2,6.71-5.53,6.71S76.35,21.36,76.35,16.59Zm8.62,0c0-3.38-1.09-4.6-3.11-4.6s-3.09,1.22-3.09,4.6,1.09,4.55,3.09,4.55S85,19.95,85,16.59Z" transform="translate(0 -0.3)"/><path class="cls-3" d="M90.3,10.65c0-.42.2-.62.59-.62h1.78v.82a6.47,6.47,0,0,1,3.36-1c2.57,0,4.2,1.27,4.2,4.35V22.5a.48.48,0,0,1-.54.55H97.85V14.68c0-1.81-.64-2.68-2.07-2.68a5.9,5.9,0,0,0-3.11,1v9.44c0,.35-.2.57-.62.57H90.3Z" transform="translate(0 -0.3)"/><path class="cls-3" d="M104.42,19.67V12.14h-1.93V10.65a.54.54,0,0,1,.62-.62h1.31V7.45c0-.42.17-.62.59-.62h1.78V10h1.6a4.46,4.46,0,0,0,1.95-.32V11.2c0,.77-.94.94-2.07.94h-1.48v7.08c0,1.34.42,1.94,1.7,1.94a5,5,0,0,0,2-.35v1.44a.73.73,0,0,1-.57.75,5.8,5.8,0,0,1-2,.3C105.73,23.3,104.42,22.36,104.42,19.67Z" transform="translate(0 -0.3)"/><path class="cls-3" d="M111.9,19.52c0-3.33,2.72-4.25,5.75-4.32.39,0,1.06,0,1.56,0v-.87c0-1.86-.84-2.39-2.59-2.39a11.12,11.12,0,0,0-3.06.5c-.39.1-.64,0-.64-.4V10.53a11.87,11.87,0,0,1,4.15-.7c2.52,0,4.47.92,4.47,4.22v6.31c0,.65.17.87.59.87a1.84,1.84,0,0,0,.64-.1v1.14c0,.65-.64,1-1.51,1A2,2,0,0,1,119.33,22a4.88,4.88,0,0,1-3.43,1.32C113.63,23.3,111.9,22,111.9,19.52Zm7.31.75V16.94c-.44,0-1.06,0-1.41,0-2.79.07-3.6,1-3.6,2.46,0,1.17.84,1.76,2.2,1.76A4.57,4.57,0,0,0,119.21,20.27Z" transform="translate(0 -0.3)"/><path class="cls-3" d="M124.71,16.62c0-4.52,2.54-6.59,6.1-6.59a7.66,7.66,0,0,0,2.74-.32v1.74c0,.52-.86.75-2.59.75-2.54,0-3.85,1.42-3.85,4.42s1.31,4.52,3.43,4.52a7.91,7.91,0,0,0,3.38-.65V22a.79.79,0,0,1-.54.8,7.81,7.81,0,0,1-2.79.47C126.51,23.3,124.71,20.89,124.71,16.62Z" transform="translate(0 -0.3)"/><path class="cls-3" d="M137.1,19.67V12.14h-1.93V10.65a.54.54,0,0,1,.62-.62h1.31V7.45c0-.42.17-.62.59-.62h1.78V10h1.6a4.46,4.46,0,0,0,2-.32V11.2c0,.77-.94.94-2.07.94h-1.48v7.08c0,1.34.42,1.94,1.7,1.94a5,5,0,0,0,2-.35v1.44a.73.73,0,0,1-.57.75,5.8,5.8,0,0,1-2,.3C138.41,23.3,137.1,22.36,137.1,19.67Z" transform="translate(0 -0.3)"/><path class="cls-3" d="M151.69,14.33c0-4.82,2.15-8.82,7.6-8.82a7.65,7.65,0,0,0,3.18-.42V6.85c0,.72-.72.89-3.14.89-3.21,0-5.13,2.26-5.13,6.54,0,4.67,1.68,6.78,4.72,6.78a10.63,10.63,0,0,0,3.88-.65V22a.79.79,0,0,1-.54.8,11.05,11.05,0,0,1-3.36.55C153.72,23.3,151.69,20.12,151.69,14.33Z" transform="translate(0 -0.3)"/><path class="cls-3" d="M164.75,16.54c0-4.05,1.63-6.71,5.46-6.71s5,2.61,5,5.47v.94c0,1-.42,1.29-1.28,1.29H167.1c0,2.53,1.36,3.68,3.56,3.68a9.14,9.14,0,0,0,4.07-.94v1.47a.88.88,0,0,1-.52.82,8.79,8.79,0,0,1-3.73.75C166.58,23.3,164.75,21,164.75,16.54Zm8.15-1v-.47c0-2.06-1-3.16-2.79-3.16s-3,1.37-3,3.63Z" transform="translate(0 -0.3)"/><path class="cls-3" d="M178.06,10.65c0-.42.2-.62.59-.62h1.78v.82a6.47,6.47,0,0,1,3.36-1c2.57,0,4.2,1.27,4.2,4.35V22.5a.48.48,0,0,1-.54.55h-1.83V14.68c0-1.81-.64-2.68-2.07-2.68a5.9,5.9,0,0,0-3.11,1v9.44c0,.35-.2.57-.62.57h-1.75Z" transform="translate(0 -0.3)"/><path class="cls-3" d="M192.18,19.67V12.14h-1.93V10.65a.54.54,0,0,1,.62-.62h1.31V7.45c0-.42.17-.62.59-.62h1.78V10h1.6a4.46,4.46,0,0,0,2-.32V11.2c0,.77-.94.94-2.07.94h-1.48v7.08c0,1.34.42,1.94,1.7,1.94a5,5,0,0,0,2-.35v1.44a.73.73,0,0,1-.57.75,5.8,5.8,0,0,1-2,.3C193.49,23.3,192.18,22.36,192.18,19.67Z" transform="translate(0 -0.3)"/><path class="cls-3" d="M199.76,16.54c0-4.05,1.63-6.71,5.46-6.71s5,2.61,5,5.47v.94c0,1-.42,1.29-1.28,1.29H202.1c0,2.53,1.36,3.68,3.55,3.68a9.14,9.14,0,0,0,4.07-.94v1.47a.87.87,0,0,1-.52.82,8.79,8.79,0,0,1-3.73.75C201.58,23.3,199.76,21,199.76,16.54Zm8.15-1v-.47c0-2.06-1-3.16-2.79-3.16s-3,1.37-3,3.63Z" transform="translate(0 -0.3)"/><path class="cls-3" d="M213.06,10.65c0-.42.2-.62.59-.62h1.78v1.32a4.14,4.14,0,0,1,2.47-1.24,9,9,0,0,0,2.1-.4v1.74c0,.55-.67.67-1.93.82a3.81,3.81,0,0,0-2.64,1.24v9c0,.37-.2.57-.62.57h-1.75Z" transform="translate(0 -0.3)"/></svg>