<svg id="Layer_1" data-name="Layer 1" xmlns="http://www.w3.org/2000/svg" viewBox="0 0 333.6 127.94"><defs><style>.cls-1{fill:#4d4e51;}.cls-2{fill:#0af;}</style></defs><title>logo_svg</title><path class="cls-1" d="M3.85,80.19a41.37,41.37,0,0,0,18.24,5.09c6.42,0,9.16-2.16,9.16-5.65s-2.18-5.26-10-7.91C7,67,1.63,59.3,1.72,51.27c0-12.85,10.84-22.5,27.82-22.5,8,0,15.08,1.88,19.27,4L45.1,47.41a34.85,34.85,0,0,0-14.82-3.86c-5.19,0-8.16,2.07-8.16,5.51,0,3.28,2.71,5,11.1,7.9C46.19,61.37,51.63,68,51.71,78c0,12.76-10,22.17-29.56,22.17-8.92,0-16.93-2-22.15-4.81Z"/><path class="cls-1" d="M129.22,30.31c-.32,4.42-.59,10.2-.59,20.39V88.78c0,13.14-2.65,23.9-10.4,30.76-7.49,6.5-17.67,8.4-27.73,8.4-9,0-18.47-1.85-24.59-5.24l4.22-16.12a42.25,42.25,0,0,0,19.81,5.12c10.06,0,17.75-5.37,17.75-18v-4.4h-.28c-4,5.6-10.58,8.83-18.46,8.83C72.08,98.12,60,84.4,60,64.82c0-22.07,14.21-36,31-36,9.4,0,15.27,4.09,18.74,9.72H110l.72-8.18ZM107.36,58.19a16.39,16.39,0,0,0-.43-3.93c-1.47-5.63-5.53-9.42-11.44-9.42-7.74,0-13.91,7.07-13.91,19.47,0,10.19,5,18.16,13.88,18.16a11.64,11.64,0,0,0,11.29-8.59,22.47,22.47,0,0,0,.61-5.63Z"/><path class="cls-1" d="M246.29,10.8V30.31H261.6V46H246.29V70.79c0,8.25,2,12.05,8.39,12.05A28,28,0,0,0,261,82.2l.17,16.16a44.89,44.89,0,0,1-13.78,1.83c-6.88,0-12.61-2.39-16-5.94-3.95-4.05-5.88-10.56-5.88-20.28V46H216.4V30.31h9.09V15.61Z"/><path class="cls-1" d="M288.86,71.36c.63,8.83,9.36,13,19.28,13A57,57,0,0,0,327,81.48l2.87,14.39c-7.08,2.88-15.61,4.32-24.79,4.32-23.17,0-36.48-13.5-36.48-34.81,0-17.38,10.84-36.6,34.48-36.6,22.17,0,30.55,17.24,30.55,34.16a40.83,40.83,0,0,1-.76,8.42Zm25-14.57c0-5.12-2.25-13.87-11.93-13.87-9,0-12.62,8.21-13.21,13.87Z"/><path class="cls-2" d="M189.42,11.6A11.6,11.6,0,1,1,177.82,0a11.6,11.6,0,0,1,11.6,11.6"/><polygon class="cls-2" points="176.93 47.65 176.66 47.65 158.75 99.71 138.7 99.71 164.87 30.48 190.24 30.48 216.94 99.71 196.05 99.71 176.93 47.65"/></svg>