<svg width="37" height="37" viewBox="0 0 37 37" fill="none" xmlns="http://www.w3.org/2000/svg">
<path d="M9.099 25.611L15.199 19.511L19.199 23.511L26.799 15.961V19.811H29.799V10.811H20.799V13.811H24.649L19.199 19.261L15.199 15.261L6.999 23.511L9.099 25.611ZM3.4065 36.61C2.4865 36.61 1.68883 36.2722 1.0135 35.5965C0.337833 34.9212 0 34.1235 0 33.2035V3.4185C0 2.49517 0.337833 1.69466 1.0135 1.017C1.68883 0.338998 2.4865 0 3.4065 0H33.1915C34.1148 0 34.9153 0.338998 35.593 1.017C36.271 1.69466 36.61 2.49517 36.61 3.4185V33.2035C36.61 34.1235 36.271 34.9212 35.593 35.5965C34.9153 36.2722 34.1148 36.61 33.1915 36.61H3.4065ZM3.4065 33.2035H33.1915V3.4185H3.4065V33.2035Z" fill="white"/>
</svg>
