<svg width="33" height="41" viewBox="0 0 33 41" fill="none" xmlns="http://www.w3.org/2000/svg">
<path d="M16.299 21.9445C14.3403 21.9445 12.6972 21.2803 11.3695 19.952C10.0415 18.6233 9.3775 16.9823 9.3775 15.029C9.3775 13.0757 10.0415 11.4327 11.3695 10.1C12.6972 8.76733 14.3403 8.101 16.299 8.101C18.2577 8.101 19.9008 8.76733 21.2285 10.1C22.5565 11.4327 23.2205 13.0757 23.2205 15.029C23.2205 16.9823 22.5565 18.6233 21.2285 19.952C19.9008 21.2803 18.2577 21.9445 16.299 21.9445ZM16.299 18.801C17.4073 18.801 18.3142 18.4507 19.0195 17.75C19.7248 17.0493 20.0775 16.1423 20.0775 15.029C20.0775 13.9157 19.7248 13.0067 19.0195 12.302C18.3142 11.597 17.4073 11.2445 16.299 11.2445C15.1907 11.2445 14.2838 11.597 13.5785 12.302C12.8732 13.0067 12.5205 13.9157 12.5205 15.029C12.5205 16.1423 12.8732 17.0493 13.5785 17.75C14.2838 18.4507 15.1907 18.801 16.299 18.801ZM16.298 40.622C11.545 39.433 7.6405 36.6852 4.5845 32.3785C1.52817 28.0718 0 23.3507 0 18.215V6.102L16.299 0L32.61 6.1025V18.211C32.61 23.3477 31.0797 28.0697 28.019 32.377C24.9583 36.6847 21.0513 39.433 16.298 40.622ZM16.299 3.6305L3.4065 8.4995V18.203C3.4065 20.2843 3.694 22.2742 4.269 24.1725C4.84367 26.0705 5.66083 27.8228 6.7205 29.4295C8.24617 28.6122 9.795 27.9992 11.367 27.5905C12.9393 27.1818 14.5828 26.9775 16.2975 26.9775C18.0122 26.9775 19.6562 27.1818 21.2295 27.5905C22.8025 27.9992 24.3502 28.6122 25.8725 29.4295C26.9345 27.8202 27.7532 26.067 28.3285 24.17C28.9038 22.2733 29.1915 20.2843 29.1915 18.203V8.4995L16.299 3.6305ZM16.2995 30.109C15.0072 30.109 13.7308 30.2697 12.4705 30.591C11.2105 30.9123 9.95917 31.3943 8.7165 32.037C9.76717 33.1797 10.9265 34.1848 12.1945 35.0525C13.4628 35.9198 14.831 36.6075 16.299 37.1155C17.767 36.6075 19.1352 35.9198 20.4035 35.0525C21.6715 34.1848 22.8308 33.1797 23.8815 32.037C22.6388 31.3943 21.3875 30.9123 20.1275 30.591C18.8675 30.2697 17.5915 30.109 16.2995 30.109Z" fill="white"/>
</svg>
