<svg width="37" height="41" viewBox="0 0 37 41" fill="none" xmlns="http://www.w3.org/2000/svg">
<path d="M16.239 40.622C11.5167 39.4313 7.62967 36.683 4.578 32.377C1.526 28.0707 0 23.35 0 18.215V6.102L16.299 0L32.61 6.1025V18.211C32.61 18.893 32.5747 19.5768 32.504 20.2625C32.4333 20.9485 32.3358 21.6288 32.2115 22.3035H28.8035C28.9622 21.6275 29.0665 20.9473 29.1165 20.263C29.1665 19.579 29.1915 18.895 29.1915 18.211V8.5005L16.299 3.6305L3.4065 8.5005V18.209C3.4065 22.5293 4.601 26.4258 6.99 29.8985C9.37867 33.3712 12.4617 35.7648 16.239 37.0795V40.622ZM27.1915 40.66V34.66H21.1915V31.2535H27.1915V25.2535H30.61V31.2535H36.61V34.66H30.61V40.66H27.1915ZM13.6655 26.4325H18.9325L17.6705 19.147C18.3448 18.8257 18.8802 18.3752 19.2765 17.7955C19.6725 17.2158 19.8705 16.571 19.8705 15.861C19.8705 14.8733 19.522 14.0312 18.825 13.3345C18.1277 12.6378 17.2847 12.2895 16.296 12.2895C15.3073 12.2895 14.4653 12.6378 13.77 13.3345C13.075 14.0312 12.7275 14.8733 12.7275 15.861C12.7275 16.571 12.9255 17.2158 13.3215 17.7955C13.7178 18.3752 14.2532 18.8257 14.9275 19.147L13.6655 26.4325Z" fill="white"/>
</svg>
