<svg width="33" height="41" viewBox="0 0 33 41" fill="none" xmlns="http://www.w3.org/2000/svg">
<path d="M13.6655 26.4325H18.9325L17.6705 19.147C18.3295 18.831 18.861 18.3813 19.265 17.798C19.6687 17.2147 19.8705 16.569 19.8705 15.861C19.8705 14.869 19.5235 14.0257 18.8295 13.331C18.1352 12.6367 17.2922 12.2895 16.3005 12.2895C15.3088 12.2895 14.4653 12.6367 13.77 13.331C13.075 14.0257 12.7275 14.869 12.7275 15.861C12.7275 16.569 12.9293 17.2147 13.333 17.798C13.737 18.3813 14.2685 18.831 14.9275 19.147L13.6655 26.4325ZM16.298 40.622C11.5433 39.4313 7.63833 36.6827 4.583 32.376C1.52767 28.0693 0 23.349 0 18.215V6.1075L16.299 0L32.61 6.108V18.211C32.61 23.346 31.08 28.0673 28.02 32.375C24.9603 36.6823 21.053 39.4313 16.298 40.622ZM16.299 37.1155C20.0923 35.8088 23.1895 33.4152 25.5905 29.9345C27.9912 26.4535 29.1915 22.545 29.1915 18.209V8.4945L16.299 3.6305L3.4065 8.4945V18.209C3.4065 22.545 4.60683 26.4535 7.0075 29.9345C9.4085 33.4152 12.5057 35.8088 16.299 37.1155Z" fill="white"/>
</svg>
