<svg width="37" height="37" viewBox="0 0 37 37" fill="none" xmlns="http://www.w3.org/2000/svg">
<path d="M9.299 27.951C9.699 27.951 10.049 27.803 10.349 27.507C10.649 27.211 10.799 26.859 10.799 26.451C10.799 26.051 10.649 25.701 10.349 25.401C10.049 25.101 9.699 24.951 9.299 24.951C8.899 24.951 8.549 25.101 8.249 25.401C7.949 25.701 7.799 26.051 7.799 26.451C7.799 26.859 7.949 27.211 8.249 27.507C8.549 27.803 8.899 27.951 9.299 27.951ZM9.299 19.811C9.699 19.811 10.049 19.661 10.349 19.361C10.649 19.061 10.799 18.711 10.799 18.311C10.799 17.911 10.649 17.561 10.349 17.261C10.049 16.961 9.699 16.811 9.299 16.811C8.899 16.811 8.549 16.961 8.249 17.261C7.949 17.561 7.799 17.911 7.799 18.311C7.799 18.711 7.949 19.061 8.249 19.361C8.549 19.661 8.899 19.811 9.299 19.811ZM9.299 11.659C9.699 11.659 10.049 11.511 10.349 11.215C10.649 10.919 10.799 10.567 10.799 10.159C10.799 9.759 10.649 9.409 10.349 9.109C10.049 8.809 9.699 8.659 9.299 8.659C8.899 8.659 8.549 8.809 8.249 9.109C7.949 9.409 7.799 9.759 7.799 10.159C7.799 10.567 7.949 10.919 8.249 11.215C8.549 11.511 8.899 11.659 9.299 11.659ZM15.899 27.951H28.099V24.951H15.899V27.951ZM15.899 19.811H28.099V16.811H15.899V19.811ZM15.899 11.659H28.099V8.659H15.899V11.659ZM3.4065 36.61C2.4865 36.61 1.68883 36.2722 1.0135 35.5965C0.337833 34.9212 0 34.1235 0 33.2035V3.4185C0 2.49517 0.337833 1.69466 1.0135 1.017C1.68883 0.338998 2.4865 0 3.4065 0H33.1915C34.1148 0 34.9153 0.338998 35.593 1.017C36.271 1.69466 36.61 2.49517 36.61 3.4185V33.2035C36.61 34.1235 36.271 34.9212 35.593 35.5965C34.9153 36.2722 34.1148 36.61 33.1915 36.61H3.4065ZM3.4065 33.2035H33.1915V3.4185H3.4065V33.2035Z" fill="white"/>
</svg>
