<svg width="41" height="41" viewBox="0 0 41 41" fill="none" xmlns="http://www.w3.org/2000/svg">
<path d="M20.3975 40.61C18.7508 40.61 17.3515 40.0462 16.1995 38.9185C15.0478 37.7912 14.472 36.3958 14.472 34.7325C14.472 34.4818 14.4887 34.2522 14.522 34.0435C14.5553 33.8348 14.6013 33.6163 14.66 33.388L9.899 30.724C9.386 31.232 8.79217 31.634 8.1175 31.93C7.4425 32.226 6.7125 32.374 5.9275 32.374C4.28083 32.374 2.88133 31.8028 1.729 30.6605C0.576333 29.5182 0 28.131 0 26.499C0 24.867 0.564167 23.4772 1.6925 22.3295C2.82083 21.1815 4.217 20.6075 5.881 20.6075C6.727 20.6075 7.52083 20.7755 8.2625 21.1115C9.00383 21.4472 9.65267 21.9078 10.209 22.4935L16.7415 19.2155C16.5988 18.3805 16.6402 17.5603 16.8655 16.755C17.0908 15.9497 17.4748 15.2255 18.0175 14.5825L15.9335 11.4905C15.6495 11.5905 15.3613 11.6615 15.069 11.7035C14.7767 11.7455 14.4747 11.7665 14.163 11.7665C12.5167 11.7665 11.1172 11.1953 9.9645 10.053C8.81217 8.91067 8.236 7.5235 8.236 5.8915C8.236 4.2595 8.81067 2.86966 9.96 1.722C11.109 0.573997 12.5043 0 14.146 0C15.788 0 17.1745 0.572666 18.3055 1.718C19.4368 2.863 20.0025 4.2535 20.0025 5.8895C20.0025 6.59717 19.8858 7.26333 19.6525 7.888C19.4192 8.51266 19.0858 9.079 18.6525 9.587L20.7095 12.7055C20.9822 12.6055 21.2788 12.5305 21.5995 12.4805C21.9202 12.4305 22.2472 12.4055 22.5805 12.4055C23.1395 12.4055 23.6658 12.4912 24.1595 12.6625C24.6535 12.8338 25.1213 13.0537 25.563 13.322L29.3575 10.1915C29.1988 9.8445 29.0818 9.48867 29.0065 9.124C28.9312 8.75967 28.8935 8.36766 28.8935 7.948C28.8935 6.28766 29.4573 4.89166 30.585 3.76C31.7127 2.628 33.0998 2.062 34.7465 2.062C36.3932 2.062 37.7903 2.634 38.938 3.778C40.086 4.922 40.66 6.31117 40.66 7.9455C40.66 9.57983 40.0873 10.9605 38.942 12.0875C37.797 13.2148 36.4065 13.7785 34.7705 13.7785C34.1458 13.7785 33.5545 13.694 32.9965 13.525C32.4382 13.3563 31.9223 13.1035 31.449 12.7665L27.86 15.7535C28.0503 16.1428 28.1912 16.5477 28.2825 16.968C28.3738 17.3883 28.4195 17.8305 28.4195 18.2945C28.4195 19.9272 27.847 21.3148 26.702 22.4575C25.557 23.6005 24.1665 24.172 22.5305 24.172C21.6318 24.172 20.8147 23.991 20.079 23.629C19.343 23.267 18.7003 22.7867 18.151 22.188L11.6665 25.4925C11.7252 25.8852 11.7475 26.278 11.7335 26.671C11.7195 27.0637 11.6638 27.4563 11.5665 27.849L16.2655 30.4935C16.8102 29.9935 17.4397 29.5935 18.154 29.2935C18.868 28.9935 19.6163 28.8435 20.399 28.8435C22.021 28.8435 23.3997 29.416 24.535 30.561C25.6703 31.7057 26.238 33.0957 26.238 34.731C26.238 36.3633 25.6702 37.7512 24.5345 38.8945C23.3988 40.0382 22.0198 40.61 20.3975 40.61ZM5.934 29.051C6.64367 29.051 7.23933 28.8017 7.721 28.303C8.20267 27.804 8.4435 27.2008 8.4435 26.4935C8.4435 25.7862 8.20267 25.1822 7.721 24.6815C7.23967 24.1808 6.643 23.9305 5.931 23.9305C5.219 23.9305 4.60633 24.1808 4.093 24.6815C3.57967 25.1822 3.323 25.7872 3.323 26.4965C3.323 27.2062 3.58083 27.8093 4.0965 28.306C4.61217 28.8027 5.22467 29.051 5.934 29.051ZM14.17 8.4935C14.8797 8.4935 15.4753 8.244 15.957 7.745C16.4387 7.246 16.6795 6.643 16.6795 5.936C16.6795 5.22867 16.4387 4.62467 15.957 4.124C15.4753 3.62333 14.8787 3.373 14.167 3.373C13.455 3.373 12.8423 3.62333 12.329 4.124C11.8157 4.62433 11.559 5.22933 11.559 5.939C11.559 6.64867 11.8167 7.25183 12.332 7.7485C12.8477 8.24517 13.4603 8.4935 14.17 8.4935ZM20.3525 37.287C21.0595 37.287 21.6633 37.0375 22.164 36.5385C22.665 36.0395 22.9155 35.4365 22.9155 34.7295C22.9155 34.0222 22.6652 33.4182 22.1645 32.9175C21.6638 32.4168 21.0587 32.1665 20.349 32.1665C19.6397 32.1665 19.0367 32.4168 18.54 32.9175C18.043 33.4178 17.7945 34.0228 17.7945 34.7325C17.7945 35.4422 18.044 36.0453 18.543 36.542C19.042 37.0387 19.6452 37.287 20.3525 37.287ZM22.534 20.849C23.241 20.849 23.8448 20.5995 24.3455 20.1005C24.8465 19.6015 25.097 18.9985 25.097 18.2915C25.097 17.5842 24.8467 16.9802 24.346 16.4795C23.8453 15.9788 23.2402 15.7285 22.5305 15.7285C21.8212 15.7285 21.2182 15.9788 20.7215 16.4795C20.2245 16.9798 19.976 17.5848 19.976 18.2945C19.976 19.0042 20.2255 19.6073 20.7245 20.104C21.2235 20.6007 21.8267 20.849 22.534 20.849ZM34.7775 10.4555C35.4872 10.4555 36.0828 10.2155 36.5645 9.7355C37.0462 9.2555 37.287 8.66083 37.287 7.9515C37.287 7.24183 37.0462 6.63667 36.5645 6.136C36.0832 5.63533 35.4865 5.385 34.7745 5.385C34.0625 5.385 33.4498 5.63533 32.9365 6.136C32.4232 6.63633 32.1665 7.2425 32.1665 7.9545C32.1665 8.6665 32.4243 9.26133 32.94 9.739C33.4557 10.2167 34.0682 10.4555 34.7775 10.4555Z" fill="white"/>
</svg>
