<svg width="45" height="38" viewBox="0 0 45 38" fill="none" xmlns="http://www.w3.org/2000/svg">
<path d="M0 31.959V26.936C0 25.711 0.314667 24.6025 0.944 23.6105C1.57367 22.6182 2.44817 21.8723 3.5675 21.373C6.01683 20.3063 8.22767 19.5357 10.2 19.061C12.1727 18.5863 14.2038 18.349 16.2935 18.349C17.6945 18.349 19.0393 18.449 20.328 18.649C21.6167 18.849 22.9817 19.1783 24.423 19.637C24.0693 20.0917 23.7677 20.5678 23.518 21.0655C23.2683 21.5632 23.0522 22.0852 22.8695 22.6315C21.7348 22.2808 20.6507 22.0492 19.617 21.9365C18.583 21.8238 17.477 21.7675 16.299 21.7675C14.407 21.7675 12.642 21.9468 11.004 22.3055C9.36567 22.6642 7.3665 23.365 5.0065 24.408C4.54783 24.6043 4.1665 24.9505 3.8625 25.4465C3.5585 25.9428 3.4065 26.4553 3.4065 26.984V28.5525H22.5555C22.6895 29.1762 22.8825 29.7712 23.1345 30.3375C23.3868 30.9038 23.6822 31.4443 24.0205 31.959H0ZM16.302 15.299C14.052 15.299 12.2152 14.587 10.7915 13.163C9.3675 11.7393 8.6555 9.9015 8.6555 7.6495C8.6555 5.39784 9.36767 3.56 10.792 2.136C12.216 0.712002 14.0518 0 16.2995 0C18.5468 0 20.3845 0.712169 21.8125 2.1365C23.2405 3.5605 23.9545 5.39617 23.9545 7.6435C23.9545 9.8995 23.2415 11.7393 21.8155 13.163C20.3895 14.587 18.5517 15.299 16.302 15.299ZM34.7415 7.6435C34.7415 9.8915 34.0277 11.7293 32.6 13.157C31.1727 14.585 29.3337 15.299 27.083 15.299C26.708 15.299 26.3 15.272 25.859 15.218C25.4183 15.164 25.0027 15.0663 24.612 14.925C25.428 14.0757 26.0443 13.0333 26.461 11.798C26.8777 10.5627 27.086 9.1805 27.086 7.6515C27.086 6.1225 26.877 4.771 26.459 3.597C26.041 2.42333 25.4253 1.3485 24.612 0.372501C24.9867 0.265501 25.398 0.176669 25.846 0.106003C26.2937 0.0353361 26.706 0 27.083 0C29.3307 0 31.169 0.714168 32.598 2.1425C34.027 3.5705 34.7415 5.40417 34.7415 7.6435ZM16.297 12.024C17.5637 12.024 18.6107 11.6115 19.438 10.7865C20.2657 9.96117 20.6795 8.916 20.6795 7.651C20.6795 6.386 20.2668 5.3405 19.4415 4.5145C18.6165 3.68817 17.5715 3.275 16.3065 3.275C15.0412 3.275 13.9955 3.687 13.1695 4.511C12.3435 5.335 11.9305 6.3785 11.9305 7.6415C11.9305 8.90817 12.3423 9.95534 13.166 10.783C13.99 11.6103 15.0337 12.024 16.297 12.024ZM32.96 30.397C34.178 30.397 35.2023 29.9757 36.033 29.133C36.864 28.29 37.2755 27.279 37.2675 26.1C37.2595 24.8927 36.8403 23.8748 36.01 23.0465C35.1797 22.2178 34.1637 21.8035 32.962 21.8035C31.757 21.8035 30.743 22.2142 29.92 23.0355C29.0973 23.8572 28.686 24.8752 28.686 26.0895C28.686 27.3038 29.0938 28.3253 29.9095 29.154C30.7252 29.9827 31.742 30.397 32.96 30.397ZM32.9705 33.8035C30.8522 33.8035 29.0388 33.0492 27.5305 31.5405C26.0218 30.0318 25.2675 28.2183 25.2675 26.1C25.2675 23.9443 26.0218 22.1215 27.5305 20.6315C29.0388 19.1418 30.8522 18.397 32.9705 18.397C35.1265 18.397 36.9513 19.1418 38.445 20.6315C39.939 22.1215 40.686 23.9443 40.686 26.1C40.686 26.8617 40.5837 27.5818 40.379 28.2605C40.174 28.9392 39.8795 29.5745 39.4955 30.1665L44.5695 35.2285L42.3705 37.4275L37.3205 32.4395C36.6902 32.8902 36.016 33.2302 35.298 33.4595C34.5797 33.6888 33.8038 33.8035 32.9705 33.8035Z" fill="white"/>
</svg>
