<svg width="42" height="39" viewBox="0 0 42 39" fill="none" xmlns="http://www.w3.org/2000/svg">
<path d="M29.3464 18.646C29.9644 18.646 30.486 18.4343 30.9114 18.011C31.337 17.5877 31.5499 17.0648 31.5499 16.4425C31.5499 15.8202 31.3367 15.2973 30.9104 14.874C30.484 14.451 29.9612 14.2395 29.3419 14.2395C28.7225 14.2395 28.1992 14.451 27.7719 14.874C27.3449 15.2973 27.1314 15.8202 27.1314 16.4425C27.1314 17.0648 27.3452 17.5877 27.7729 18.011C28.2005 18.4343 28.725 18.646 29.3464 18.646ZM12.9638 13.7535H23.3464V10.4665H12.9638V13.7535ZM5.87985 38.61C4.73085 34.762 3.59835 30.9223 2.48235 27.091C1.36635 23.2597 0.80835 19.333 0.80835 15.311C0.80835 12.1647 1.90452 9.493 4.09685 7.296C6.28918 5.09867 8.95968 4 12.1084 4H22.4064C23.399 2.73333 24.6009 1.75 26.0119 1.05C27.4229 0.35 28.9355 0 30.5499 0C31.4602 0 32.2375 0.320332 32.8819 0.960999C33.5262 1.60133 33.8484 2.37667 33.8484 3.287C33.8484 3.503 33.8234 3.715 33.7734 3.923C33.7234 4.131 33.665 4.32633 33.5984 4.509C33.473 4.85167 33.356 5.202 33.2474 5.56C33.1387 5.918 33.051 6.2865 32.9844 6.6655L37.3194 11H41.9084V25.488L36.1389 27.35L32.7769 38.61H21.2629V34.61H17.3944V38.61H5.87985ZM8.44385 35.2035H14.0474V31.2035H24.5974V35.2035H30.2039L33.3494 24.717L38.4899 22.9895V14.4185H35.8899L29.4899 8.0185C29.5232 7.19317 29.6295 6.38883 29.8089 5.6055C29.9882 4.82217 30.1819 4.0305 30.3899 3.2305C29.1312 3.57183 27.9452 4.06867 26.8319 4.721C25.7185 5.37333 24.8539 6.2725 24.2379 7.4185H12.1074C9.91968 7.4185 8.05735 8.187 6.52035 9.724C4.98335 11.261 4.21485 13.1233 4.21485 15.311C4.21485 18.734 4.69418 22.0778 5.65285 25.3425C6.61152 28.6072 7.54185 31.8942 8.44385 35.2035Z" fill="white"/>
</svg>
