<svg width="37" height="43" viewBox="0 0 37 43" fill="none" xmlns="http://www.w3.org/2000/svg">
<path d="M12.0833 3.31113V0.0361328H24.6333V3.31113H12.0833ZM16.7268 25.9121H19.9898V14.3881H16.7268V25.9121ZM18.3553 42.8111C15.839 42.8111 13.4715 42.3283 11.2528 41.3626C9.03416 40.3973 7.09499 39.0858 5.43533 37.4281C3.77533 35.7705 2.46433 33.8326 1.50233 31.6146C0.540327 29.3966 0.0593262 27.0298 0.0593262 24.5141C0.0593262 21.9985 0.540327 19.631 1.50233 17.4116C2.46433 15.1923 3.77533 13.252 5.43533 11.5906C7.09566 9.92897 9.03533 8.6153 11.2543 7.64963C13.4737 6.68397 15.8417 6.20113 18.3583 6.20113C20.6077 6.20113 22.7173 6.5678 24.6873 7.30113C26.657 8.03447 28.4125 9.0718 29.9538 10.4131L32.6118 7.75563L34.9768 10.1091L32.3193 12.7666C33.5273 14.116 34.5543 15.7486 35.4003 17.6646C36.2463 19.5803 36.6693 21.8628 36.6693 24.5121C36.6693 27.0295 36.1867 29.398 35.2213 31.6176C34.2563 33.8373 32.9433 35.7753 31.2823 37.4316C29.6213 39.0883 27.6807 40.399 25.4603 41.3636C23.24 42.3286 20.8717 42.8111 18.3553 42.8111Z" fill="white"/>
</svg>
