<svg width="33" height="41" viewBox="0 0 33 41" fill="none" xmlns="http://www.w3.org/2000/svg">
<path d="M8.35833 19.811V16.811H24.3583V19.811H8.35833ZM8.35833 11.811V8.811H24.3583V11.811H8.35833ZM3.46583 24.6075H19.1788C20.0915 24.6075 20.9413 24.813 21.7283 25.224C22.515 25.6347 23.1877 26.1865 23.7463 26.8795L29.2508 34.06V3.4185H3.46583V24.6075ZM3.46583 37.2035H27.3443L21.0733 28.9805C20.8393 28.6848 20.5572 28.4498 20.2268 28.2755C19.8965 28.1015 19.5472 28.0145 19.1788 28.0145H3.46583V37.2035ZM29.2508 40.61H3.46583C2.54583 40.61 1.74816 40.2722 1.07283 39.5965C0.397159 38.9212 0.0593262 38.1235 0.0593262 37.2035V3.4185C0.0593262 2.49517 0.397159 1.69466 1.07283 1.017C1.74816 0.338998 2.54583 0 3.46583 0H29.2508C30.1742 0 30.9747 0.338998 31.6523 1.017C32.3303 1.69466 32.6693 2.49517 32.6693 3.4185V37.2035C32.6693 38.1235 32.3303 38.9212 31.6523 39.5965C30.9747 40.2722 30.1742 40.61 29.2508 40.61Z" fill="white"/>
</svg>
