<svg width="37" height="41" viewBox="0 0 37 41" fill="none" xmlns="http://www.w3.org/2000/svg">
<path d="M26.861 30.861C27.7277 30.861 28.463 30.5443 29.067 29.911C29.671 29.2777 29.973 28.5297 29.973 27.667C29.973 26.8043 29.669 26.071 29.061 25.467C28.453 24.863 27.7217 24.561 26.867 24.561C25.9963 24.561 25.2463 24.863 24.617 25.467C23.9877 26.071 23.673 26.8043 23.673 27.667C23.673 28.5297 23.9877 29.2777 24.617 29.911C25.2463 30.5443 25.9943 30.861 26.861 30.861ZM26.798 37.111C27.9147 37.111 28.9205 36.8797 29.8155 36.417C30.7105 35.9543 31.4797 35.2897 32.123 34.423C31.2483 33.9563 30.3777 33.6043 29.511 33.367C28.644 33.1297 27.7467 33.011 26.819 33.011C25.8883 33.011 24.9793 33.1297 24.092 33.367C23.2047 33.6043 22.3443 33.9563 21.511 34.423C22.1443 35.2897 22.9018 35.9543 23.7835 36.417C24.6655 36.8797 25.6703 37.111 26.798 37.111ZM16.299 40.672C11.613 39.583 7.725 36.9335 4.635 32.7235C1.545 28.5138 0 23.6923 0 18.259V6.102L16.299 0L32.61 6.1075V19.9905C32.0717 19.6932 31.505 19.4365 30.91 19.2205C30.315 19.0048 29.7422 18.8603 29.1915 18.787V8.4845L16.299 3.7305L3.4065 8.4805V18.256C3.4065 20.8087 3.81683 23.1457 4.6375 25.267C5.45817 27.3883 6.49983 29.2453 7.7625 30.838C9.02517 32.431 10.4112 33.7488 11.9205 34.7915C13.4302 35.8342 14.8737 36.5768 16.251 37.0195C16.459 37.5152 16.791 38.051 17.247 38.627C17.7027 39.2027 18.1157 39.6397 18.486 39.938C18.138 40.1287 17.7735 40.2717 17.3925 40.367C17.0112 40.4623 16.6467 40.564 16.299 40.672ZM26.924 40.361C24.3407 40.361 22.1323 39.436 20.299 37.586C18.4657 35.736 17.549 33.5443 17.549 31.011C17.549 28.3967 18.4655 26.168 20.2985 24.325C22.1315 22.4823 24.3483 21.561 26.949 21.561C29.5157 21.561 31.724 22.4823 33.574 24.325C35.424 26.168 36.349 28.3967 36.349 31.011C36.349 33.5443 35.424 35.736 33.574 37.586C31.724 39.436 29.5073 40.361 26.924 40.361Z" fill="white"/>
</svg>
