<svg width="41" height="33" viewBox="0 0 41 33" fill="none" xmlns="http://www.w3.org/2000/svg">
<path d="M25.4065 18.1815H34.1915V15.038H25.4065V18.1815ZM25.4065 12.038H34.1915V8.8945H25.4065V12.038ZM6.4065 24.2155H22.4065V23.4445C22.4065 22.0525 21.6982 20.9128 20.2815 20.0255C18.8648 19.1382 16.9065 18.6945 14.4065 18.6945C11.9065 18.6945 9.94817 19.1382 8.5315 20.0255C7.11483 20.9128 6.4065 22.0525 6.4065 23.4445V24.2155ZM14.4025 15.6945C15.4052 15.6945 16.2648 15.3395 16.9815 14.6295C17.6982 13.9195 18.0565 13.0592 18.0565 12.0485C18.0565 11.0458 17.6995 10.1862 16.9855 9.4695C16.2715 8.75283 15.4132 8.3945 14.4105 8.3945C13.4078 8.3945 12.5482 8.7515 11.8315 9.4655C11.1148 10.1795 10.7565 11.0378 10.7565 12.0405C10.7565 13.0512 11.1135 13.9128 11.8275 14.6255C12.5415 15.3382 13.3998 15.6945 14.4025 15.6945ZM3.4065 32.61C2.4865 32.61 1.68883 32.2722 1.0135 31.5965C0.337834 30.9212 0 30.1235 0 29.2035V3.4185C0 2.49517 0.337834 1.69466 1.0135 1.017C1.68883 0.338998 2.4865 0 3.4065 0H37.1915C38.1148 0 38.9153 0.338998 39.593 1.017C40.271 1.69466 40.61 2.49517 40.61 3.4185V29.2035C40.61 30.1235 40.271 30.9212 39.593 31.5965C38.9153 32.2722 38.1148 32.61 37.1915 32.61H3.4065ZM3.4065 29.2035H37.1915V3.4185H3.4065V29.2035Z" fill="white"/>
</svg>
