<svg width="49" height="47" viewBox="0 0 49 47" fill="none" xmlns="http://www.w3.org/2000/svg">
<path d="M12.034 46.8965C10.3793 46.8965 8.972 46.3142 7.812 45.1495C6.65167 43.9848 6.0715 42.5753 6.0715 40.921C6.0715 39.2663 6.65267 37.8588 7.815 36.6985C8.977 35.5385 10.3837 34.9585 12.035 34.9585C12.4993 34.9585 12.9175 34.9982 13.2895 35.0775C13.6612 35.1568 14.0255 35.2758 14.3825 35.4345L18.465 30.302C17.8557 29.5433 17.3843 28.6763 17.051 27.701C16.7177 26.7257 16.6303 25.7182 16.789 24.6785L10.9425 22.6355C10.4265 23.4768 9.74533 24.1348 8.899 24.6095C8.05267 25.0842 7.078 25.3215 5.975 25.3215C4.32067 25.3215 2.91117 24.7405 1.7465 23.5785C0.582167 22.4162 0 21.0095 0 19.3585C0 17.7042 0.582333 16.2927 1.747 15.124C2.91167 13.9557 4.32117 13.3715 5.9755 13.3715C7.63017 13.3715 9.03767 13.9557 10.198 15.124C11.358 16.2927 11.938 17.7048 11.938 19.3605V19.5225L17.823 21.6225C18.423 20.5718 19.146 19.7652 19.992 19.2025C20.838 18.6398 21.7657 18.2363 22.775 17.992V11.738C21.475 11.3633 20.426 10.6227 19.628 9.516C18.8303 8.40967 18.4315 7.23183 18.4315 5.9825C18.4315 4.33083 19.0138 2.92083 20.1785 1.7525C21.3432 0.584166 22.7527 0 24.407 0C26.0617 0 27.4712 0.584166 28.6355 1.7525C29.7995 2.92083 30.3815 4.33083 30.3815 5.9825C30.3815 7.23183 29.9762 8.40967 29.1655 9.516C28.3552 10.6227 27.3127 11.3633 26.038 11.738V17.9965C27.0473 18.2378 27.9833 18.6418 28.846 19.2085C29.7087 19.7752 30.4457 20.5798 31.057 21.6225L36.875 19.5225V19.3585C36.875 17.7042 37.456 16.2927 38.618 15.124C39.7803 13.9557 41.187 13.3715 42.838 13.3715C44.4923 13.3715 45.9038 13.9558 47.0725 15.1245C48.2408 16.2932 48.825 17.7047 48.825 19.359C48.825 21.0137 48.2408 22.4212 47.0725 23.5815C45.9038 24.7415 44.491 25.3215 42.834 25.3215C41.735 25.3215 40.7537 25.0842 39.89 24.6095C39.0263 24.1348 38.3492 23.4728 37.8585 22.6235L32.024 24.6735C32.1667 25.7245 32.0837 26.7357 31.775 27.707C31.4663 28.6783 30.9907 29.5433 30.348 30.302L34.4425 35.4585C34.7992 35.2918 35.1615 35.1668 35.5295 35.0835C35.8975 35.0002 36.3065 34.9585 36.7565 34.9585C38.4388 34.9585 39.8588 35.5395 41.0165 36.7015C42.1742 37.8638 42.753 39.2705 42.753 40.9215C42.753 42.5758 42.17 43.9853 41.004 45.15C39.838 46.3143 38.4293 46.8965 36.778 46.8965C35.1237 46.8965 33.7143 46.3153 32.55 45.153C31.3853 43.9903 30.803 42.5787 30.803 40.918C30.803 40.228 30.8967 39.6048 31.084 39.0485C31.2713 38.4922 31.5317 37.96 31.865 37.452L27.7945 32.3315C26.7235 32.8742 25.5848 33.1455 24.3785 33.1455C23.1718 33.1455 22.0392 32.8742 20.9805 32.3315L16.948 37.502C17.2813 38.01 17.5417 38.5338 17.729 39.0735C17.9163 39.6132 18.01 40.228 18.01 40.918C18.01 42.5787 17.4277 43.9903 16.263 45.153C15.0983 46.3153 13.6887 46.8965 12.034 46.8965ZM5.9765 22.0585C6.73417 22.0585 7.37333 21.7975 7.894 21.2755C8.41467 20.7538 8.675 20.1122 8.675 19.3505C8.675 18.5892 8.414 17.9502 7.892 17.4335C7.37033 16.9168 6.72867 16.6585 5.967 16.6585C5.20567 16.6585 4.56667 16.9173 4.05 17.435C3.53333 17.953 3.275 18.5947 3.275 19.36C3.275 20.1177 3.53383 20.7568 4.0515 21.2775C4.5695 21.7982 5.21117 22.0585 5.9765 22.0585ZM12.0365 43.6215C12.8022 43.6215 13.4433 43.3627 13.96 42.845C14.4767 42.327 14.735 41.6853 14.735 40.92C14.735 40.1623 14.476 39.5232 13.958 39.0025C13.44 38.4818 12.7983 38.2215 12.033 38.2215C11.2677 38.2215 10.6267 38.4825 10.11 39.0045C9.59333 39.5262 9.335 40.1658 9.335 40.9235C9.335 41.6888 9.59383 42.3298 10.1115 42.8465C10.6295 43.3632 11.2712 43.6215 12.0365 43.6215ZM24.4085 8.6865C25.1738 8.6865 25.8148 8.42567 26.3315 7.904C26.8482 7.38233 27.1065 6.74267 27.1065 5.985C27.1065 5.21933 26.8475 4.57817 26.3295 4.0615C25.8118 3.54483 25.1702 3.2865 24.4045 3.2865C23.6392 3.2865 22.9982 3.5455 22.4815 4.0635C21.9648 4.58116 21.7065 5.22283 21.7065 5.9885C21.7065 6.74616 21.9655 7.38533 22.4835 7.906C23.0012 8.42633 23.6428 8.6865 24.4085 8.6865ZM24.43 29.739C25.6093 29.739 26.6083 29.3217 27.427 28.487C28.246 27.6527 28.6555 26.6458 28.6555 25.4665C28.6555 24.2872 28.2448 23.2882 27.4235 22.4695C26.6025 21.6505 25.5973 21.241 24.408 21.241C23.2453 21.241 22.2463 21.6517 21.411 22.473C20.5753 23.294 20.1575 24.2992 20.1575 25.4885C20.1575 26.6512 20.5748 27.6502 21.4095 28.4855C22.2438 29.3212 23.2507 29.739 24.43 29.739ZM36.78 43.6215C37.5453 43.6215 38.1863 43.3627 38.703 42.845C39.2197 42.327 39.478 41.6853 39.478 40.92C39.478 40.1623 39.2192 39.5232 38.7015 39.0025C38.1835 38.4818 37.5418 38.2215 36.7765 38.2215C36.0108 38.2215 35.3697 38.4825 34.853 39.0045C34.3363 39.5262 34.078 40.1658 34.078 40.9235C34.078 41.6888 34.337 42.3298 34.855 42.8465C35.373 43.3632 36.0147 43.6215 36.78 43.6215ZM42.846 22.0585C43.6073 22.0585 44.2463 21.7975 44.763 21.2755C45.2797 20.7538 45.538 20.1122 45.538 19.3505C45.538 18.5892 45.2792 17.9502 44.7615 17.4335C44.2435 16.9168 43.6018 16.6585 42.8365 16.6585C42.0788 16.6585 41.4397 16.9173 40.919 17.435C40.3983 17.953 40.138 18.5947 40.138 19.36C40.138 20.1177 40.399 20.7568 40.921 21.2775C41.4427 21.7982 42.0843 22.0585 42.846 22.0585Z" fill="white"/>
</svg>
