<svg width="29" height="45" viewBox="0 0 29 45" fill="none" xmlns="http://www.w3.org/2000/svg">
<path d="M3.4065 44.55C2.46983 44.55 1.66783 44.2165 1.0005 43.5495C0.3335 42.8822 0 42.0802 0 41.1435V3.4065C0 2.46983 0.3335 1.66783 1.0005 1.0005C1.66783 0.3335 2.46983 0 3.4065 0H25.1435C26.0802 0 26.8822 0.3335 27.5495 1.0005C28.2165 1.66783 28.55 2.46983 28.55 3.4065V41.1435C28.55 42.0802 28.2165 42.8822 27.5495 43.5495C26.8822 44.2165 26.0802 44.55 25.1435 44.55H3.4065ZM3.4065 39.6435V41.1435H25.1435V39.6435H3.4065ZM3.4065 4.9065H25.1435V3.4065H3.4065V4.9065ZM14.275 31.275C12.3223 31.275 10.4227 31.567 8.576 32.151C6.72967 32.735 5.0065 33.4985 3.4065 34.4415V36.6435H25.1435V34.4415C23.5435 33.4985 21.823 32.735 19.982 32.151C18.141 31.567 16.2387 31.275 14.275 31.275ZM14.275 28.275C16.2383 28.275 18.1322 28.5253 19.9565 29.026C21.7812 29.5267 23.5102 30.2192 25.1435 31.1035V7.9065H3.4065V31.1035C5.07317 30.2192 6.8105 29.5267 8.6185 29.026C10.4262 28.5253 12.3117 28.275 14.275 28.275ZM14.313 25.1965C15.921 25.1965 17.2917 24.6338 18.425 23.5085C19.5583 22.3832 20.125 21.0165 20.125 19.4085C20.125 17.8005 19.5623 16.4298 18.437 15.2965C17.3113 14.1632 15.9447 13.5965 14.337 13.5965C12.729 13.5965 11.3583 14.1593 10.225 15.285C9.09167 16.4103 8.525 17.777 8.525 19.385C8.525 20.9927 9.08767 22.3632 10.213 23.4965C11.3387 24.6298 12.7053 25.1965 14.313 25.1965ZM14.325 22.1965C13.5583 22.1965 12.9 21.9215 12.35 21.3715C11.8 20.8215 11.525 20.1632 11.525 19.3965C11.525 18.6298 11.8 17.9715 12.35 17.4215C12.9 16.8715 13.5583 16.5965 14.325 16.5965C15.0917 16.5965 15.75 16.8715 16.3 17.4215C16.85 17.9715 17.125 18.6298 17.125 19.3965C17.125 20.1632 16.85 20.8215 16.3 21.3715C15.75 21.9215 15.0917 22.1965 14.325 22.1965ZM14.281 36.6435H25.1435H3.4065H14.281Z" fill="white"/>
</svg>
