<svg width="25" height="25" viewBox="0 0 25 25" fill="none" xmlns="http://www.w3.org/2000/svg">
<mask id="mask0_748_7" style="mask-type:alpha" maskUnits="userSpaceOnUse" x="0" y="0" width="25" height="25">
<rect x="0.479736" y="0.642273" width="24" height="24" fill="#D9D9D9"/>
</mask>
<g mask="url(#mask0_748_7)">
<path d="M18.4797 16.3923C18.4797 18.1256 17.8714 19.6006 16.6547 20.8173C15.4381 22.0339 13.9631 22.6423 12.2297 22.6423C10.4964 22.6423 9.0214 22.0339 7.80474 20.8173C6.58807 19.6006 5.97974 18.1256 5.97974 16.3923V7.14227C5.97974 5.89227 6.41724 4.82977 7.29224 3.95477C8.16724 3.07977 9.22974 2.64227 10.4797 2.64227C11.7297 2.64227 12.7922 3.07977 13.6672 3.95477C14.5422 4.82977 14.9797 5.89227 14.9797 7.14227V15.8923C14.9797 16.6589 14.7131 17.3089 14.1797 17.8423C13.6464 18.3756 12.9964 18.6423 12.2297 18.6423C11.4631 18.6423 10.8131 18.3756 10.2797 17.8423C9.7464 17.3089 9.47974 16.6589 9.47974 15.8923V6.64227H11.4797V15.8923C11.4797 16.1089 11.5506 16.2881 11.6922 16.4298C11.8339 16.5714 12.0131 16.6423 12.2297 16.6423C12.4464 16.6423 12.6256 16.5714 12.7672 16.4298C12.9089 16.2881 12.9797 16.1089 12.9797 15.8923V7.14227C12.9631 6.44227 12.7172 5.85061 12.2422 5.36727C11.7672 4.88394 11.1797 4.64227 10.4797 4.64227C9.77974 4.64227 9.18807 4.88394 8.70474 5.36727C8.2214 5.85061 7.97974 6.44227 7.97974 7.14227V16.3923C7.96307 17.5756 8.3714 18.5798 9.20474 19.4048C10.0381 20.2298 11.0464 20.6423 12.2297 20.6423C13.3964 20.6423 14.3881 20.2298 15.2047 19.4048C16.0214 18.5798 16.4464 17.5756 16.4797 16.3923V6.64227H18.4797V16.3923Z" fill="#1D1D1D"/>
</g>
</svg>
