<svg width="25" height="25" viewBox="0 0 25 25" fill="none" xmlns="http://www.w3.org/2000/svg">
<mask id="mask0_750_13" style="mask-type:alpha" maskUnits="userSpaceOnUse" x="0" y="0" width="25" height="25">
<rect x="0.479736" y="0.642273" width="24" height="24" fill="#D9D9D9"/>
</mask>
<g mask="url(#mask0_750_13)">
<path d="M12.4797 16.6423L7.47974 11.6423L8.87974 10.1923L11.4797 12.7923V4.64227H13.4797V12.7923L16.0797 10.1923L17.4797 11.6423L12.4797 16.6423ZM6.47974 20.6423C5.92974 20.6423 5.4589 20.4464 5.06724 20.0548C4.67557 19.6631 4.47974 19.1923 4.47974 18.6423V15.6423H6.47974V18.6423H18.4797V15.6423H20.4797V18.6423C20.4797 19.1923 20.2839 19.6631 19.8922 20.0548C19.5006 20.4464 19.0297 20.6423 18.4797 20.6423H6.47974Z" fill="#555555"/>
</g>
</svg>
