<svg width="38" height="30" viewBox="0 0 38 30" fill="none" xmlns="http://www.w3.org/2000/svg">
<path d="M0.491455 25.689V4.28253C0.491455 3.1932 0.879455 2.2607 1.65546 1.48503C2.43146 0.709368 3.37312 0.321533 4.48046 0.321533H33.548C34.637 0.321533 35.5693 0.709368 36.345 1.48503C37.1206 2.2607 37.5085 3.1932 37.5085 4.28253V25.689C37.5085 26.7964 37.1206 27.738 36.345 28.514C35.5693 29.2904 34.637 29.6785 33.548 29.6785H4.48046C3.37312 29.6785 2.43146 29.2904 1.65546 28.514C0.879455 27.738 0.491455 26.7964 0.491455 25.689ZM4.48046 9.46303H9.58245V4.28253H4.48046V9.46303ZM12.5825 9.46303H33.548V4.28253H12.5825V9.46303ZM12.5825 17.537H33.548V12.463H12.5825V17.537ZM12.5825 25.689H33.548V20.537H12.5825V25.689ZM4.48046 25.689H9.58245V20.537H4.48046V25.689ZM4.48046 17.537H9.58245V12.463H4.48046V17.537Z" fill="white"/>
</svg>
