<svg width="43" height="35" viewBox="0 0 43 35" fill="none" xmlns="http://www.w3.org/2000/svg">
<path d="M33.375 19.941C33.848 19.941 34.2445 19.7841 34.5645 19.4705C34.8845 19.1568 35.0445 18.759 35.0445 18.277C35.0445 17.7946 34.8885 17.395 34.5765 17.078C34.2645 16.7606 33.864 16.602 33.375 16.602H28.223C27.75 16.602 27.3535 16.7628 27.0335 17.0845C26.7135 17.4061 26.5535 17.8048 26.5535 18.2805C26.5535 18.7718 26.7095 19.1715 27.0215 19.4795C27.3335 19.7871 27.734 19.941 28.223 19.941H33.375ZM33.375 13.602C33.848 13.602 34.2445 13.4451 34.5645 13.1315C34.8845 12.8178 35.0445 12.42 35.0445 11.938C35.0445 11.4556 34.8885 11.0558 34.5765 10.7385C34.2645 10.4215 33.864 10.263 33.375 10.263H28.223C27.75 10.263 27.3535 10.4238 27.0335 10.7455C26.7135 11.0671 26.5535 11.4656 26.5535 11.941C26.5535 12.4326 26.7095 12.8323 27.0215 13.14C27.3335 13.448 27.734 13.602 28.223 13.602H33.375ZM15.5535 20.063C14.3055 20.063 13.2022 20.176 12.2435 20.402C11.2845 20.628 10.4379 20.965 9.70353 21.413C9.0932 21.7606 8.63303 22.1641 8.32303 22.6235C8.0127 23.0828 7.85753 23.5611 7.85753 24.0585C7.85753 24.4445 7.99353 24.7545 8.26553 24.9885C8.5372 25.2221 8.86936 25.339 9.26203 25.339H21.8445C22.2292 25.339 22.5547 25.2161 22.821 24.9705C23.0874 24.7251 23.2205 24.4175 23.2205 24.0475C23.2205 23.5688 23.0692 23.1043 22.7665 22.654C22.4635 22.2033 22.0259 21.7896 21.4535 21.413C20.7099 20.965 19.8525 20.628 18.8815 20.402C17.9105 20.176 16.8012 20.063 15.5535 20.063ZM15.5495 17.063C16.5522 17.063 17.4119 16.7106 18.1285 16.006C18.8452 15.3013 19.2035 14.4383 19.2035 13.417C19.2035 12.4143 18.8465 11.5546 18.1325 10.838C17.4185 10.1213 16.5602 9.76296 15.5575 9.76296C14.5549 9.76296 13.6952 10.12 12.9785 10.834C12.2619 11.548 11.9035 12.4063 11.9035 13.409C11.9035 14.4303 12.2605 15.2946 12.9745 16.002C13.6885 16.7093 14.5469 17.063 15.5495 17.063ZM4.55353 34.2715C3.46986 34.2715 2.5387 33.8823 1.76003 33.104C0.981696 32.3253 0.592529 31.3941 0.592529 30.3105V4.81946C0.592529 3.72812 0.981696 2.79046 1.76003 2.00646C2.5387 1.22212 3.46986 0.829956 4.55353 0.829956H38.0445C39.1359 0.829956 40.0735 1.22212 40.8575 2.00646C41.6419 2.79046 42.034 3.72812 42.034 4.81946V30.3105C42.034 31.3941 41.6419 32.3253 40.8575 33.104C40.0735 33.8823 39.1359 34.2715 38.0445 34.2715H4.55353ZM4.55353 30.3105H38.0445V4.81946H4.55353V30.3105Z" fill="white"/>
</svg>
