<svg width="43" height="40" viewBox="0 0 43 40" fill="none" xmlns="http://www.w3.org/2000/svg">
<path d="M23.5058 20.9175C26.1695 18.9652 28.2532 16.8984 29.7568 14.717C31.2605 12.5354 32.0123 10.3798 32.0123 8.25052C32.0123 6.96918 31.784 5.94518 31.3273 5.17852C30.871 4.41185 30.2635 4.02852 29.5048 4.02852C27.7728 4.02852 26.2723 5.33835 25.0033 7.95801C23.734 10.5777 23.0993 13.6503 23.0993 17.176C23.0993 17.8547 23.129 18.5052 23.1883 19.1275C23.248 19.7498 23.3538 20.3465 23.5058 20.9175ZM3.18632 29.948C2.81099 30.3234 2.37616 30.5063 1.88182 30.497C1.38782 30.4873 0.953157 30.2948 0.577823 29.9195C0.20249 29.5442 0.0148234 29.1047 0.0148234 28.601C0.0148234 28.0973 0.20249 27.6578 0.577823 27.2825L2.47332 25.415L0.577823 23.5195C0.18349 23.1442 -0.00900963 22.7047 0.0003237 22.201C0.00999037 21.6973 0.20249 21.2578 0.577823 20.8825C0.953157 20.5072 1.39266 20.3195 1.89632 20.3195C2.39966 20.3195 2.83916 20.5072 3.21482 20.8825L5.08182 22.778L6.97782 20.8825C7.35316 20.5072 7.79266 20.3195 8.29632 20.3195C8.79966 20.3195 9.23916 20.5072 9.61482 20.8825C9.99016 21.2578 10.1778 21.6973 10.1778 22.201C10.1778 22.7047 9.99016 23.1442 9.61482 23.5195L7.71882 25.415L9.61482 27.311C9.99016 27.6864 10.1778 28.121 10.1778 28.615C10.1778 29.1093 9.99016 29.5442 9.61482 29.9195C9.23916 30.2948 8.79966 30.4825 8.29632 30.4825C7.79266 30.4825 7.35316 30.2948 6.97782 29.9195L5.08182 28.052L3.18632 29.948ZM27.4448 29.7915C26.2842 29.7915 25.2412 29.5205 24.3158 28.9785C23.3905 28.4362 22.5807 27.668 21.8863 26.674C21.2907 27.0407 20.7008 27.3693 20.1168 27.66C19.5328 27.9503 18.9357 28.2455 18.3253 28.5455C17.85 28.8065 17.3725 28.8667 16.8928 28.726C16.4132 28.5853 16.0523 28.2773 15.8103 27.802C15.5683 27.3267 15.5273 26.8412 15.6873 26.3455C15.847 25.8495 16.1692 25.4705 16.6538 25.2085C17.2768 24.9298 17.884 24.6293 18.4753 24.307C19.0667 23.985 19.6363 23.6573 20.1843 23.324C19.8943 22.4197 19.6805 21.4645 19.5428 20.4585C19.4052 19.4528 19.3363 18.3964 19.3363 17.289C19.3363 12.4977 20.293 8.46251 22.2063 5.18351C24.1197 1.90451 26.55 0.265015 29.4973 0.265015C31.403 0.265015 32.9258 1.00502 34.0658 2.48502C35.2055 3.96468 35.7753 5.90151 35.7753 8.29551C35.7753 11.1348 34.8358 13.9497 32.9568 16.74C31.0778 19.5307 28.45 22.1275 25.0733 24.5305C25.4443 25.0202 25.8487 25.3922 26.2863 25.6465C26.724 25.9012 27.2045 26.0285 27.7278 26.0285C28.7278 26.0285 29.7318 25.6687 30.7398 24.949C31.7478 24.2293 32.6973 23.155 33.5883 21.726C33.8483 21.3177 34.1883 21.0467 34.6083 20.913C35.0283 20.7797 35.4617 20.8058 35.9083 20.9915C36.364 21.2065 36.7133 21.5348 36.9563 21.9765C37.1997 22.4182 37.2973 22.8912 37.2493 23.3955C37.2017 23.7825 37.1813 24.179 37.1883 24.585C37.1957 24.9907 37.2138 25.4485 37.2428 25.9585C37.4865 25.7918 37.7383 25.6143 37.9983 25.426C38.2583 25.2377 38.5173 25.0385 38.7753 24.8285C39.09 24.4862 39.4792 24.2665 39.9428 24.1695C40.4065 24.0725 40.8522 24.129 41.2798 24.339C41.6885 24.5493 41.952 24.8805 42.0703 25.3325C42.1883 25.7848 42.1067 26.182 41.8253 26.524C41.0357 27.582 40.2135 28.391 39.3588 28.951C38.5045 29.5113 37.6572 29.7915 36.8168 29.7915C35.9792 29.7915 35.2868 29.5222 34.7398 28.9835C34.1925 28.4452 33.8595 27.6899 33.7408 26.7175C32.7742 27.7275 31.7623 28.4923 30.7053 29.012C29.6483 29.5317 28.5615 29.7915 27.4448 29.7915ZM3.19732 39.7065C2.65099 39.7065 2.19849 39.5263 1.83982 39.166C1.48082 38.8057 1.30132 38.3625 1.30132 37.8365C1.30132 37.3108 1.48082 36.8638 1.83982 36.4955C2.19849 36.1275 2.64616 35.9435 3.18282 35.9435C3.71982 35.9435 4.16766 36.1255 4.52632 36.4895C4.88532 36.8538 5.06482 37.3017 5.06482 37.833C5.06482 38.3647 4.88482 38.8098 4.52482 39.1685C4.16482 39.5272 3.72232 39.7065 3.19732 39.7065ZM11.6168 39.7065C11.0705 39.7065 10.618 39.5263 10.2593 39.166C9.90066 38.8057 9.72132 38.3625 9.72132 37.8365C9.72132 37.3108 9.90066 36.8638 10.2593 36.4955C10.618 36.1275 11.0658 35.9435 11.6028 35.9435C12.1398 35.9435 12.5877 36.1255 12.9463 36.4895C13.305 36.8538 13.4843 37.3017 13.4843 37.833C13.4843 38.3647 13.3043 38.8098 12.9443 39.1685C12.5843 39.5272 12.1418 39.7065 11.6168 39.7065ZM20.0083 39.7065C19.4617 39.7065 19.009 39.5263 18.6503 39.166C18.2917 38.8057 18.1123 38.3625 18.1123 37.8365C18.1123 37.3108 18.2917 36.8638 18.6503 36.4955C19.009 36.1275 19.4568 35.9435 19.9938 35.9435C20.5308 35.9435 20.9787 36.1255 21.3373 36.4895C21.696 36.8538 21.8753 37.3017 21.8753 37.833C21.8753 38.3647 21.6955 38.8098 21.3358 39.1685C20.9758 39.5272 20.5333 39.7065 20.0083 39.7065ZM28.4278 39.7065C27.8815 39.7065 27.4288 39.5263 27.0698 39.166C26.7112 38.8057 26.5318 38.3625 26.5318 37.8365C26.5318 37.3108 26.7112 36.8638 27.0698 36.4955C27.4288 36.1275 27.8767 35.9435 28.4133 35.9435C28.9503 35.9435 29.3982 36.1255 29.7568 36.4895C30.1155 36.8538 30.2948 37.3017 30.2948 37.833C30.2948 38.3647 30.115 38.8098 29.7553 39.1685C29.3953 39.5272 28.9528 39.7065 28.4278 39.7065ZM36.8248 39.7065C36.2935 39.7065 35.8485 39.5263 35.4898 39.166C35.1308 38.8057 34.9513 38.3625 34.9513 37.8365C34.9513 37.3108 35.1317 36.8638 35.4923 36.4955C35.8527 36.1275 36.2957 35.9435 36.8213 35.9435C37.3473 35.9435 37.7943 36.1255 38.1623 36.4895C38.5307 36.8538 38.7148 37.3017 38.7148 37.833C38.7148 38.3647 38.5327 38.8098 38.1683 39.1685C37.8043 39.5272 37.3565 39.7065 36.8248 39.7065Z" fill="white"/>
</svg>
