<svg width="50" height="26" viewBox="0 0 50 26" fill="none" xmlns="http://www.w3.org/2000/svg">
<path d="M2.34793 25.339C1.79093 25.339 1.3216 25.1482 0.939932 24.7665C0.558265 24.3848 0.367432 23.9155 0.367432 23.3585V22.35C0.367432 20.947 1.0921 19.8148 2.54143 18.9535C3.99043 18.0918 5.8851 17.661 8.22543 17.661C8.52643 17.661 8.80543 17.6645 9.06243 17.6715C9.31943 17.6788 9.5841 17.7007 9.85643 17.737C9.5521 18.3717 9.32377 19.019 9.17143 19.679C9.01943 20.339 8.94343 21.0277 8.94343 21.745V25.339H2.34793ZM14.3479 25.339C13.7909 25.339 13.3216 25.1482 12.9399 24.7665C12.5583 24.3848 12.3674 23.9155 12.3674 23.3585V21.75C12.3674 20.6267 12.6638 19.5998 13.2564 18.6695C13.8491 17.7392 14.6976 16.9312 15.8019 16.2455C16.9063 15.5602 18.2171 15.0413 19.7344 14.689C21.2514 14.337 22.9061 14.161 24.6984 14.161C26.5254 14.161 28.1928 14.337 29.7004 14.689C31.2081 15.0413 32.5188 15.5602 33.6324 16.2455C34.7368 16.9312 35.5818 17.7392 36.1674 18.6695C36.7528 19.5998 37.0454 20.6267 37.0454 21.75V23.3585C37.0454 23.9155 36.8546 24.3848 36.4729 24.7665C36.0913 25.1482 35.6219 25.339 35.0649 25.339H14.3479ZM40.4694 25.339V21.738C40.4694 21.0017 40.3969 20.3053 40.2519 19.649C40.1073 18.9927 39.8921 18.3565 39.6064 17.7405C39.8788 17.7018 40.1454 17.6788 40.4064 17.6715C40.6674 17.6645 40.9341 17.661 41.2064 17.661C43.5731 17.661 45.4713 18.088 46.9009 18.942C48.3306 19.796 49.0454 20.932 49.0454 22.35V23.3585C49.0454 23.9155 48.8546 24.3848 48.4729 24.7665C48.0913 25.1482 47.6219 25.339 47.0649 25.339H40.4694ZM16.3284 21.774H33.0844V21.474C32.9338 20.3347 32.0921 19.4205 30.5594 18.7315C29.0271 18.0425 27.0761 17.698 24.7064 17.698C22.3368 17.698 20.3858 18.0472 18.8534 18.7455C17.3208 19.4442 16.4791 20.3703 16.3284 21.524V21.774ZM8.19093 16.2455C7.17793 16.2455 6.31093 15.8815 5.58993 15.1535C4.86893 14.4252 4.50843 13.5498 4.50843 12.5275C4.50843 11.4992 4.8706 10.6243 5.59493 9.90299C6.31926 9.18199 7.18993 8.82149 8.20693 8.82149C9.22993 8.82149 10.1066 9.18232 10.8369 9.90399C11.5673 10.626 11.9324 11.5058 11.9324 12.5435C11.9324 13.5508 11.5698 14.4197 10.8444 15.15C10.1188 15.8803 9.23427 16.2455 8.19093 16.2455ZM41.1909 16.2455C40.1779 16.2455 39.3109 15.8815 38.5899 15.1535C37.8689 14.4252 37.5084 13.5498 37.5084 12.5275C37.5084 11.4992 37.8706 10.6243 38.5949 9.90299C39.3193 9.18199 40.1899 8.82149 41.2069 8.82149C42.2299 8.82149 43.1066 9.18232 43.8369 9.90399C44.5673 10.626 44.9324 11.5058 44.9324 12.5435C44.9324 13.5508 44.5698 14.4197 43.8444 15.15C43.1188 15.8803 42.2343 16.2455 41.1909 16.2455ZM24.7204 12.689C22.9558 12.689 21.4558 12.0713 20.2204 10.836C18.9851 9.60065 18.3674 8.10065 18.3674 6.33599C18.3674 4.55099 18.9851 3.05049 20.2204 1.83449C21.4558 0.618821 22.9558 0.0109863 24.7204 0.0109863C26.5054 0.0109863 28.0058 0.618821 29.2214 1.83449C30.4374 3.05049 31.0454 4.55099 31.0454 6.33599C31.0454 8.10065 30.4374 9.60065 29.2214 10.836C28.0058 12.0713 26.5054 12.689 24.7204 12.689ZM24.7379 9.12399C25.5083 9.12399 26.1626 8.85266 26.7009 8.30999C27.2393 7.76732 27.5084 7.10249 27.5084 6.31549C27.5084 5.52849 27.2356 4.87049 26.6899 4.34149C26.1443 3.81249 25.4889 3.54799 24.7239 3.54799C23.9356 3.54799 23.2733 3.81432 22.7369 4.34699C22.2006 4.87965 21.9324 5.53965 21.9324 6.32699C21.9324 7.10032 22.1981 7.75982 22.7294 8.30549C23.2608 8.85115 23.9303 9.12399 24.7379 9.12399Z" fill="white"/>
</svg>
