<svg width="42" height="34" viewBox="0 0 42 34" fill="none" xmlns="http://www.w3.org/2000/svg">
<path d="M3.961 33.7065C2.87733 33.7065 1.94617 33.3173 1.1675 32.539C0.389167 31.7603 0 30.8292 0 29.7455V4.25452C0 3.16318 0.389167 2.22552 1.1675 1.44152C1.94617 0.657183 2.87733 0.265015 3.961 0.265015H37.452C38.5433 0.265015 39.481 0.657183 40.265 1.44152C41.0493 2.22552 41.4415 3.16318 41.4415 4.25452V29.7455C41.4415 30.8292 41.0493 31.7603 40.265 32.539C39.481 33.3173 38.5433 33.7065 37.452 33.7065H3.961ZM37.452 7.65452L21.792 18.0555C21.6037 18.1605 21.4268 18.2427 21.2615 18.302C21.0958 18.3617 20.9108 18.3915 20.7065 18.3915C20.5022 18.3915 20.3172 18.3617 20.1515 18.302C19.9862 18.2427 19.8093 18.1605 19.621 18.0555L3.961 7.65452V29.7455H37.452V7.65452ZM20.7065 15.1545L37.252 4.25452H4.211L20.7065 15.1545ZM3.961 8.08902V5.68502V5.73102V4.25452V5.71501V5.64152V8.08902Z" fill="white"/>
</svg>
