<svg width="43" height="34" viewBox="0 0 43 34" fill="none" xmlns="http://www.w3.org/2000/svg">
<path d="M4.66754 33.4415C3.58388 33.4415 2.65271 33.0523 1.87404 32.274C1.09571 31.4953 0.706543 30.5642 0.706543 29.4805V3.9895C0.706543 2.89817 1.09571 1.9605 1.87404 1.1765C2.65271 0.392168 3.58388 0 4.66754 0H30.1585C31.2499 0 32.1875 0.392168 32.9715 1.1765C33.7559 1.9605 34.148 2.89817 34.148 3.9895V14.485L40.424 8.209C40.7137 7.90033 41.0734 7.82733 41.503 7.99C41.933 8.153 42.148 8.44917 42.148 8.8785V24.5915C42.148 25.0208 41.933 25.317 41.503 25.48C41.0734 25.6427 40.7137 25.5697 40.424 25.261L34.148 18.985V29.4805C34.148 30.5642 33.7559 31.4953 32.9715 32.274C32.1875 33.0523 31.2499 33.4415 30.1585 33.4415H4.66754ZM4.66754 29.4805H30.1585V3.9895H4.66754V29.4805Z" fill="white"/>
</svg>
