<svg width="38" height="34" viewBox="0 0 38 34" fill="none" xmlns="http://www.w3.org/2000/svg">
<path d="M4.763 29.5065V31.339C4.763 31.9967 4.53167 32.5557 4.069 33.016C3.60633 33.4763 3.04467 33.7065 2.384 33.7065C1.712 33.7065 1.14667 33.4743 0.688 33.01C0.229333 32.546 0 31.9797 0 31.311V15.8285C0 15.6098 0.0129999 15.4008 0.0389999 15.2015C0.0649999 15.0018 0.120833 14.7905 0.2065 14.5675L4.05 2.96501C4.30633 2.14335 4.77717 1.48801 5.4625 0.999014C6.1475 0.509681 6.91867 0.265015 7.776 0.265015H29.637C30.4943 0.265015 31.2655 0.509681 31.9505 0.999014C32.6358 1.48801 33.1162 2.14335 33.3915 2.96501L37.2065 14.5675C37.2922 14.7905 37.3527 15.0018 37.388 15.2015C37.4237 15.4008 37.4415 15.6098 37.4415 15.8285V31.339C37.4415 31.9967 37.208 32.5557 36.741 33.016C36.2743 33.4763 35.7075 33.7065 35.0405 33.7065C34.3832 33.7065 33.8203 33.4743 33.352 33.01C32.884 32.546 32.65 31.9797 32.65 31.311V29.5065H4.763ZM5.1675 12.3H32.274L29.6085 4.25452H7.8045L5.1675 12.3ZM9.136 23.1585C9.89167 23.1585 10.5325 22.896 11.0585 22.371C11.5848 21.846 11.848 21.2085 11.848 20.4585C11.848 19.6808 11.5807 19.0198 11.046 18.4755C10.5117 17.9308 9.879 17.6585 9.148 17.6585C8.35133 17.6585 7.6855 17.9297 7.1505 18.472C6.6155 19.014 6.348 19.6723 6.348 20.447C6.348 21.2213 6.61433 21.8668 7.147 22.3835C7.67967 22.9002 8.34267 23.1585 9.136 23.1585ZM28.3435 23.1585C29.1212 23.1585 29.7823 22.896 30.327 22.371C30.8713 21.846 31.1435 21.2085 31.1435 20.4585C31.1435 19.6808 30.8723 19.0198 30.33 18.4755C29.788 17.9308 29.1297 17.6585 28.355 17.6585C27.5807 17.6585 26.9352 17.9297 26.4185 18.472C25.9018 19.014 25.6435 19.6723 25.6435 20.447C25.6435 21.2213 25.906 21.8668 26.431 22.3835C26.956 22.9002 27.5935 23.1585 28.3435 23.1585ZM3.961 25.5455H33.452V15.3H3.961V25.5455Z" fill="white"/>
</svg>
