<svg width="44" height="38" viewBox="0 0 44 38" fill="none" xmlns="http://www.w3.org/2000/svg">
<path d="M28.0304 33.9435V31.5415H23.9804C22.8917 31.5415 21.9594 31.1585 21.1834 30.3925C20.4074 29.6265 20.0194 28.6892 20.0194 27.5805V10.4195H16.0194V13.0715C16.0194 14.1132 15.6386 15.015 14.8769 15.777C14.1149 16.5387 13.2131 16.9195 12.1714 16.9195H4.83039C3.72172 16.9195 2.78439 16.5337 2.01839 15.762C1.25238 14.9907 0.869385 14.0469 0.869385 12.9305V4.16954C0.869385 3.05321 1.25238 2.10921 2.01839 1.33754C2.78439 0.566209 3.72172 0.180542 4.83039 0.180542H12.1714C13.2131 0.180542 14.1149 0.561377 14.8769 1.32304C15.6386 2.08471 16.0194 2.98654 16.0194 4.02854V6.43054H28.0304V4.02854C28.0304 2.98654 28.4112 2.08471 29.1729 1.32304C29.9349 0.561377 30.8367 0.180542 31.8784 0.180542H39.1694C40.2857 0.180542 41.2297 0.566209 42.0014 1.33754C42.7731 2.10921 43.1589 3.05321 43.1589 4.16954V12.9305C43.1589 14.0469 42.7731 14.9907 42.0014 15.762C41.2297 16.5337 40.2857 16.9195 39.1694 16.9195H31.8784C30.8367 16.9195 29.9349 16.5387 29.1729 15.777C28.4112 15.015 28.0304 14.1132 28.0304 13.0715V10.4195H23.9804V27.5805H28.0304V24.9285C28.0304 23.8869 28.4112 22.985 29.1729 22.223C29.9349 21.4614 30.8367 21.0805 31.8784 21.0805H39.1694C40.2857 21.0805 41.2297 21.4685 42.0014 22.2445C42.7731 23.0202 43.1589 23.9525 43.1589 25.0415V33.8305C43.1589 34.9392 42.7731 35.8765 42.0014 36.6425C41.2297 37.4085 40.2857 37.7915 39.1694 37.7915H31.8784C30.8367 37.7915 29.9349 37.4147 29.1729 36.661C28.4112 35.9074 28.0304 35.0015 28.0304 33.9435ZM32.0194 12.9305H39.1694V4.16954H32.0194V12.9305ZM32.0194 33.8305H39.1694V25.0415H32.0194V33.8305ZM4.83039 12.9305H12.0584V4.16954H4.83039V12.9305Z" fill="white"/>
</svg>
