<svg width="33" height="41" viewBox="0 0 33 41" fill="none" xmlns="http://www.w3.org/2000/svg">
<path d="M8.299 20.0649V17.0649H24.299V20.0649H8.299ZM8.299 12.0649V9.0649H24.299V12.0649H8.299ZM3.4065 24.8614H19.1195C20.0322 24.8614 20.882 25.0669 21.669 25.4779C22.4557 25.8886 23.1283 26.4404 23.687 27.1334L29.1915 34.3139V3.67241H3.4065V24.8614ZM3.4065 37.4574H27.285L21.014 29.2344C20.78 28.9387 20.4978 28.7037 20.1675 28.5294C19.8372 28.3554 19.4878 28.2684 19.1195 28.2684H3.4065V37.4574ZM29.1915 40.8639H3.4065C2.4865 40.8639 1.68883 40.5261 1.0135 39.8504C0.337833 39.1751 0 38.3774 0 37.4574V3.67241C0 2.74907 0.337833 1.94857 1.0135 1.2709C1.68883 0.592905 2.4865 0.253906 3.4065 0.253906H29.1915C30.1148 0.253906 30.9153 0.592905 31.593 1.2709C32.271 1.94857 32.61 2.74907 32.61 3.67241V37.4574C32.61 38.3774 32.271 39.1751 31.593 39.8504C30.9153 40.5261 30.1148 40.8639 29.1915 40.8639Z" fill="white"/>
</svg>
