<svg width="35" height="44" viewBox="0 0 35 44" fill="none" xmlns="http://www.w3.org/2000/svg">
<path d="M4.55353 43.215C3.4642 43.215 2.5317 42.8272 1.75603 42.0515C0.980363 41.2758 0.592529 40.3433 0.592529 39.254V18.063C0.592529 16.966 0.980363 16.0268 1.75603 15.2455C2.5317 14.4642 3.4642 14.0735 4.55353 14.0735H7.48803V9.8955C7.48803 7.1475 8.44086 4.81117 10.3465 2.8865C12.2519 0.962166 14.5689 0 17.2975 0C20.0262 0 22.3437 0.962166 24.25 2.8865C26.1567 4.81117 27.11 7.1475 27.11 9.8955V14.0735H30.0445C31.1415 14.0735 32.0807 14.4642 32.862 15.2455C33.6434 16.0268 34.034 16.966 34.034 18.063V39.254C34.034 40.3433 33.6434 41.2758 32.862 42.0515C32.0807 42.8272 31.1415 43.215 30.0445 43.215H4.55353ZM4.55353 39.254H30.0445V18.063H4.55353V39.254ZM17.3075 32.5085C18.3685 32.5085 19.274 32.1413 20.024 31.407C20.774 30.6727 21.149 29.7898 21.149 28.7585C21.149 27.7585 20.7712 26.8502 20.0155 26.0335C19.2599 25.2168 18.3515 24.8085 17.2905 24.8085C16.2295 24.8085 15.324 25.2168 14.574 26.0335C13.824 26.8502 13.449 27.7668 13.449 28.7835C13.449 29.8002 13.8269 30.6752 14.5825 31.4085C15.3382 32.1418 16.2465 32.5085 17.3075 32.5085ZM11.449 14.0735H23.149V9.902C23.149 8.23667 22.5859 6.83483 21.4595 5.6965C20.3329 4.55817 18.9502 3.989 17.3115 3.989C15.6729 3.989 14.286 4.55817 13.151 5.6965C12.0164 6.83483 11.449 8.23667 11.449 9.902V14.0735Z" fill="white"/>
</svg>
