<svg width="50" height="47" viewBox="0 0 50 47" fill="none" xmlns="http://www.w3.org/2000/svg">
<path d="M12.9859 46.8965C11.3312 46.8965 9.9239 46.3142 8.7639 45.1495C7.60357 43.9848 7.0234 42.5753 7.0234 40.921C7.0234 39.2663 7.60457 37.8588 8.7669 36.6985C9.9289 35.5385 11.3356 34.9585 12.9869 34.9585C13.4512 34.9585 13.8694 34.9982 14.2414 35.0775C14.6131 35.1568 14.9774 35.2758 15.3344 35.4345L19.4169 30.302C18.8076 29.5433 18.3362 28.6763 18.0029 27.701C17.6696 26.7257 17.5822 25.7182 17.7409 24.6785L11.8944 22.6355C11.3784 23.4768 10.6972 24.1348 9.8509 24.6095C9.00457 25.0842 8.0299 25.3215 6.9269 25.3215C5.27257 25.3215 3.86307 24.7405 2.6984 23.5785C1.53407 22.4162 0.951904 21.0095 0.951904 19.3585C0.951904 17.7042 1.53424 16.2927 2.6989 15.124C3.86357 13.9557 5.27307 13.3715 6.9274 13.3715C8.58207 13.3715 9.98957 13.9557 11.1499 15.124C12.3099 16.2927 12.8899 17.7048 12.8899 19.3605V19.5225L18.7749 21.6225C19.3749 20.5718 20.0979 19.7652 20.9439 19.2025C21.7899 18.6398 22.7176 18.2363 23.7269 17.992V11.738C22.4269 11.3633 21.3779 10.6227 20.5799 9.516C19.7822 8.40967 19.3834 7.23183 19.3834 5.9825C19.3834 4.33083 19.9657 2.92083 21.1304 1.7525C22.2951 0.584166 23.7046 0 25.3589 0C27.0136 0 28.4231 0.584166 29.5874 1.7525C30.7514 2.92083 31.3334 4.33083 31.3334 5.9825C31.3334 7.23183 30.9281 8.40967 30.1174 9.516C29.3071 10.6227 28.2646 11.3633 26.9899 11.738V17.9965C27.9992 18.2378 28.9352 18.6418 29.7979 19.2085C30.6606 19.7752 31.3976 20.5798 32.0089 21.6225L37.8269 19.5225V19.3585C37.8269 17.7042 38.4079 16.2927 39.5699 15.124C40.7322 13.9557 42.1389 13.3715 43.7899 13.3715C45.4442 13.3715 46.8557 13.9558 48.0244 15.1245C49.1927 16.2932 49.7769 17.7047 49.7769 19.359C49.7769 21.0137 49.1927 22.4212 48.0244 23.5815C46.8557 24.7415 45.4429 25.3215 43.7859 25.3215C42.6869 25.3215 41.7056 25.0842 40.8419 24.6095C39.9782 24.1348 39.3011 23.4728 38.8104 22.6235L32.9759 24.6735C33.1186 25.7245 33.0356 26.7357 32.7269 27.707C32.4182 28.6783 31.9426 29.5433 31.2999 30.302L35.3944 35.4585C35.7511 35.2918 36.1134 35.1668 36.4814 35.0835C36.8494 35.0002 37.2584 34.9585 37.7084 34.9585C39.3907 34.9585 40.8107 35.5395 41.9684 36.7015C43.1261 37.8638 43.7049 39.2705 43.7049 40.9215C43.7049 42.5758 43.1219 43.9853 41.9559 45.15C40.7899 46.3143 39.3812 46.8965 37.7299 46.8965C36.0756 46.8965 34.6662 46.3153 33.5019 45.153C32.3372 43.9903 31.7549 42.5787 31.7549 40.918C31.7549 40.228 31.8486 39.6048 32.0359 39.0485C32.2232 38.4922 32.4836 37.96 32.8169 37.452L28.7464 32.3315C27.6754 32.8742 26.5367 33.1455 25.3304 33.1455C24.1237 33.1455 22.9911 32.8742 21.9324 32.3315L17.8999 37.502C18.2332 38.01 18.4936 38.5338 18.6809 39.0735C18.8682 39.6132 18.9619 40.228 18.9619 40.918C18.9619 42.5787 18.3796 43.9903 17.2149 45.153C16.0502 46.3153 14.6406 46.8965 12.9859 46.8965ZM6.9284 22.0585C7.68607 22.0585 8.32524 21.7975 8.8459 21.2755C9.36657 20.7538 9.6269 20.1122 9.6269 19.3505C9.6269 18.5892 9.3659 17.9502 8.8439 17.4335C8.32224 16.9168 7.68057 16.6585 6.9189 16.6585C6.15757 16.6585 5.51857 16.9173 5.0019 17.435C4.48524 17.953 4.2269 18.5947 4.2269 19.36C4.2269 20.1177 4.48574 20.7568 5.0034 21.2775C5.5214 21.7982 6.16307 22.0585 6.9284 22.0585ZM12.9884 43.6215C13.7541 43.6215 14.3952 43.3627 14.9119 42.845C15.4286 42.327 15.6869 41.6853 15.6869 40.92C15.6869 40.1623 15.4279 39.5232 14.9099 39.0025C14.3919 38.4818 13.7502 38.2215 12.9849 38.2215C12.2196 38.2215 11.5786 38.4825 11.0619 39.0045C10.5452 39.5262 10.2869 40.1658 10.2869 40.9235C10.2869 41.6888 10.5457 42.3298 11.0634 42.8465C11.5814 43.3632 12.2231 43.6215 12.9884 43.6215ZM25.3604 8.6865C26.1257 8.6865 26.7667 8.42567 27.2834 7.904C27.8001 7.38233 28.0584 6.74267 28.0584 5.985C28.0584 5.21933 27.7994 4.57817 27.2814 4.0615C26.7637 3.54483 26.1221 3.2865 25.3564 3.2865C24.5911 3.2865 23.9501 3.5455 23.4334 4.0635C22.9167 4.58116 22.6584 5.22283 22.6584 5.9885C22.6584 6.74616 22.9174 7.38533 23.4354 7.906C23.9531 8.42633 24.5947 8.6865 25.3604 8.6865ZM25.3819 29.739C26.5612 29.739 27.5602 29.3217 28.3789 28.487C29.1979 27.6527 29.6074 26.6458 29.6074 25.4665C29.6074 24.2872 29.1967 23.2882 28.3754 22.4695C27.5544 21.6505 26.5492 21.241 25.3599 21.241C24.1972 21.241 23.1982 21.6517 22.3629 22.473C21.5272 23.294 21.1094 24.2992 21.1094 25.4885C21.1094 26.6512 21.5267 27.6502 22.3614 28.4855C23.1957 29.3212 24.2026 29.739 25.3819 29.739ZM37.7319 43.6215C38.4972 43.6215 39.1382 43.3627 39.6549 42.845C40.1716 42.327 40.4299 41.6853 40.4299 40.92C40.4299 40.1623 40.1711 39.5232 39.6534 39.0025C39.1354 38.4818 38.4937 38.2215 37.7284 38.2215C36.9627 38.2215 36.3216 38.4825 35.8049 39.0045C35.2882 39.5262 35.0299 40.1658 35.0299 40.9235C35.0299 41.6888 35.2889 42.3298 35.8069 42.8465C36.3249 43.3632 36.9666 43.6215 37.7319 43.6215ZM43.7979 22.0585C44.5592 22.0585 45.1982 21.7975 45.7149 21.2755C46.2316 20.7538 46.4899 20.1122 46.4899 19.3505C46.4899 18.5892 46.2311 17.9502 45.7134 17.4335C45.1954 16.9168 44.5537 16.6585 43.7884 16.6585C43.0307 16.6585 42.3916 16.9173 41.8709 17.435C41.3502 17.953 41.0899 18.5947 41.0899 19.36C41.0899 20.1177 41.3509 20.7568 41.8729 21.2775C42.3946 21.7982 43.0362 22.0585 43.7979 22.0585Z" fill="white"/>
</svg>
