<svg width="40" height="41" viewBox="0 0 40 41" fill="none" xmlns="http://www.w3.org/2000/svg">
<path d="M25.3583 38.7076L17.2268 30.5761L19.6158 28.1751L25.3583 33.9171L37.2008 22.0751L39.5898 24.4761L25.3583 38.7076ZM36.6693 17.8401H33.2508V7.59756H30.3103V12.2411H6.40633V7.59756H3.46583V37.3826H15.9083V40.7891H3.46583C2.48749 40.7891 1.67516 40.4677 1.02883 39.8251C0.382493 39.1827 0.0593262 38.3686 0.0593262 37.3826V7.59756C0.0593262 6.61156 0.38066 5.79539 1.02333 5.14905C1.66566 4.50239 2.47983 4.17906 3.46583 4.17906H13.2313C13.4963 3.00439 14.106 2.03805 15.0603 1.28005C16.0143 0.522387 17.1137 0.143555 18.3583 0.143555C19.5903 0.143555 20.6845 0.522387 21.6408 1.28005C22.5975 2.03805 23.2163 3.00439 23.4973 4.17906H33.2508C34.2368 4.17906 35.053 4.50239 35.6993 5.14905C36.346 5.79539 36.6693 6.61156 36.6693 7.59756V17.8401ZM18.3583 7.46606C18.925 7.46606 19.4 7.27239 19.7833 6.88506C20.1667 6.49772 20.3583 6.02472 20.3583 5.46606C20.3583 4.89939 20.1667 4.42439 19.7833 4.04106C19.4 3.65772 18.925 3.46606 18.3583 3.46606C17.7917 3.46606 17.3167 3.65772 16.9333 4.04106C16.55 4.42439 16.3583 4.89939 16.3583 5.46606C16.3583 6.02472 16.55 6.49772 16.9333 6.88506C17.3167 7.27239 17.7917 7.46606 18.3583 7.46606Z" fill="white"/>
</svg>
