<svg width="44" height="41" viewBox="0 0 44 41" fill="none" xmlns="http://www.w3.org/2000/svg">
<path d="M32.9314 40.8251H10.6834V14.8906L24.4519 0.62207L26.6349 2.30857C26.8565 2.48824 27.025 2.74374 27.1404 3.07507C27.2554 3.40674 27.3129 3.80941 27.3129 4.28307V4.67507L25.0869 14.8906H39.9169C40.8175 14.8906 41.6125 15.2324 42.3019 15.9161C42.9909 16.5997 43.3354 17.3934 43.3354 18.2971V21.8511C43.3354 22.1041 43.3584 22.3639 43.4044 22.6306C43.4504 22.8972 43.4195 23.1472 43.3119 23.3806L36.9639 38.0361C36.6392 38.8167 36.0949 39.4767 35.3309 40.0161C34.5672 40.5554 33.7674 40.8251 32.9314 40.8251ZM13.9584 37.4186H33.5814L39.9049 22.4091V18.2971H21.0159L23.5584 6.28957L13.9584 16.4396V37.4186ZM10.6834 14.8906V18.2971H4.30836V37.4186H10.6834V40.8251H0.901855V14.8906H10.6834Z" fill="white"/>
</svg>
