<svg width="45" height="41" viewBox="0 0 45 41" fill="none" xmlns="http://www.w3.org/2000/svg">
<path d="M19.8585 40.7895C19.3945 40.7895 19.0027 40.6285 18.683 40.3065C18.363 39.9848 18.203 39.5907 18.203 39.124C18.203 38.6573 18.363 38.2643 18.683 37.945C19.0027 37.626 19.3945 37.4665 19.8585 37.4665H42.8585C43.3258 37.4665 43.7205 37.6282 44.0425 37.9515C44.3648 38.2748 44.526 38.671 44.526 39.14C44.526 39.609 44.3648 40.0012 44.0425 40.3165C43.7205 40.6318 43.3258 40.7895 42.8585 40.7895H19.8585ZM20.203 34.4665C20.203 31.6868 21.051 29.2727 22.747 27.224C24.443 25.1753 26.595 23.902 29.203 23.404V22.308C29.203 21.7113 29.4108 21.2035 29.8265 20.7845C30.2422 20.3652 30.7508 20.1555 31.3525 20.1555C31.9632 20.1555 32.478 20.3652 32.897 20.7845C33.3163 21.2035 33.526 21.7163 33.526 22.323V23.4095C36.0927 23.9038 38.2343 25.1753 39.951 27.224C41.6677 29.2727 42.526 31.6868 42.526 34.4665H20.203ZM24.291 31.1555H38.376C37.7927 29.7842 36.8712 28.6618 35.6115 27.7885C34.3522 26.9152 32.9365 26.4785 31.3645 26.4785C29.7562 26.4785 28.3205 26.9152 27.0575 27.7885C25.7948 28.6618 24.8727 29.7842 24.291 31.1555ZM0 18.972V5.272C0 4.36633 0.319333 3.594 0.958 2.955C1.597 2.31633 2.36933 1.997 3.275 1.997H8.0315C8.85383 1.997 9.57033 2.26433 10.181 2.799C10.7913 3.33367 11.1205 4.00033 11.1685 4.799L25.617 0.670999C25.9293 0.588332 26.254 0.546997 26.591 0.546997C26.928 0.546997 27.2498 0.588332 27.5565 0.670999L41.763 5.0405C42.0103 5.11517 42.2053 5.25066 42.348 5.447C42.4907 5.643 42.562 5.8625 42.562 6.1055V7.248C42.562 8.64133 42.0587 9.83533 41.052 10.83C40.0453 11.8247 38.8197 12.322 37.375 12.322H31.962V12.226C31.962 13.3833 31.6567 14.4492 31.046 15.4235C30.4353 16.3978 29.5862 17.0803 28.4985 17.471L16.3565 22.023C16.1658 22.0977 15.9668 22.1537 15.7595 22.191C15.5522 22.2283 15.3533 22.247 15.163 22.247H3.275C2.36933 22.247 1.597 21.9275 0.958 21.2885C0.319333 20.6498 0 19.8777 0 18.972ZM3.275 12.122V18.972H7.8315V5.272H3.275V12.122ZM11.1685 13.604V18.972H15.237L27.487 14.322C27.787 14.222 28.0287 13.9387 28.212 13.472C28.3953 13.0053 28.487 12.622 28.487 12.322H24.625L20.2845 13.762C19.9195 13.894 19.5537 13.8703 19.187 13.691C18.8203 13.5117 18.5537 13.2387 18.387 12.872C18.228 12.4233 18.2402 12.0008 18.4235 11.6045C18.6068 11.2082 18.9128 10.9438 19.3415 10.8115L24.201 9.322H37.372C37.831 9.322 38.2462 9.1575 38.6175 8.8285C38.9892 8.4995 39.175 8.114 39.175 7.672L26.387 3.772L11.1685 8.236V13.604Z" fill="white"/>
</svg>
