<svg width="45" height="33" viewBox="0 0 45 33" fill="none" xmlns="http://www.w3.org/2000/svg">
<path d="M28.6335 32.5735C24.1428 32.5735 20.3375 31.0129 17.2175 27.8915C14.0978 24.7702 12.538 20.969 12.538 16.488C12.538 11.9977 14.0978 8.19286 17.2175 5.07353C20.3375 1.9542 24.1428 0.394531 28.6335 0.394531C33.1175 0.394531 36.919 1.9537 40.038 5.07203C43.1573 8.19036 44.717 11.9959 44.717 16.4885C44.717 20.9722 43.1573 24.774 40.038 27.894C36.919 31.0137 33.1175 32.5735 28.6335 32.5735ZM28.6205 29.251C32.1615 29.251 35.1757 28.0112 37.663 25.5315C40.1507 23.0519 41.3945 20.041 41.3945 16.499C41.3945 12.9567 40.1547 9.94086 37.675 7.45153C35.1957 4.96186 32.1848 3.71703 28.6425 3.71703C25.1002 3.71703 22.0843 4.95753 19.595 7.43853C17.1053 9.91986 15.8605 12.9327 15.8605 16.477C15.8605 20.018 17.101 23.0322 19.582 25.5195C22.0633 28.0072 25.0762 29.251 28.6205 29.251ZM33.554 23.688L35.8815 21.3605L30.289 15.7735V8.50203H26.966V17.15L33.554 23.688ZM2 10.1455V6.82253H10.538V10.1455H2ZM0 18.1455V14.8225H10.538V18.1455H0ZM2 26.1455V22.8225H10.538V26.1455H2Z" fill="white"/>
</svg>
