<svg width="140" height="130" viewBox="0 0 140 130" fill="none" xmlns="http://www.w3.org/2000/svg">
<rect x="21" y="1" width="98" height="128" fill="white" stroke="#555555" stroke-width="2"/>
<rect y="30" width="140" height="70" fill="#EE0000"/>
<path d="M39.688 49.728C44.136 49.728 47.368 50.656 49.384 52.512C51.432 54.368 52.456 56.928 52.456 60.192C52.456 61.664 52.232 63.072 51.784 64.416C51.336 65.728 50.584 66.912 49.528 67.968C48.472 69.024 47.08 69.856 45.352 70.464C43.656 71.072 41.544 71.376 39.016 71.376H35.608V84H29.464V49.728H39.688ZM39.304 54.816H35.608V66.288H38.392C40.056 66.288 41.464 66.096 42.616 65.712C43.8 65.296 44.696 64.656 45.304 63.792C45.912 62.928 46.216 61.808 46.216 60.432C46.216 58.544 45.656 57.136 44.536 56.208C43.416 55.28 41.672 54.816 39.304 54.816ZM87.2148 66.528C87.2148 70.368 86.4788 73.584 85.0068 76.176C83.5668 78.768 81.4708 80.72 78.7188 82.032C75.9988 83.344 72.7028 84 68.8307 84H59.1828V49.728H69.8388C73.3908 49.728 76.4628 50.368 79.0548 51.648C81.6468 52.928 83.6468 54.816 85.0548 57.312C86.4948 59.776 87.2148 62.848 87.2148 66.528ZM80.7828 66.72C80.7828 64 80.3668 61.76 79.5348 60C78.7028 58.24 77.4708 56.944 75.8388 56.112C74.2068 55.248 72.2068 54.816 69.8388 54.816H65.3268V78.864H69.0228C72.9908 78.864 75.9348 77.856 77.8548 75.84C79.8068 73.792 80.7828 70.752 80.7828 66.72ZM100.575 84H94.5265V49.728H113.967V54.864H100.575V64.944H113.055V70.08H100.575V84Z" fill="white"/>
</svg>
