<svg width="42" height="42" viewBox="0 0 42 42" fill="none" xmlns="http://www.w3.org/2000/svg">
<path d="M1.17203 11.961V1.334H4.31553V6.5025C6.07253 4.48483 8.14669 2.89666 10.538 1.738C12.9294 0.579331 15.4624 0 18.137 0C23.2104 0 27.5355 1.73333 31.1125 5.2C34.6899 8.66667 36.5104 12.912 36.574 17.936V18.436H33.1675V17.786C33.0959 13.7483 31.5945 10.3443 28.6635 7.574C25.7329 4.80367 22.224 3.4185 18.137 3.4185C15.942 3.4185 13.8769 3.90933 11.9415 4.891C10.0059 5.87233 8.31669 7.17717 6.87403 8.8055H11.873V11.961H1.17203ZM2.73141e-05 18.261H3.39453C3.39453 22.332 4.78003 25.8083 7.55103 28.69C10.322 31.5713 13.7312 33.04 17.7785 33.096H18.3785L20.3775 36.46C20.0109 36.5267 19.6359 36.5683 19.2525 36.585C18.8692 36.6017 18.4775 36.61 18.0775 36.61C13.0309 36.602 8.75436 34.8118 5.24803 31.2395C1.74136 27.6668 -0.00797269 23.3407 2.73141e-05 18.261ZM22 24.0435L16.789 18.9325V8.161H19.9205V17.611L23.672 21.262L22 24.0435ZM30.798 41.811L30.286 38.463C29.702 38.3123 29.1514 38.0973 28.634 37.818C28.1164 37.5387 27.6362 37.1737 27.1935 36.723L24.3955 37.335L23.038 35.0435L25.424 32.8195C25.316 32.4435 25.264 32.0468 25.268 31.6295C25.272 31.2122 25.324 30.8115 25.424 30.4275L23.038 28.2035L24.3955 25.9L27.1935 26.524C27.6362 26.0733 28.1164 25.7083 28.634 25.429C29.1514 25.1497 29.702 24.9307 30.286 24.772L30.798 21.436H33.725L34.237 24.772C34.813 24.9307 35.3617 25.1497 35.883 25.429C36.4047 25.7083 36.8909 26.0733 37.3415 26.524L40.1275 25.9L41.497 28.2035L39.099 30.4275C39.207 30.8035 39.259 31.2022 39.255 31.6235C39.251 32.0448 39.199 32.4435 39.099 32.8195L41.497 35.0435L40.1275 37.335L37.3415 36.723C36.8909 37.1737 36.4047 37.5387 35.883 37.818C35.3617 38.0973 34.813 38.3123 34.237 38.463L33.725 41.811H30.798ZM32.2675 35.5575C33.4435 35.5575 34.3922 35.1968 35.1135 34.4755C35.8349 33.7542 36.1955 32.8055 36.1955 31.6295C36.1955 30.4455 35.8349 29.4928 35.1135 28.7715C34.3922 28.0502 33.4435 27.6895 32.2675 27.6895C31.0835 27.6895 30.1309 28.0502 29.4095 28.7715C28.6882 29.4928 28.3275 30.4455 28.3275 31.6295C28.3275 32.8055 28.6882 33.7542 29.4095 34.4755C30.1309 35.1968 31.0835 35.5575 32.2675 35.5575Z" fill="white"/>
</svg>
