<svg width="45" height="45" viewBox="0 0 45 45" fill="none" xmlns="http://www.w3.org/2000/svg">
<path d="M22.299 44.55C18.5657 44.55 14.9657 43.462 11.499 41.286C8.03233 39.1097 5.287 36.6208 3.263 33.8195V40.55H0V28.1435H12.4065V31.4065H5.5565C7.2565 33.9332 9.67167 36.2097 12.802 38.236C15.932 40.262 19.0977 41.275 22.299 41.275C24.883 41.275 27.3293 40.779 29.638 39.787C31.9467 38.795 33.9613 37.4467 35.682 35.742C37.4027 34.0373 38.769 32.0305 39.781 29.7215C40.793 27.4128 41.303 24.9545 41.311 22.3465H44.586C44.578 25.4198 43.987 28.3038 42.813 30.9985C41.6393 33.6928 40.0385 36.048 38.0105 38.064C35.9825 40.08 33.6213 41.665 30.927 42.819C28.2323 43.973 25.3563 44.55 22.299 44.55ZM20.7895 36.625V33.973C19.3212 33.5887 18.0667 32.945 17.026 32.042C15.9857 31.1387 15.1195 29.9003 14.4275 28.327L17.109 27.4295C17.501 28.7122 18.1993 29.7202 19.204 30.4535C20.2087 31.1868 21.361 31.5535 22.661 31.5535C24.0023 31.5535 25.1007 31.2363 25.956 30.602C26.8117 29.968 27.2395 29.1257 27.2395 28.075C27.2395 26.999 26.8327 26.092 26.019 25.354C25.2057 24.6157 23.7222 23.7958 21.5685 22.8945C19.4968 22.0452 17.949 21.1273 16.925 20.141C15.9013 19.1543 15.3895 17.8323 15.3895 16.175C15.3895 14.7083 15.8815 13.4523 16.8655 12.407C17.8495 11.3617 19.1908 10.7143 20.8895 10.465V7.975H23.7825V10.465C25.0572 10.6143 26.1572 11.0223 27.0825 11.689C28.0082 12.3557 28.7622 13.3003 29.3445 14.523L26.813 15.7205C26.313 14.7712 25.6943 14.0632 24.957 13.5965C24.2197 13.1298 23.355 12.8965 22.363 12.8965C21.103 12.8965 20.108 13.1867 19.378 13.767C18.6477 14.347 18.2825 15.1337 18.2825 16.127C18.2825 17.178 18.71 18.0202 19.565 18.6535C20.4197 19.2868 21.8097 20.0035 23.735 20.8035C26.051 21.7702 27.6963 22.7967 28.671 23.883C29.6453 24.9697 30.1325 26.367 30.1325 28.075C30.1325 28.9323 29.9825 29.713 29.6825 30.417C29.3825 31.121 28.9557 31.725 28.402 32.229C27.848 32.733 27.173 33.1413 26.377 33.454C25.5807 33.7667 24.6825 33.973 23.6825 34.073V36.625H20.7895ZM0.0360001 22.2035C0.0360001 19.1542 0.619 16.2822 1.785 13.5875C2.951 10.8928 4.54383 8.5375 6.5635 6.5215C8.5835 4.50583 10.9448 2.915 13.6475 1.749C16.3498 0.582999 19.2377 0 22.311 0C26.0443 0 29.6483 1.09 33.123 3.27C36.5977 5.45 39.339 7.93683 41.347 10.7305V4H44.622V16.4065H32.2155V13.1435H39.0655C37.3415 10.5928 34.9168 8.31033 31.7915 6.296C28.6662 4.282 25.506 3.275 22.311 3.275C19.727 3.275 17.2807 3.771 14.972 4.763C12.6633 5.755 10.6487 7.10333 8.928 8.808C7.20733 10.5127 5.841 12.5195 4.829 14.8285C3.817 17.1372 3.307 19.5955 3.299 22.2035H0.0360001Z" fill="white"/>
</svg>
