<svg width="49" height="25" viewBox="0 0 49 25" fill="none" xmlns="http://www.w3.org/2000/svg">
<path d="M0 24.562V21.7635C0 20.4335 0.705667 19.3528 2.117 18.5215C3.528 17.6905 5.3765 17.275 7.6625 17.275C8.02383 17.275 8.36683 17.2813 8.6915 17.294C9.01617 17.3067 9.34183 17.3365 9.6685 17.3835C9.38583 17.9858 9.17317 18.5978 9.0305 19.2195C8.88783 19.8415 8.8165 20.4905 8.8165 21.1665V24.562H0ZM12 24.562V21.1685C12 20.0778 12.2937 19.0808 12.881 18.1775C13.4683 17.2745 14.3033 16.4857 15.386 15.811C16.4687 15.1363 17.7587 14.6283 19.256 14.287C20.7537 13.9457 22.3817 13.775 24.14 13.775C25.9323 13.775 27.5753 13.9457 29.069 14.287C30.5627 14.6283 31.8527 15.1363 32.939 15.811C34.0217 16.4857 34.8503 17.2745 35.425 18.1775C35.9997 19.0808 36.287 20.0778 36.287 21.1685V24.562H12ZM39.4665 24.562V21.1635C39.4665 20.4698 39.4022 19.8153 39.2735 19.2C39.1448 18.5843 38.9432 17.9802 38.6685 17.3875C38.9952 17.3378 39.3212 17.3067 39.6465 17.294C39.9718 17.2813 40.3042 17.275 40.6435 17.275C42.9428 17.275 44.7917 17.6842 46.19 18.5025C47.588 19.3208 48.287 20.4095 48.287 21.7685V24.562H39.4665ZM15.4065 21.323H32.8805V21.023C32.8168 19.8293 31.9752 18.8608 30.3555 18.1175C28.7358 17.3738 26.6652 17.002 24.1435 17.002C21.6218 17.002 19.5512 17.3758 17.9315 18.1235C16.3118 18.8708 15.4702 19.854 15.4065 21.073V21.323ZM7.6245 15.811C6.6465 15.811 5.80783 15.4592 5.1085 14.7555C4.4095 14.0522 4.06 13.2065 4.06 12.2185C4.06 11.2258 4.41083 10.3798 5.1125 9.6805C5.8145 8.98117 6.65817 8.6315 7.6435 8.6315C8.63417 8.6315 9.48117 8.98133 10.1845 9.681C10.8875 10.3803 11.239 11.2327 11.239 12.238C11.239 13.2133 10.8885 14.0527 10.1875 14.756C9.48617 15.4593 8.63183 15.811 7.6245 15.811ZM40.6245 15.811C39.6465 15.811 38.8078 15.4592 38.1085 14.7555C37.4095 14.0522 37.06 13.2065 37.06 12.2185C37.06 11.2258 37.4108 10.3798 38.1125 9.6805C38.8145 8.98117 39.6582 8.6315 40.6435 8.6315C41.6342 8.6315 42.4812 8.98133 43.1845 9.681C43.8875 10.3803 44.239 11.2327 44.239 12.238C44.239 13.2133 43.8885 14.0527 43.1875 14.756C42.4862 15.4593 41.6318 15.811 40.6245 15.811ZM24.1495 12.287C22.4412 12.287 20.9892 11.6892 19.7935 10.4935C18.5978 9.29783 18 7.84583 18 6.1375C18 4.4015 18.5978 2.94466 19.7935 1.767C20.9892 0.588998 22.4412 0 24.1495 0C25.8855 0 27.3423 0.588998 28.52 1.767C29.698 2.94466 30.287 4.4015 30.287 6.1375C30.287 7.84583 29.698 9.29783 28.52 10.4935C27.3423 11.6892 25.8855 12.287 24.1495 12.287ZM24.167 9.048C24.986 9.048 25.6728 8.76633 26.2275 8.203C26.7825 7.63967 27.06 6.94483 27.06 6.1185C27.06 5.2925 26.7797 4.60417 26.219 4.0535C25.6583 3.5025 24.9723 3.227 24.161 3.227C23.34 3.227 22.6478 3.50467 22.0845 4.06C21.5208 4.615 21.239 5.30283 21.239 6.1235C21.239 6.93817 21.5183 7.62933 22.077 8.197C22.6353 8.76433 23.332 9.048 24.167 9.048Z" fill="white"/>
</svg>
