<svg width="41" height="41" viewBox="0 0 41 41" fill="none" xmlns="http://www.w3.org/2000/svg">
<path d="M10.3057 37.1618V13.6758C10.3057 12.7205 10.6352 11.91 11.2942 11.2443C11.9532 10.5783 12.7552 10.2453 13.7002 10.2453H37.2102C38.1586 10.2453 38.9654 10.578 39.6307 11.2433C40.2961 11.9087 40.6287 12.7155 40.6287 13.6638V30.4728L30.5212 40.5683H13.7122C12.7672 40.5683 11.9632 40.2368 11.3002 39.5738C10.6372 38.9108 10.3057 38.1068 10.3057 37.1618ZM0.0687194 8.10283C-0.113947 7.15816 0.0675531 6.31316 0.61322 5.56783C1.15922 4.82249 1.90605 4.35816 2.85372 4.17483L26.0012 0.0703292C26.9462 -0.112337 27.7932 0.0608269 28.5422 0.589827C29.2912 1.11916 29.7577 1.85766 29.9417 2.80533L30.7177 7.24533H27.4067L26.7052 3.31933L3.36772 7.40933L7.30572 29.8138V34.0593C6.53539 33.985 5.86672 33.699 5.29972 33.2013C4.73272 32.7037 4.37389 32.0535 4.22322 31.2508L0.0687194 8.10283ZM13.6287 13.5683V37.2453H28.8012L37.3057 28.7528V13.5683H13.6287ZM23.7577 32.7453H27.1642V27.1158H32.8057V23.7093H27.1642V18.0683H23.7577V23.7093H18.1287V27.1158H23.7577V32.7453Z" fill="white"/>
</svg>
