<?xml version="1.0" encoding="UTF-8"?>
<svg id="Layer_1" xmlns="http://www.w3.org/2000/svg" version="1.1" viewBox="0 0 200 200">
  <!-- Generator: Adobe Illustrator 29.2.0, SVG Export Plug-In . SVG Version: 2.1.0 Build 108)  -->
  <defs>
    <style>
      .st0 {
        fill: #c5dff5;
      }

      .st0, .st1 {
        stroke: #37445f;
        stroke-linecap: round;
        stroke-linejoin: round;
        stroke-width: 7.7px;
      }

      .st1 {
        fill: none;
      }

      .st2 {
        display: none;
      }

      .st3 {
        fill: #010101;
      }
    </style>
  </defs>
  <g class="st2">
    <path class="st3" d="M86.7,139.5c-1.3,0-2.3-1-2.3-2.3v-25c0-1.3,1-2.3,2.3-2.3s2.3,1,2.3,2.3v25c0,1.3-1,2.3-2.3,2.3Z"/>
    <path class="st3" d="M113.3,139.5c-1.3,0-2.3-1-2.3-2.3v-25c0-1.3,1-2.3,2.3-2.3s2.3,1,2.3,2.3v25c0,1.3-1,2.3-2.3,2.3Z"/>
    <path class="st3" d="M100,84.6c-7.9,0-14.3-6.4-14.3-14.3s6.4-14.3,14.3-14.3,14.3,6.4,14.3,14.3-6.4,14.3-14.3,14.3ZM100,60.6c-5.3,0-9.7,4.3-9.7,9.7s4.3,9.7,9.7,9.7,9.7-4.3,9.7-9.7-4.3-9.7-9.7-9.7Z"/>
    <path class="st3" d="M126.2,139.5h-52.4c-1.3,0-2.3-1-2.3-2.3v-31.8c0-9.1,7.4-16.5,16.5-16.5h24c9.1,0,16.5,7.4,16.5,16.5v31.8c0,1.3-1,2.3-2.3,2.3ZM76.2,134.9h47.7v-29.5c0-6.5-5.3-11.8-11.8-11.8h-24c-6.5,0-11.8,5.3-11.8,11.8v29.5Z"/>
    <path class="st3" d="M146.7,125.7c-1.3,0-2.3-1-2.3-2.3v-22.2c0-1.3,1-2.3,2.3-2.3s2.3,1,2.3,2.3v22.2c0,1.3-1,2.3-2.3,2.3Z"/>
    <path class="st3" d="M135.1,78.5c-7,0-12.8-5.7-12.8-12.8s5.7-12.8,12.8-12.8,12.8,5.7,12.8,12.8-5.7,12.8-12.8,12.8ZM135.1,57.6c-4.5,0-8.1,3.6-8.1,8.1s3.6,8.1,8.1,8.1,8.1-3.6,8.1-8.1-3.6-8.1-8.1-8.1Z"/>
    <path class="st3" d="M157.8,125.7h-22.7c-1.3,0-2.3-1-2.3-2.3s1-2.3,2.3-2.3h20.4v-23c0-5.5-4.5-10-10-10h-20.8c-.2,0-.4,0-.7,0-1.3,0-2.4-.9-2.5-2.2,0-1.3.9-2.4,2.2-2.5.3,0,.7,0,1,0h20.8c8.1,0,14.7,6.6,14.7,14.7v25.4c0,1.3-1,2.3-2.3,2.3Z"/>
    <path class="st3" d="M113.3,139.5c-1.3,0-2.3-1-2.3-2.3v-25c0-1.3,1-2.3,2.3-2.3s2.3,1,2.3,2.3v25c0,1.3-1,2.3-2.3,2.3Z"/>
    <path class="st3" d="M86.7,139.5c-1.3,0-2.3-1-2.3-2.3v-25c0-1.3,1-2.3,2.3-2.3s2.3,1,2.3,2.3v25c0,1.3-1,2.3-2.3,2.3Z"/>
    <path class="st3" d="M53.3,125.7c-1.3,0-2.3-1-2.3-2.3v-22.2c0-1.3,1-2.3,2.3-2.3s2.3,1,2.3,2.3v22.2c0,1.3-1,2.3-2.3,2.3Z"/>
    <path class="st3" d="M64.9,78.5c-7,0-12.8-5.7-12.8-12.8s5.7-12.8,12.8-12.8,12.8,5.7,12.8,12.8-5.7,12.8-12.8,12.8ZM64.9,57.6c-4.4,0-8.1,3.6-8.1,8.1s3.6,8.1,8.1,8.1,8.1-3.6,8.1-8.1-3.6-8.1-8.1-8.1Z"/>
    <path class="st3" d="M64.9,125.7h-22.7c-1.3,0-2.3-1-2.3-2.3v-25.4c0-8.1,6.6-14.7,14.7-14.7h20.8c.3,0,.7,0,1,0,1.3,0,2.3,1.2,2.2,2.5s-1.2,2.3-2.5,2.2c-.2,0-.4,0-.7,0h-20.8c-5.5,0-10,4.5-10,10v23h20.4c1.3,0,2.3,1,2.3,2.3s-1,2.3-2.3,2.3Z"/>
    <path class="st3" d="M137.3,139.5H62.7c-1.3,0-2.3-1-2.3-2.3s1-2.3,2.3-2.3h74.6c1.3,0,2.3,1,2.3,2.3s-1,2.3-2.3,2.3Z"/>
  </g>
  <g class="st2">
    <path class="st3" d="M121.6,112.2c-1,0-2-.8-2.1-1.8-1.3-9.2-9.2-15.4-19.5-15.4s-18.4,6.2-19.6,15.3c-.1,1.2-1.2,2-2.4,1.9-1.2-.1-2-1.2-1.9-2.4,1.4-11.4,11-19.1,23.8-19.1s22.1,7.8,23.8,19.1c.2,1.2-.6,2.3-1.8,2.4-.1,0-.2,0-.3,0Z"/>
    <path class="st3" d="M99.6,86.1c-7.2,0-13.1-5.9-13.1-13.1s5.9-13.1,13.1-13.1,13.1,5.9,13.1,13.1-5.9,13.1-13.1,13.1ZM99.6,64.1c-4.9,0-8.9,4-8.9,8.9s4,8.9,8.9,8.9,8.9-4,8.9-8.9-4-8.9-8.9-8.9Z"/>
    <path class="st3" d="M100,164.3c-.6,0-1.2-.3-1.6-.7l-36.5-40.6c-13.7-15.2-17.3-36.5-9.4-55.6,7.7-18.7,24.1-30.5,43.9-31.6,2.4-.1,4.8-.1,7.2,0,19.8,1.1,36.3,13,43.9,31.6,7.9,19.1,4.2,40.4-9.4,55.6l-36.5,40.6c-.4.5-1,.7-1.6.7ZM100,40c-1.1,0-2.2,0-3.3,0-18.1,1.1-33.2,11.9-40.2,29-7.2,17.5-3.9,37.1,8.7,51.1l34.9,38.8,34.9-38.8c12.6-14,15.9-33.6,8.7-51.1-7-17.1-22.1-27.9-40.2-29-1.1,0-2.2,0-3.3,0Z"/>
    <path class="st3" d="M100,128.6c-22,0-39.9-17.9-39.9-39.9s17.9-39.9,39.9-39.9,39.9,17.9,39.9,39.9-17.9,39.9-39.9,39.9ZM100,53.1c-19.6,0-35.6,16-35.6,35.6s16,35.6,35.6,35.6,35.6-16,35.6-35.6-16-35.6-35.6-35.6Z"/>
    <path class="st3" d="M129.2,164.3h-59.1c-1.2,0-2.1-1-2.1-2.1s1-2.1,2.1-2.1h59.1c1.2,0,2.1,1,2.1,2.1s-1,2.1-2.1,2.1Z"/>
  </g>
  <path class="st0" d="M118.2,52.5c-16.3-1.1-29.9,11.9-29.9,27.9,0-16.1-13.6-29-29.9-27.9-14.9,1-26.1,14-26.1,28.9s6.7,30.5,18.3,40.9l37.7,33.6,37.7-33.6c11.7-10.4,18.3-25.3,18.3-40.9s-11.3-27.9-26.1-28.9Z"/>
  <polyline class="st1" points="10.3 108.9 59.8 108.9 66.8 82.3 80.7 129.9 95 92.8 101.7 109.7 114.9 109.7"/>
</svg>