<svg width="38" height="38" viewBox="0 0 38 38" fill="none" xmlns="http://www.w3.org/2000/svg">
<path d="M11.5119 19L14.9999 15.506C15.2999 15.207 15.4499 14.8413 15.4499 14.409C15.4499 13.9766 15.2999 13.611 14.9999 13.312C14.6999 13.012 14.3361 12.862 13.9084 12.862C13.4804 12.862 13.1109 13.012 12.7999 13.312L8.30543 17.7945C8.12343 17.9785 7.99093 18.1721 7.90793 18.3755C7.82493 18.5785 7.78343 18.7893 7.78343 19.008C7.78343 19.2266 7.82493 19.435 7.90793 19.633C7.99093 19.8313 8.12343 20.0221 8.30543 20.2055L12.8619 24.762C13.1729 25.062 13.5424 25.21 13.9704 25.206C14.3981 25.202 14.7619 25.0493 15.0619 24.748C15.3619 24.4466 15.5119 24.0783 15.5119 23.643C15.5119 23.2076 15.3619 22.8393 15.0619 22.538L11.5119 19ZM26.4879 19L22.9379 22.55C22.6379 22.85 22.4879 23.2166 22.4879 23.65C22.4879 24.0833 22.6379 24.45 22.9379 24.75C23.2379 25.05 23.6018 25.2 24.0294 25.2C24.4574 25.2 24.8269 25.05 25.1379 24.75L29.6944 20.2055C29.8764 20.0215 30.0089 19.8278 30.0919 19.6245C30.1749 19.4215 30.2164 19.2106 30.2164 18.992C30.2164 18.7733 30.1749 18.565 30.0919 18.367C30.0089 18.1686 29.8764 17.9778 29.6944 17.7945L25.1379 13.238C25.0059 13.0793 24.8388 12.9646 24.6364 12.894C24.4341 12.8233 24.2348 12.788 24.0384 12.788C23.8421 12.788 23.6533 12.8235 23.4719 12.8945C23.2906 12.9655 23.1221 13.0773 22.9664 13.23C22.6554 13.5516 22.4999 13.9266 22.4999 14.355C22.4999 14.7836 22.6499 15.1486 22.9499 15.45L26.4879 19ZM4.10743 37.299C3.18743 37.299 2.38976 36.9611 1.71443 36.2855C1.03876 35.6101 0.700928 34.8125 0.700928 33.8925V4.10746C0.700928 3.18413 1.03876 2.38363 1.71443 1.70596C2.38976 1.02796 3.18743 0.688965 4.10743 0.688965H33.8924C34.8158 0.688965 35.6163 1.02796 36.2939 1.70596C36.9719 2.38363 37.3109 3.18413 37.3109 4.10746V33.8925C37.3109 34.8125 36.9719 35.6101 36.2939 36.2855C35.6163 36.9611 34.8158 37.299 33.8924 37.299H4.10743ZM4.10743 33.8925H33.8924V4.10746H4.10743V33.8925Z" fill="white"/>
</svg>
