<svg width="42" height="38" viewBox="0 0 42 38" fill="none" xmlns="http://www.w3.org/2000/svg">
<path d="M27.1285 33.9759V31.0849H22.7035C21.7668 31.0849 20.9648 30.7533 20.2975 30.0899C19.6302 29.4269 19.2965 28.6231 19.2965 27.6784V10.3214H14.9215V13.4629C14.9215 14.3796 14.591 15.1686 13.93 15.8299C13.2687 16.4909 12.4797 16.8214 11.563 16.8214H3.92849C2.98348 16.8214 2.17948 16.4888 1.51648 15.8234C0.853151 15.1581 0.521484 14.3514 0.521484 13.4034V4.07144C0.521484 3.12344 0.853151 2.31678 1.51648 1.65144C2.17948 0.98611 2.98348 0.653442 3.92849 0.653442H11.563C12.4797 0.653442 13.2687 0.983943 13.93 1.64494C14.591 2.30628 14.9215 3.09527 14.9215 4.01194V6.90344H27.1285V4.01194C27.1285 3.09527 27.459 2.30628 28.12 1.64494C28.7813 0.983943 29.5703 0.653442 30.487 0.653442H38.0715C39.0198 0.653442 39.8267 0.98611 40.492 1.65144C41.1573 2.31678 41.49 3.12344 41.49 4.07144V13.4034C41.49 14.3514 41.1573 15.1581 40.492 15.8234C39.8267 16.4888 39.0198 16.8214 38.0715 16.8214H30.487C29.5703 16.8214 28.7813 16.4909 28.12 15.8299C27.459 15.1686 27.1285 14.3796 27.1285 13.4629V10.3214H22.7035V27.6784H27.1285V24.5369C27.1285 23.6203 27.459 22.8313 28.12 22.1699C28.7813 21.5089 29.5703 21.1784 30.487 21.1784H38.0715C39.0198 21.1784 39.8267 21.5119 40.492 22.1789C41.1573 22.8463 41.49 23.6483 41.49 24.5849V33.9284C41.49 34.8731 41.1573 35.6769 40.492 36.3399C39.8267 37.0033 39.0198 37.3349 38.0715 37.3349H30.487C29.5703 37.3349 28.7813 37.0059 28.12 36.3479C27.459 35.6903 27.1285 34.8996 27.1285 33.9759ZM30.5465 13.4034H38.0715V4.07144H30.5465V13.4034ZM30.5465 33.9284H38.0715V24.5849H30.5465V33.9284ZM3.92849 13.4034H11.515V4.07144H3.92849V13.4034Z" fill="white"/>
</svg>
