<svg width="42" height="42" viewBox="0 0 42 42" fill="none" xmlns="http://www.w3.org/2000/svg">
<path d="M6.10743 41.299C5.16243 41.299 4.35843 40.9675 3.69543 40.3045C3.03243 39.6415 2.70093 38.8375 2.70093 37.8925V13.802C2.12626 13.5636 1.64926 13.1698 1.26993 12.6205C0.890595 12.0708 0.700928 11.447 0.700928 10.749V4.10746C0.700928 3.15913 1.03243 2.3523 1.69543 1.68696C2.35843 1.02163 3.16243 0.688965 4.10743 0.688965H37.8924C38.8408 0.688965 39.6476 1.02163 40.3129 1.68696C40.9783 2.3523 41.3109 3.15913 41.3109 4.10746V10.749C41.3109 11.447 41.1193 12.0703 40.7359 12.619C40.3526 13.168 39.8776 13.5623 39.3109 13.802V37.8925C39.3109 38.8375 38.9783 39.6415 38.3129 40.3045C37.6476 40.9675 36.8408 41.299 35.8924 41.299H6.10743ZM6.10743 14.1555V37.9045H35.9044V14.1555H6.10743ZM4.10743 10.749H37.9044V4.10746H4.10743V10.749ZM16.4639 24.215H25.5479C26.0026 24.215 26.3861 24.0578 26.6984 23.7435C27.0111 23.4288 27.1674 23.0425 27.1674 22.5845C27.1674 22.1268 27.0111 21.7443 26.6984 21.437C26.3861 21.1296 26.0026 20.976 25.5479 20.976H16.4639C16.0093 20.976 15.6258 21.1333 15.3134 21.448C15.0008 21.7626 14.8444 22.1488 14.8444 22.6065C14.8444 23.0645 15.0008 23.4471 15.3134 23.7545C15.6258 24.0615 16.0093 24.215 16.4639 24.215Z" fill="white"/>
</svg>
